<svg width="25" height="15" viewBox="0 0 25 15" fill="none" xmlns="http://www.w3.org/2000/svg">
<path d="M1.62501 2.66667H23.375C23.6955 2.66667 24.0028 2.53936 24.2294 2.31275C24.456 2.08615 24.5833 1.7788 24.5833 1.45833C24.5833 1.13786 24.456 0.830519 24.2294 0.603913C24.0028 0.377306 23.6955 0.25 23.375 0.25H1.62501C1.30454 0.25 0.997191 0.377306 0.770584 0.603913C0.543978 0.830519 0.416672 1.13786 0.416672 1.45833C0.416672 1.7788 0.543978 2.08615 0.770584 2.31275C0.997191 2.53936 1.30454 2.66667 1.62501 2.66667ZM23.375 12.3333H1.62501C1.30454 12.3333 0.997191 12.4606 0.770584 12.6872C0.543978 12.9139 0.416672 13.2212 0.416672 13.5417C0.416672 13.8621 0.543978 14.1695 0.770584 14.3961C0.997191 14.6227 1.30454 14.75 1.62501 14.75H23.375C23.6955 14.75 24.0028 14.6227 24.2294 14.3961C24.456 14.1695 24.5833 13.8621 24.5833 13.5417C24.5833 13.2212 24.456 12.9139 24.2294 12.6872C24.0028 12.4606 23.6955 12.3333 23.375 12.3333ZM23.375 6.29167H1.62501C1.30454 6.29167 0.997191 6.41897 0.770584 6.64558C0.543978 6.87219 0.416672 7.17953 0.416672 7.5C0.416672 7.82047 0.543978 8.12781 0.770584 8.35442C0.997191 8.58103 1.30454 8.70833 1.62501 8.70833H23.375C23.6955 8.70833 24.0028 8.58103 24.2294 8.35442C24.456 8.12781 24.5833 7.82047 24.5833 7.5C24.5833 7.17953 24.456 6.87219 24.2294 6.64558C24.0028 6.41897 23.6955 6.29167 23.375 6.29167Z" fill="white"/>
</svg>
