<svg width="93" height="93" viewBox="0 0 93 93" fill="none" xmlns="http://www.w3.org/2000/svg">
<path d="M46.5 87.1875C38.4528 87.1875 30.5863 84.8012 23.8953 80.3304C17.2042 75.8596 11.9892 69.5051 8.90967 62.0705C5.83013 54.6358 5.02438 46.4549 6.59432 38.5623C8.16425 30.6697 12.0394 23.4199 17.7296 17.7296C23.4199 12.0394 30.6697 8.16425 38.5623 6.59432C46.4549 5.02438 54.6358 5.83013 62.0705 8.90967C69.5051 11.9892 75.8596 17.2042 80.3304 23.8953C84.8012 30.5863 87.1875 38.4528 87.1875 46.5C87.1875 57.291 82.9008 67.64 75.2704 75.2704C67.64 82.9008 57.291 87.1875 46.5 87.1875ZM46.5 11.625C39.6024 11.625 32.8597 13.6704 27.1245 17.5025C21.3893 21.3346 16.9193 26.7814 14.2797 33.1539C11.6401 39.5265 10.9495 46.5387 12.2951 53.3038C13.6408 60.0689 16.9623 66.283 21.8397 71.1604C26.717 76.0377 32.9312 79.3592 39.6962 80.7049C46.4613 82.0506 53.4735 81.3599 59.8461 78.7203C66.2187 76.0807 71.6654 71.6107 75.4975 65.8755C79.3296 60.1404 81.375 53.3976 81.375 46.5C81.375 37.2506 77.7007 28.38 71.1604 21.8397C64.62 15.2993 55.7494 11.625 46.5 11.625Z" fill="white"/>
<path d="M59.8397 63.9375L43.5938 47.6916V20.3438H49.4062V45.2794L63.9375 59.8397L59.8397 63.9375Z" fill="white"/>
</svg>
