<svg width="72" height="12" viewBox="0 0 72 12" fill="none" xmlns="http://www.w3.org/2000/svg">
<path d="M71.9816 4.62106C71.9373 4.48486 71.8196 4.38561 71.6779 4.36505L67.9877 3.8288L66.3373 0.484814C66.2739 0.35642 66.1432 0.275146 66 0.275146C65.8568 0.275146 65.7261 0.35642 65.6627 0.484814L64.0123 3.8288L60.3221 4.36505C60.1804 4.38561 60.0627 4.48486 60.0184 4.62106C59.9742 4.75722 60.0111 4.90671 60.1136 5.00664L62.7839 7.60956L62.1535 11.2849C62.1293 11.426 62.1873 11.5687 62.3032 11.6528C62.419 11.7369 62.5725 11.7481 62.6993 11.6815L66 9.94619L69.3007 11.6815C69.3557 11.7104 69.4158 11.7247 69.4757 11.7247C69.5537 11.7247 69.6313 11.7005 69.6968 11.6529C69.8126 11.5687 69.8707 11.4261 69.8465 11.285L69.2161 7.60958L71.8864 5.00666C71.9889 4.90668 72.0258 4.7572 71.9816 4.62106Z" fill="#BDBFC1"/>
<path d="M56.9816 4.62106C56.9373 4.48486 56.8196 4.38561 56.6779 4.36505L52.9877 3.8288L51.3373 0.484814C51.2739 0.35642 51.1432 0.275146 51 0.275146C50.8568 0.275146 50.7261 0.35642 50.6627 0.484814L49.0123 3.8288L45.3221 4.36505C45.1804 4.38561 45.0627 4.48486 45.0184 4.62106C44.9742 4.75722 45.0111 4.90671 45.1136 5.00664L47.7839 7.60956L47.1535 11.2849C47.1293 11.426 47.1873 11.5687 47.3032 11.6528C47.419 11.7369 47.5725 11.7481 47.6993 11.6815L51 9.94619L54.3007 11.6815C54.3557 11.7104 54.4158 11.7247 54.4757 11.7247C54.5537 11.7247 54.6313 11.7005 54.6968 11.6529C54.8126 11.5687 54.8707 11.4261 54.8465 11.285L54.2161 7.60958L56.8864 5.00666C56.9889 4.90668 57.0258 4.7572 56.9816 4.62106Z" fill="#BDBFC1"/>
<path d="M41.9816 4.62106C41.9373 4.48486 41.8196 4.38561 41.6779 4.36505L37.9877 3.8288L36.3373 0.484814C36.2739 0.35642 36.1432 0.275146 36 0.275146C35.8568 0.275146 35.7261 0.35642 35.6627 0.484814L34.0123 3.8288L30.3221 4.36505C30.1804 4.38561 30.0627 4.48486 30.0184 4.62106C29.9742 4.75722 30.0111 4.90671 30.1136 5.00664L32.7839 7.60956L32.1535 11.2849C32.1293 11.426 32.1873 11.5687 32.3032 11.6528C32.419 11.7369 32.5725 11.7481 32.6993 11.6815L36 9.94619L39.3007 11.6815C39.3557 11.7104 39.4158 11.7247 39.4757 11.7247C39.5537 11.7247 39.6313 11.7005 39.6968 11.6529C39.8126 11.5687 39.8707 11.4261 39.8465 11.285L39.2161 7.60958L41.8864 5.00666C41.9889 4.90668 42.0258 4.7572 41.9816 4.62106Z" fill="#BDBFC1"/>
<path d="M26.9816 4.62106C26.9373 4.48486 26.8196 4.38561 26.6779 4.36505L22.9877 3.8288L21.3373 0.484814C21.2739 0.35642 21.1432 0.275146 21 0.275146C20.8568 0.275146 20.7261 0.35642 20.6627 0.484814L19.0123 3.8288L15.3221 4.36505C15.1804 4.38561 15.0627 4.48486 15.0184 4.62106C14.9742 4.75722 15.0111 4.90671 15.1136 5.00664L17.7839 7.60956L17.1535 11.2849C17.1293 11.426 17.1873 11.5687 17.3032 11.6528C17.419 11.7369 17.5725 11.7481 17.6993 11.6815L21 9.94619L24.3007 11.6815C24.3557 11.7104 24.4158 11.7247 24.4757 11.7247C24.5537 11.7247 24.6313 11.7005 24.6968 11.6529C24.8126 11.5687 24.8707 11.4261 24.8465 11.285L24.2161 7.60958L26.8864 5.00666C26.9889 4.90668 27.0258 4.7572 26.9816 4.62106Z" fill="#BDBFC1"/>
<path d="M11.9816 4.62106C11.9373 4.48486 11.8196 4.38561 11.6779 4.36505L7.98766 3.8288L6.33731 0.484814C6.27394 0.35642 6.14319 0.275146 6 0.275146C5.85681 0.275146 5.72606 0.35642 5.66269 0.484814L4.01233 3.8288L0.322058 4.36505C0.180374 4.38561 0.0626636 4.48486 0.0184281 4.62106C-0.0258324 4.75722 0.0110806 4.90671 0.11362 5.00664L2.7839 7.60956L2.15352 11.2849C2.12932 11.426 2.18735 11.5687 2.30318 11.6528C2.41898 11.7369 2.57253 11.7481 2.69931 11.6815L6 9.94619L9.30068 11.6815C9.35572 11.7104 9.41583 11.7247 9.47569 11.7247C9.55368 11.7247 9.63129 11.7005 9.69682 11.6529C9.81265 11.5687 9.87068 11.4261 9.84648 11.285L9.2161 7.60958L11.8864 5.00666C11.9889 4.90668 12.0258 4.7572 11.9816 4.62106Z" fill="#BDBFC1"/>
</svg>
