<svg width="192" height="122" viewBox="0 0 192 122" fill="none" xmlns="http://www.w3.org/2000/svg">
<rect width="191.055" height="121.029" rx="5" fill="white"/>
<path d="M71.8198 44.9004H81.2449V47.9536H76.7614V69.5422H71.8198V44.9004Z" fill="#0079C2"/>
<path d="M86.5782 60.2865L87.4279 47.9536H87.7111L88.5548 60.2865H86.5782ZM81.1063 69.5482H85.9394L86.3974 62.9971H88.7295L89.1875 69.5482H94.0206L91.4414 44.9004H83.6735L81.0942 69.5482H81.1063Z" fill="#0079C2"/>
<path d="M100.529 60.9176V65.5574C100.529 66.1885 101.023 66.3688 101.307 66.3688C101.765 66.3688 102.084 65.9841 102.084 65.5574V59.8237C102.084 59.0484 101.939 58.207 100.107 58.207H98.0945V55.4964H100.174C101.584 55.4964 102.078 55.1778 102.078 53.6632V48.7649C102.078 48.3442 101.758 47.9536 101.3 47.9536C101.017 47.9536 100.523 48.1279 100.523 48.7649V52.7858H95.5815V49.2998C95.5815 47.5749 95.7925 44.9004 99.2515 44.9004H103.349C106.815 44.9004 107.019 47.5749 107.019 49.2998V53.2425C107.019 55.9171 105.151 56.6563 103.669 56.5842V56.8306C106.989 56.7585 107.019 59.2948 107.019 60.1723V65.1367C107.019 66.8616 106.809 69.5362 103.349 69.5362H99.2515C95.7925 69.5362 95.5815 66.8616 95.5815 65.1367V60.9115H100.523L100.529 60.9176Z" fill="#0079C2"/>
<path d="M109.623 44.9004H121.06V69.5482H116.119V47.9536H114.564V69.5422H109.623V44.9004Z" fill="#0079C2"/>
<path d="M128.895 58.4534V47.9536H129.527C130.058 47.9536 130.443 48.4103 130.443 49.1857V57.2213C130.443 57.9966 130.052 58.4534 129.527 58.4534H128.895ZM123.953 69.5422H128.895V61.164H131.721C135.18 61.164 135.391 58.4894 135.391 56.7645V49.2999C135.391 47.5749 135.18 44.9004 131.721 44.9004H123.953V69.5482V69.5422Z" fill="#0079C2"/>
<path d="M144.286 65.5574C144.286 65.9781 143.966 66.3688 143.508 66.3688C143.225 66.3688 142.731 66.1885 142.731 65.5574V48.7649C142.731 48.1339 143.225 47.9536 143.508 47.9536C143.966 47.9536 144.286 48.3382 144.286 48.7649V65.5574ZM137.79 65.1427C137.79 66.8676 138 69.5422 141.46 69.5422H145.557C149.017 69.5422 149.227 66.8676 149.227 65.1427V49.2999C149.227 47.5749 149.017 44.9004 145.557 44.9004H141.46C138 44.9004 137.79 47.5749 137.79 49.2999V65.1427Z" fill="#0079C2"/>
<path d="M164.63 44.9004H171.054V69.5482H166.113V54.09H165.938L163.395 69.5482H159.442L156.899 54.09H156.718V69.5482H151.776V44.9004H158.2L161.412 62.2218L164.624 44.9004H164.63Z" fill="#0079C2"/>
<path d="M64.7994 34.5988C63.088 27.098 58.7792 21.0037 58.1886 20C57.2485 21.4004 53.8135 26.7795 52.0659 32.7596C50.1616 39.4249 49.8844 45.333 50.5412 51.1628C51.1921 56.9807 53.6629 62.9608 53.6629 62.9608C54.9706 66.0982 56.9351 69.4579 58.2127 71.1047C60.0869 68.6765 64.3957 61.4343 65.7395 51.9682C66.4868 46.7093 66.5229 42.1055 64.7994 34.5988ZM58.1886 69.2415C57.3449 67.6548 56.0312 64.6377 55.9046 59.9738C55.8745 55.4601 57.6824 51.5896 58.2127 50.7902C58.6827 51.5956 60.2496 54.9673 60.4304 59.5711C60.5569 64.0787 59.0564 67.6248 58.1886 69.2415ZM64.2992 47.3344C64.239 50.1952 63.8955 53.2183 63.4556 55.0214C63.6122 51.9141 63.2386 47.5267 62.5215 44.0949C61.8044 40.663 59.7735 34.9534 58.1524 32.2969C56.6579 34.8211 54.8139 39.7735 53.8436 44.0648C52.8734 48.3681 52.8433 53.5609 52.8433 55.1236C52.5902 53.8073 51.9393 49.1254 52.1262 44.4134C52.2768 40.5248 53.1928 36.534 53.687 34.7009C55.5913 28.5645 57.7487 24.6459 58.1524 24.0268C58.5562 24.6459 61.274 29.4721 62.6782 34.5447C64.0763 39.6233 64.3595 44.4735 64.2992 47.3404V47.3344Z" fill="#0079C2"/>
<path d="M61.0992 72.8538H48.0343V81.5986C48.0343 81.5986 48.0584 81.5746 48.0704 81.5626C51.1499 78.4913 56.1396 78.4913 59.213 81.5626C62.2924 84.6338 62.2924 89.6102 59.213 92.6814C59.201 92.6934 59.1889 92.7054 59.1769 92.7175C59.1769 92.7175 59.1467 92.7475 59.1287 92.7595C56.0613 95.8007 52.0478 97.3213 48.0343 97.3213C44.0208 97.3213 39.9771 95.7887 36.8977 92.7235C31.4861 87.3203 30.8413 78.9541 34.9693 72.8538C35.5237 72.0304 36.1685 71.2431 36.8977 70.5218C39.9711 67.4566 44.0027 65.924 48.0343 65.924V44.9004C32.5588 44.9004 20 57.4196 20 72.8538C20 88.288 32.5588 100.813 48.0343 100.813C56.1155 100.813 63.3832 97.4054 68.4935 91.9602V72.8538H61.0992Z" fill="#0079C2"/>
<path d="M171.055 72.8535H71.8198V88.2576H171.055V72.8535Z" fill="#0079C2"/>
<path d="M81.9743 75.9365V83.4252H82.4503V87.0674H80.2809V85.1742H77.0689V87.0674H74.8994V83.4252H75.2068C75.8757 82.3674 76.0685 81.4178 76.0685 78.575V75.9365H81.9682H81.9743ZM79.7445 77.6855H78.2621V79.4224C78.2621 81.2014 78.1054 82.3975 77.551 83.4252H79.7445V77.6855Z" fill="white"/>
<path d="M98.6312 78.3469V82.4939C98.6312 84.333 97.7152 85.4028 95.6241 85.4028C93.5329 85.4028 92.6169 84.333 92.6169 82.4939V78.3348C92.6169 76.8804 93.5329 75.7324 95.6361 75.7324C97.7393 75.7324 98.6312 76.9044 98.6312 78.3469ZM94.8527 78.1906V82.8725C94.8527 83.4255 95.2384 83.6959 95.6241 83.6959C96.0097 83.6959 96.4014 83.4255 96.4014 82.8725V78.1906C96.4014 77.6617 96.0037 77.4333 95.6241 77.4333C95.2444 77.4333 94.8527 77.6677 94.8527 78.1906Z" fill="white"/>
<path d="M114.215 75.9367V77.5955H111.401V79.5007H112.407C113.721 79.5007 115.119 80.0777 115.119 82.3556C115.119 84.6334 113.703 85.1743 112.407 85.1743H109.165V75.9307H114.209L114.215 75.9367ZM111.401 83.5155H111.786C112.431 83.5155 112.883 83.2992 112.883 82.3856C112.883 81.4721 112.383 81.1655 111.823 81.1655H111.395V83.5215L111.401 83.5155Z" fill="white"/>
<path d="M127.877 79.5007H128.883C130.197 79.5007 131.595 80.0777 131.595 82.3556C131.595 84.6334 130.179 85.1743 128.883 85.1743H125.647V75.9307H127.877V79.4947V79.5007ZM127.877 83.5155H128.262C128.907 83.5155 129.359 83.2992 129.359 82.3856C129.359 81.4721 128.853 81.1655 128.299 81.1655H127.871V83.5215L127.877 83.5155ZM134.717 85.1743H132.487V75.9307H134.717V85.1743Z" fill="white"/>
<path d="M147.468 75.9365V79.0378C147.468 79.4765 147.661 79.6809 148.089 79.6809C148.426 79.6809 148.655 79.6268 148.926 79.5006V75.9365H151.156V85.1802H148.926V81.2555C148.45 81.3818 148.113 81.4358 147.239 81.4358C146.425 81.4358 145.238 80.8589 145.238 79.2361V75.9425H147.468V75.9365Z" fill="white"/>
<path d="M165.89 75.9365L167.945 85.1802H165.752L165.414 83.3291H163.709L163.426 85.1802H161.208L163.221 75.9365H165.89ZM165.119 81.6642L164.522 77.5953H164.51L163.932 81.6642H165.119Z" fill="white"/>
<path d="M71.8198 96.1791C71.8198 94.0635 72.1694 91.395 74.8691 91.395C77.5689 91.395 77.9305 94.0635 77.9305 96.1791C77.9305 98.7335 77.5689 101.029 74.8691 101.029C72.1694 101.029 71.8198 98.7335 71.8198 96.1791ZM74.845 92.3146C73.2601 92.3146 72.8925 93.9433 72.8925 96.0108C72.8925 98.6914 73.1757 100.104 74.8752 100.104C76.5746 100.104 76.8699 98.6914 76.8699 96.0229C76.8699 93.9554 76.4842 92.3146 74.851 92.3146H74.845Z" fill="#0079C2"/>
<path d="M87.271 100.813H86.2405V91.5752H88.8137C90.5011 91.5752 91.6039 92.3565 91.6039 94.1776C91.6039 96.3353 90.2901 96.9002 88.6209 96.9002H87.271V100.813ZM87.271 95.9747H88.2774C89.6935 95.9747 90.5432 95.7583 90.5432 94.1776C90.5432 92.8674 89.808 92.4948 88.5727 92.4948H87.271V95.9747Z" fill="#0079C2"/>
<path d="M104.301 91.5752V92.5008H100.686V95.5059H104.066V96.4314H100.686V99.8933H104.313V100.819H99.655V91.5812H104.301V91.5752Z" fill="#0079C2"/>
<path d="M113.817 95.4999H117.354V91.5752H118.385V100.813H117.354V96.4254H113.817V100.813H112.786V91.5752H113.817V95.4999Z" fill="#0079C2"/>
<path d="M131.468 91.5752V92.5008H127.895V95.5059H129.118C130.787 95.5059 132.101 96.0708 132.101 98.2105C132.101 100.044 130.992 100.813 129.323 100.813H126.864V91.5752H131.468ZM127.895 99.8873H129.064C130.299 99.8873 131.034 99.5147 131.034 98.2044C131.034 96.7259 130.197 96.4194 128.768 96.4194H127.895V99.8813V99.8873Z" fill="#0079C2"/>
<path d="M140.676 91.5752L142.84 97.9881L144.822 91.5752H145.901L143.352 99.2863C142.9 100.657 142.376 101.029 141.628 101.029C141.219 101.029 140.984 100.975 140.845 100.915V99.9895C141.014 100.08 141.297 100.104 141.526 100.104C141.887 100.104 142.104 99.9354 142.309 99.2322L139.585 91.5752H140.676Z" fill="#0079C2"/>
<path d="M154.519 100.813H153.488V91.5752H156.062C157.749 91.5752 158.852 92.3565 158.852 94.1776C158.852 96.3353 157.538 96.9002 155.869 96.9002H154.519V100.813ZM154.519 95.9747H155.519C156.935 95.9747 157.785 95.7583 157.785 94.1776C157.785 92.8674 157.05 92.4948 155.814 92.4948H154.513V95.9747H154.519Z" fill="#0079C2"/>
<path d="M171.055 91.5752V92.5008H167.734V100.813H166.704V91.5752H171.049H171.055Z" fill="#0079C2"/>
</svg>
