<svg width="13" height="10" viewBox="0 0 13 10" fill="none" xmlns="http://www.w3.org/2000/svg">
<path d="M9.14398 0C9.51235 0 9.87245 0.109234 10.1787 0.313888C10.485 0.518542 10.7237 0.809425 10.8647 1.14975C11.0057 1.49008 11.0426 1.86457 10.9707 2.22586C10.8988 2.58715 10.7214 2.91901 10.461 3.17949C10.2005 3.43996 9.86863 3.61735 9.50734 3.68921C9.14605 3.76108 8.77156 3.72419 8.43124 3.58323C8.09091 3.44226 7.80002 3.20354 7.59537 2.89725C7.39072 2.59096 7.28148 2.23087 7.28148 1.8625C7.28148 1.36853 7.47771 0.8948 7.827 0.545514C8.17628 0.196227 8.65002 0 9.14398 0ZM4.42732 3.7L7.43565 6.70833C7.46281 6.73605 7.49522 6.75807 7.53099 6.7731C7.56677 6.78813 7.60518 6.79588 7.64398 6.79588C7.68279 6.79588 7.7212 6.78813 7.75697 6.7731C7.79275 6.75807 7.82516 6.73605 7.85232 6.70833L8.42732 6.13333C8.48273 6.07837 8.55761 6.04753 8.63565 6.04753C8.71369 6.04753 8.78857 6.07837 8.84398 6.13333L12.0982 9.3875C12.1398 9.4283 12.1683 9.48064 12.1799 9.53778C12.1915 9.59492 12.1857 9.65422 12.1633 9.70804C12.1409 9.76186 12.1028 9.80773 12.0541 9.83972C12.0053 9.8717 11.9481 9.88835 11.8898 9.8875H0.293983C0.240494 9.88793 0.187919 9.87363 0.142007 9.84619C0.0960952 9.81874 0.0586156 9.7792 0.0336672 9.73188C0.00871878 9.68456 -0.00273709 9.6313 0.000552016 9.57791C0.00384112 9.52452 0.0217487 9.47306 0.0523163 9.42917L4.01065 3.75417C4.03399 3.72264 4.06345 3.69615 4.09727 3.67627C4.13109 3.65639 4.16857 3.64354 4.20747 3.63848C4.24636 3.63342 4.28588 3.63627 4.32366 3.64684C4.36144 3.65741 4.39669 3.67549 4.42732 3.7Z" fill="#0079C2"/>
</svg>
