<svg width="113" height="61" viewBox="0 0 113 61" fill="none" xmlns="http://www.w3.org/2000/svg">
<path d="M38.765 18.6273H45.8157V20.9113H42.4617V37.0612H38.765V18.6273Z" fill="white"/>
<path d="M49.8054 30.1372L50.441 20.9113H50.6529L51.284 30.1372H49.8054ZM45.712 37.0657H49.3275L49.6701 32.165H51.4148L51.7574 37.0657H55.3729L53.4434 18.6273H47.6325L45.703 37.0657H45.712Z" fill="white"/>
<path d="M60.2417 30.6093V34.0803C60.2417 34.5524 60.6113 34.6873 60.8232 34.6873C61.1658 34.6873 61.4048 34.3995 61.4048 34.0803V29.7911C61.4048 29.2111 61.2966 28.5816 59.9261 28.5816H58.4204V26.5539H59.9757C61.0306 26.5539 61.4003 26.3156 61.4003 25.1826V21.5183C61.4003 21.2036 61.1613 20.9113 60.8187 20.9113C60.6068 20.9113 60.2372 21.0417 60.2372 21.5183V24.5262H56.5405V21.9184C56.5405 20.6281 56.6983 18.6273 59.286 18.6273H62.3515C64.9436 18.6273 65.0969 20.6281 65.0969 21.9184V24.8679C65.0969 26.8686 63.6994 27.4216 62.5904 27.3677V27.552C65.0744 27.4981 65.0969 29.3954 65.0969 30.0518V33.7656C65.0969 35.0559 64.9391 37.0567 62.3515 37.0567H59.286C56.6983 37.0567 56.5405 35.0559 56.5405 33.7656V30.6048H60.2372L60.2417 30.6093Z" fill="white"/>
<path d="M67.0442 18.6273H75.6006V37.0657H71.9039V20.9113H70.7408V37.0612H67.0442V18.6273Z" fill="white"/>
<path d="M81.4612 28.7659V20.9113H81.9345C82.3312 20.9113 82.6198 21.253 82.6198 21.833V27.8443C82.6198 28.4242 82.3267 28.7659 81.9345 28.7659H81.4612ZM77.7645 37.0612H81.4612V30.7937H83.5755C86.1631 30.7937 86.3209 28.7929 86.3209 27.5026V21.9184C86.3209 20.6281 86.1631 18.6273 83.5755 18.6273H77.7645V37.0657V37.0612Z" fill="white"/>
<path d="M92.975 34.0803C92.975 34.395 92.736 34.6873 92.3934 34.6873C92.1815 34.6873 91.8119 34.5524 91.8119 34.0803V21.5183C91.8119 21.0462 92.1815 20.9113 92.3934 20.9113C92.736 20.9113 92.975 21.1991 92.975 21.5183V34.0803ZM88.1152 33.7701C88.1152 35.0604 88.273 37.0612 90.8607 37.0612H93.9262C96.5138 37.0612 96.6716 35.0604 96.6716 33.7701V21.9184C96.6716 20.6281 96.5138 18.6273 93.9262 18.6273H90.8607C88.273 18.6273 88.1152 20.6281 88.1152 21.9184V33.7701Z" fill="white"/>
<path d="M108.194 18.6273H113V37.0657H109.303V25.5018H109.173L107.27 37.0657H104.313L102.41 25.5018H102.275V37.0657H98.5785V18.6273H103.384L105.787 31.585L108.19 18.6273H108.194Z" fill="white"/>
<path d="M33.5133 10.9209C32.233 5.30985 29.0097 0.750843 28.5679 0C27.8646 1.04758 25.295 5.07156 23.9876 9.54515C22.5631 14.5313 22.3557 18.9509 22.8471 23.3121C23.334 27.6643 25.1823 32.1379 25.1823 32.1379C26.1605 34.4848 27.6302 36.9981 28.5859 38.23C29.9879 36.4136 33.2112 30.9959 34.2165 23.9146C34.7755 19.9805 34.8026 16.5365 33.5133 10.9209ZM28.5679 36.8363C27.9367 35.6493 26.954 33.3923 26.8593 29.9033C26.8368 26.5268 28.1892 23.6313 28.5859 23.0333C28.9375 23.6358 30.1096 26.1581 30.2449 29.6021C30.3395 32.9741 29.217 35.6268 28.5679 36.8363ZM33.1391 20.4481C33.094 22.5882 32.837 24.8498 32.5079 26.1986C32.6252 23.8741 32.3457 20.592 31.8092 18.0247C31.2727 15.4575 29.7535 11.1862 28.5408 9.19895C27.4228 11.0873 26.0433 14.7921 25.3175 18.0022C24.5917 21.2214 24.5692 25.106 24.5692 26.275C24.3798 25.2904 23.893 21.7879 24.0327 18.263C24.1454 15.3541 24.8307 12.3687 25.2003 10.9974C26.6249 6.40689 28.2388 3.47546 28.5408 3.01236C28.8429 3.47546 30.876 7.0858 31.9264 10.8805C32.9723 14.6797 33.1842 18.308 33.1391 20.4526V20.4481Z" fill="white"/>
<path d="M30.7453 39.5384H20.9717V46.0802C20.9717 46.0802 20.9897 46.0622 20.9987 46.0532C23.3024 43.7557 27.0351 43.7557 29.3342 46.0532C31.6379 48.3507 31.6379 52.0734 29.3342 54.3709C29.3252 54.3799 29.3162 54.3889 29.3072 54.3979C29.3072 54.3979 29.2846 54.4204 29.2711 54.4294C26.9765 56.7044 23.9741 57.8419 20.9717 57.8419C17.9693 57.8419 14.9444 56.6954 12.6407 54.4024C8.59245 50.3604 8.11008 44.1019 11.1981 39.5384C11.6129 38.9224 12.0952 38.3334 12.6407 37.7939C14.9399 35.5009 17.9558 34.3544 20.9717 34.3544V18.6272C9.39489 18.6272 0 27.9925 0 39.5384C0 51.0843 9.39489 60.4541 20.9717 60.4541C27.0171 60.4541 32.4538 57.9048 36.2767 53.8314V39.5384H30.7453Z" fill="white"/>
<path d="M113 39.5383H38.765V51.0617H113V39.5383Z" fill="white"/>
<path d="M46.3614 41.8447V47.4468H46.7175V50.1714H45.0946V48.7552H42.6918V50.1714H41.0688V47.4468H41.2988C41.7992 46.6555 41.9434 45.9451 41.9434 43.8185V41.8447H46.3569H46.3614ZM44.6934 43.1531H43.5844V44.4524C43.5844 45.7833 43.4672 46.678 43.0524 47.4468H44.6934V43.1531Z" fill="#0079C2"/>
<path d="M58.822 43.6477V46.75C58.822 48.1258 58.1367 48.9261 56.5724 48.9261C55.0081 48.9261 54.3229 48.1258 54.3229 46.75V43.6387C54.3229 42.5506 55.0081 41.6919 56.5814 41.6919C58.1548 41.6919 58.822 42.5686 58.822 43.6477ZM55.9954 43.5308V47.0332C55.9954 47.4469 56.2839 47.6492 56.5724 47.6492C56.8609 47.6492 57.154 47.4469 57.154 47.0332V43.5308C57.154 43.1351 56.8564 42.9643 56.5724 42.9643C56.2884 42.9643 55.9954 43.1396 55.9954 43.5308Z" fill="#0079C2"/>
<path d="M70.4798 41.8447V43.0856H68.3745V44.5109H69.1274C70.1101 44.5109 71.156 44.9425 71.156 46.6465C71.156 48.3505 70.0966 48.7552 69.1274 48.7552H66.702V41.8402H70.4753L70.4798 41.8447ZM68.3745 47.5142H68.663C69.1454 47.5142 69.4835 47.3524 69.4835 46.669C69.4835 45.9856 69.1093 45.7563 68.6901 45.7563H68.37V47.5187L68.3745 47.5142Z" fill="#0079C2"/>
<path d="M80.6997 44.5109H81.4526C82.4354 44.5109 83.4812 44.9425 83.4812 46.6465C83.4812 48.3505 82.4218 48.7552 81.4526 48.7552H79.0317V41.8402H80.6997V44.5064V44.5109ZM80.6997 47.5142H80.9883C81.4706 47.5142 81.8087 47.3524 81.8087 46.669C81.8087 45.9856 81.4301 45.7563 81.0153 45.7563H80.6952V47.5187L80.6997 47.5142ZM85.8164 48.7552H84.1484V41.8402H85.8164V48.7552Z" fill="#0079C2"/>
<path d="M95.3555 41.8447V44.1647C95.3555 44.4929 95.4998 44.6458 95.8198 44.6458C96.0723 44.6458 96.2436 44.6053 96.4465 44.5109V41.8447H98.1145V48.7597H96.4465V45.8237C96.0903 45.9182 95.8379 45.9586 95.1842 45.9586C94.5756 45.9586 93.6875 45.527 93.6875 44.3131V41.8492H95.3555V41.8447Z" fill="#0079C2"/>
<path d="M109.137 41.8447L110.674 48.7597H109.033L108.781 47.3749H107.505L107.293 48.7597H105.634L107.14 41.8447H109.137ZM108.56 46.1295L108.114 43.0856H108.104L107.672 46.1295H108.56Z" fill="#0079C2"/>
<path d="M38.765 56.9876C38.765 55.4049 39.0265 53.4087 41.0461 53.4087C43.0658 53.4087 43.3362 55.4049 43.3362 56.9876C43.3362 58.8984 43.0658 60.6159 41.0461 60.6159C39.0265 60.6159 38.765 58.8984 38.765 56.9876ZM41.0281 54.0966C39.8425 54.0966 39.5675 55.315 39.5675 56.8617C39.5675 58.8669 39.7793 59.9235 41.0506 59.9235C42.3219 59.9235 42.5428 58.8669 42.5428 56.8707C42.5428 55.324 42.2543 54.0966 41.0326 54.0966H41.0281Z" fill="white"/>
<path d="M50.3236 60.4542H49.5527V53.5437H51.4777C52.74 53.5437 53.5649 54.1282 53.5649 55.4905C53.5649 57.1046 52.5822 57.5272 51.3334 57.5272H50.3236V60.4542ZM50.3236 56.8348H51.0765C52.1359 56.8348 52.7715 56.673 52.7715 55.4905C52.7715 54.5104 52.2215 54.2316 51.2974 54.2316H50.3236V56.8348Z" fill="white"/>
<path d="M63.0635 53.5437V54.2361H60.3587V56.4841H62.8877V57.1765H60.3587V59.7663H63.0725V60.4587H59.5878V53.5482H63.0635V53.5437Z" fill="white"/>
<path d="M70.1819 56.4796H72.8281V53.5437H73.599V60.4542H72.8281V57.172H70.1819V60.4542H69.411V53.5437H70.1819V56.4796Z" fill="white"/>
<path d="M83.3862 53.5437V54.2361H80.7129V56.4841H81.6281C82.8768 56.4841 83.8596 56.9068 83.8596 58.5074C83.8596 59.8787 83.0301 60.4542 81.7813 60.4542H79.942V53.5437H83.3862ZM80.7129 59.7618H81.5875C82.5116 59.7618 83.0616 59.483 83.0616 58.5029C83.0616 57.3968 82.435 57.1675 81.3666 57.1675H80.7129V59.7573V59.7618Z" fill="white"/>
<path d="M90.2747 53.5437L91.8931 58.341L93.3763 53.5437H94.1832L92.2763 59.3122C91.9382 60.3373 91.546 60.616 90.987 60.616C90.6804 60.616 90.5046 60.5756 90.4009 60.5306V59.8382C90.5272 59.9056 90.739 59.9236 90.9103 59.9236C91.1808 59.9236 91.3431 59.7977 91.4964 59.2717L89.4587 53.5437H90.2747Z" fill="white"/>
<path d="M100.63 60.4542H99.859V53.5437H101.784C103.046 53.5437 103.871 54.1282 103.871 55.4905C103.871 57.1046 102.888 57.5272 101.64 57.5272H100.63V60.4542ZM100.63 56.8348H101.378C102.438 56.8348 103.073 56.673 103.073 55.4905C103.073 54.5104 102.523 54.2316 101.599 54.2316H100.625V56.8348H100.63Z" fill="white"/>
<path d="M113 53.5437V54.2361H110.516V60.4542H109.745V53.5437H112.995H113Z" fill="white"/>
</svg>
