<svg width="165" height="122" viewBox="0 0 165 122" fill="none" xmlns="http://www.w3.org/2000/svg">
<rect width="165" height="122" rx="5" fill="white"/>
<path d="M147.011 85.0535H20.0234V101H147.011V85.0535Z" fill="#0079C2"/>
<path d="M24.3184 88.4417H27.5241C29.1337 88.4417 29.7799 89.5028 29.7799 90.6662C29.7799 91.5383 29.3117 92.5108 28.5514 92.6632C29.451 93.0298 29.9076 93.6742 29.9076 94.8627C29.9076 96.4429 29.2227 97.5677 27.8162 97.5677H24.3184V88.4436V88.4417ZM26.0537 92.1442H26.9669C27.7272 92.1442 28.0445 91.6888 28.0445 90.9055C28.0445 90.1222 27.7775 89.7421 26.9921 89.7421H26.0537V92.1442ZM26.0537 96.2654H27.1681C27.8143 96.2654 28.1316 95.8737 28.1316 94.8492C28.1316 93.952 27.8143 93.4465 27.1681 93.4465H26.0537V96.2654Z" fill="white"/>
<path d="M44.2394 88.2773C46.0019 88.2773 47.1801 89.0742 47.1801 91.3991V94.71C47.1801 97.0349 46.0019 97.7816 44.2394 97.7816C42.4769 97.7816 41.262 97.0117 41.262 94.71V91.3991C41.262 89.0993 42.504 88.2773 44.2394 88.2773ZM43.036 91.1965V94.9241C43.036 95.8715 43.4172 96.3905 44.2394 96.3905C44.9862 96.3905 45.406 95.885 45.406 94.9241V91.2216C45.406 90.2492 44.9881 89.6665 44.2394 89.6665C43.4152 89.6665 43.036 90.2222 43.036 91.1965Z" fill="white"/>
<path d="M53.6961 97.5658H51.9607V88.4417H55.2438C56.7258 88.4417 57.6525 89.6417 57.6525 91.1081C57.6525 92.5744 56.7025 93.8497 55.2187 93.8497H53.698V97.5658H53.6961ZM53.6961 92.4972H54.5705C55.445 92.4972 55.8764 92.0052 55.8764 91.1332C55.8764 90.2611 55.445 89.7942 54.5705 89.7942H53.6961V92.4992V92.4972Z" fill="white"/>
<path d="M67.2988 88.4417V89.8327H64.1433V91.957H67.0202V93.3481H64.1433V96.1785H67.2988V97.5696H62.406V88.4455H67.2988V88.4417Z" fill="white"/>
<path d="M73.741 91.9551H76.0355V88.4417H77.7709V97.5658H76.0355V93.3442H73.741V97.5658H72.0056V88.4417H73.741V91.9551Z" fill="white"/>
<path d="M87.4769 88.4417V89.744H84.3601V91.9551H85.8169C87.237 91.9551 88.1482 93.3578 88.1482 94.6466C88.1482 96.4043 87.3492 97.5658 85.9678 97.5658H82.6228V88.4417H87.4769ZM84.3601 96.2654H85.3603C86.0065 96.2654 86.3741 95.8737 86.3741 94.8492C86.3741 93.952 86.0065 93.3462 85.3603 93.3462H84.3601V96.2654Z" fill="white"/>
<path d="M94.2502 88.4417L95.6567 93.2825L97.0632 88.4417H98.965L96.4809 95.8235C95.9991 97.2648 95.4535 97.7819 94.6062 97.7819C94.1999 97.7819 93.8575 97.7182 93.5537 97.6179V96.2904C93.6543 96.3155 93.8071 96.3908 94.0354 96.3908C94.3779 96.3908 94.6313 96.1766 94.8093 95.6576L92.3 88.4417H94.2521H94.2502Z" fill="white"/>
<path d="M105.243 97.5655H103.508V88.4414H106.791C108.273 88.4414 109.2 89.6415 109.2 91.1078C109.2 92.5742 108.25 93.8495 106.766 93.8495H105.245V97.5655H105.243ZM105.243 92.497H106.118C106.992 92.497 107.424 92.005 107.424 91.1329C107.424 90.2608 106.992 89.7939 106.118 89.7939H105.243V92.4989V92.497Z" fill="white"/>
<path d="M115.226 88.4417L117.329 92.3969V88.4417H119.064V92.3969L121.167 88.4417H123.131L120.811 92.3969L123.206 97.5658H121.268L119.747 93.925L119.062 94.8222V97.5638H117.327V94.8222L116.642 93.925L115.121 97.5658H113.183L115.578 92.3969L113.258 88.4417H115.222H115.226Z" fill="white"/>
<path d="M129.543 91.9551H131C132.42 91.9551 133.331 93.3578 133.331 94.6466C133.331 96.4043 132.532 97.5658 131.15 97.5658H127.805V88.4417H129.541V91.9551H129.543ZM129.543 96.2654H130.543C131.189 96.2654 131.557 95.8737 131.557 94.8492C131.557 93.952 131.189 93.3462 130.543 93.3462H129.543V96.2654Z" fill="white"/>
<path d="M142.981 88.4417V89.8327H139.825V91.957H142.702V93.3481H139.825V96.1785H142.981V97.5696H138.088V88.4455H142.981V88.4417Z" fill="white"/>
<path d="M110.157 74.9975H112.54C115.466 74.9975 115.648 72.6571 115.648 71.1445V64.6135C115.648 63.1028 115.466 60.7585 112.54 60.7585H105.982V82.335H110.157V75.0014V74.9975ZM110.157 63.4346H110.685C110.728 63.4346 110.768 63.4404 110.813 63.4481C111.196 63.5118 111.467 63.9035 111.467 64.5093V71.5477C111.467 72.1613 111.194 72.5472 110.813 72.6089C110.768 72.6147 110.73 72.6185 110.685 72.6185H110.157V63.4346Z" fill="#0079C2"/>
<path d="M121.489 82.3333H124.948C127.871 82.3333 128.045 79.9949 128.045 78.4822V64.6118C128.045 63.103 127.871 60.7568 124.948 60.7568H121.489C118.567 60.7568 118.393 63.103 118.393 64.6118V78.4822C118.393 79.9949 118.567 82.3333 121.489 82.3333ZM122.561 64.141C122.561 63.593 122.977 63.4368 123.218 63.4348H123.222C123.607 63.4348 123.88 63.7706 123.88 64.141V78.8449C123.88 79.2154 123.609 79.553 123.222 79.553H123.218C122.977 79.553 122.561 79.3929 122.561 78.8449V64.141Z" fill="#0079C2"/>
<path d="M97.7465 63.4346H99.0602V82.333H103.233V60.7566H93.5715V82.333H97.7465V63.4346Z" fill="#0079C2"/>
<path d="M141.652 60.7566L138.934 75.9236L136.221 60.7566H130.791V82.333H134.971V68.8022H135.116L137.264 82.333H140.603L142.756 68.8022H142.905V82.333H147.078V60.7566H141.652Z" fill="#0079C2"/>
<path d="M72.917 76.6027H74.8846L75.2734 82.333H79.3594L77.1791 60.7566H70.6186L68.4441 82.333H72.5282L72.917 76.6027ZM73.7857 63.4365H74.0217L74.7337 74.2296H73.0641L73.7857 63.4365Z" fill="#0079C2"/>
<path d="M64.5615 63.4348H68.3476V60.7568H60.3904V82.3333H64.5615V63.4348Z" fill="#0079C2"/>
<path d="M84.26 82.3331H87.725C90.6444 82.3331 90.8243 79.9946 90.8243 78.482V74.1389C90.8243 73.3633 90.7953 71.1445 87.9919 71.2062V70.9901C89.2456 71.0557 90.8243 70.4094 90.8243 68.0652V64.6154C90.8243 63.1047 90.6463 60.7585 87.725 60.7585H84.26C81.3386 60.7585 81.1606 63.1047 81.1606 64.6154V67.6639H85.3376V64.1427C85.3376 63.5948 85.7535 63.4365 85.9896 63.4365C86.3784 63.4365 86.6473 63.7742 86.6473 64.1427V68.4318C86.6473 69.7553 86.2275 70.037 85.0377 70.037H83.2772V72.414H84.9739C86.5293 72.414 86.6473 73.1472 86.6473 73.8283V78.8466C86.6473 79.2171 86.3784 79.5547 85.9896 79.5547C85.7535 79.5547 85.3376 79.3985 85.3376 78.8466V74.7853H81.1606V78.482C81.1606 79.9946 81.3386 82.3331 84.26 82.3331Z" fill="#0079C2"/>
<path d="M41.616 82.3121C47.8475 82.3121 53.4503 79.6862 57.3931 75.4897V60.7549H41.616V67.4924C41.6276 67.4846 41.6334 67.475 41.645 67.4634C44.0169 65.1018 47.8649 65.1018 50.2387 67.4634C52.6068 69.8308 52.6068 73.6742 50.2387 76.0396C50.2271 76.0492 50.2175 76.057 50.2117 76.0724H50.2078C50.2078 76.0724 50.1826 76.0936 50.173 76.1033C47.8049 78.4456 44.7095 79.6186 41.6179 79.6186C38.5263 79.6186 35.4038 78.4378 33.0319 76.0801C28.8549 71.9107 28.3597 65.4646 31.548 60.7568C31.9755 60.1163 32.4689 59.5105 33.0319 58.9509C35.4038 56.5855 38.5108 55.4086 41.6179 55.4086V39.1978C29.681 39.1978 20 48.8525 20 60.7568C20 72.6612 29.681 82.3121 41.6179 82.3121" fill="#0079C2"/>
<path d="M45.9535 53.1239C46.9518 55.5183 48.4434 58.0728 49.432 59.3636L49.4649 59.406C50.9082 57.5306 54.2339 51.947 55.2689 44.6481C55.8435 40.5963 55.8686 37.0404 54.5453 31.2542C53.222 25.4718 49.9021 20.766 49.4436 20L49.432 20.0212C48.6814 21.1345 46.0618 25.2595 44.725 29.838C43.7906 33.0987 43.363 36.124 43.3069 39.0509V40.4671C43.332 41.6671 43.4114 42.8479 43.5448 44.0287C44.0498 48.5146 45.9554 53.1239 45.9554 53.1239H45.9535ZM49.4436 57.9648L49.432 57.9377C48.7742 56.7087 47.7779 54.3896 47.6831 50.8241C47.6579 47.4341 48.9832 44.5149 49.432 43.7914C49.4398 43.774 49.4533 43.7567 49.4649 43.7393C49.8267 44.3567 51.032 46.9595 51.1752 50.5096C51.2719 53.9844 50.1188 56.7203 49.4436 57.9648ZM44.7734 38.8174C44.8875 35.8191 45.5898 32.7417 45.9748 31.3275C47.4451 26.5947 49.1051 23.5694 49.4165 23.0967L49.432 23.114C49.7706 23.6466 51.8349 27.3336 52.9086 31.2117C53.9901 35.1245 54.2068 38.8657 54.1623 41.0748C54.1139 43.282 53.8508 45.6166 53.5103 47.0038C53.6302 44.6056 53.3439 41.2195 52.7906 38.5782C52.2392 35.9407 50.6799 31.5494 49.432 29.4946L49.4165 29.4753C48.2616 31.4201 46.8415 35.2422 46.0986 38.555C45.348 41.8697 45.3267 45.8771 45.3267 47.083C45.1313 46.0681 44.6283 42.4543 44.7734 38.8193" fill="#0079C2"/>
</svg>
