<svg width="8" height="11" viewBox="0 0 8 11" fill="none" xmlns="http://www.w3.org/2000/svg">
<path d="M3.99995 8.7521C4.82532 8.75325 5.63431 8.55904 6.35797 8.19144L6.35719 10.4396L4.28046 9.03252L3.99996 8.84247L3.71949 9.03255L1.64395 10.4392L1.64317 8.1918C2.3665 8.55909 3.17504 8.75317 3.99995 8.7521ZM3.99995 8.7521C3.99971 8.7521 3.99947 8.7521 3.99923 8.7521L4 8.25214L4.00072 8.7521C4.00046 8.7521 4.00021 8.7521 3.99995 8.7521ZM6.46241 10.5109L6.46218 10.5107L6.46241 10.5109ZM4 0.5C4.93425 0.5 5.8266 0.857482 6.48165 1.48813C7.13605 2.11815 7.5 2.9685 7.5 3.85098C7.5 4.73346 7.13605 5.58381 6.48165 6.21383C5.8266 6.84448 4.93425 7.20196 4 7.20196C3.06575 7.20196 2.1734 6.84448 1.51835 6.21383C0.863952 5.58381 0.5 4.73346 0.5 3.85098C0.5 2.9685 0.863952 2.11815 1.51835 1.48813C2.1734 0.857482 3.06575 0.5 4 0.5Z" fill="white" stroke="#0079C2"/>
</svg>
