<svg width="14" height="11" viewBox="0 0 14 11" fill="none" xmlns="http://www.w3.org/2000/svg">
<path d="M4.32378 5.2963C5.03367 5.2963 5.71448 5.0173 6.21644 4.52067C6.71841 4.02405 7.00041 3.35048 7.00041 2.64815C7.00041 1.94582 6.71841 1.27225 6.21644 0.775625C5.71448 0.279 5.03367 0 4.32378 0C3.6139 0 2.93309 0.279 2.43112 0.775625C1.92916 1.27225 1.64716 1.94582 1.64716 2.64815C1.64716 3.35048 1.92916 4.02405 2.43112 4.52067C2.93309 5.0173 3.6139 5.2963 4.32378 5.2963ZM9.00747 9.48852C9.44397 9.66533 9.99906 9.77778 10.7057 9.77778C14 9.77778 14 7.33333 14 7.33333C14 7.00932 13.87 6.69857 13.6385 6.46938C13.407 6.24019 13.093 6.11133 12.7655 6.11111H8.95394C9.2776 6.49896 9.47197 6.99518 9.47197 7.53704V7.82711C9.47028 7.89572 9.46561 7.96423 9.45797 8.03244C9.4024 8.54155 9.24899 9.03562 9.00747 9.48852ZM12.7655 3.25926C12.7655 3.79952 12.5485 4.31764 12.1624 4.69966C11.7763 5.08168 11.2526 5.2963 10.7065 5.2963C10.1604 5.2963 9.63675 5.08168 9.25062 4.69966C8.86449 4.31764 8.64757 3.79952 8.64757 3.25926C8.64757 2.719 8.86449 2.20088 9.25062 1.81886C9.63675 1.43684 10.1604 1.22222 10.7065 1.22222C11.2526 1.22222 11.7763 1.43684 12.1624 1.81886C12.5485 2.20088 12.7655 2.719 12.7655 3.25926ZM0 7.74074C0 7.30854 0.173539 6.89403 0.482441 6.58842C0.791342 6.2828 1.2103 6.11111 1.64716 6.11111H7.00041C7.43726 6.11111 7.85622 6.2828 8.16513 6.58842C8.47403 6.89403 8.64757 7.30854 8.64757 7.74074C8.64757 7.74074 8.64757 11 4.32378 11C0 11 0 7.74074 0 7.74074ZM9.47114 7.82711L9.46867 7.87926L9.47032 7.82711H9.47114Z" fill="#0079C2"/>
</svg>
