<svg width="52" height="52" viewBox="0 0 52 52" fill="none" xmlns="http://www.w3.org/2000/svg">
<g filter="url(#filter0_d_45_289)">
<rect x="4" width="44" height="44" rx="22" fill="white"/>
<path d="M31.4844 14.6875H28.4375C28.4375 13.3431 27.3444 12.25 26 12.25C24.6556 12.25 23.5625 13.3431 23.5625 14.6875H20.5156C19.5063 14.6875 18.6875 15.5063 18.6875 16.5156V29.9219C18.6875 30.9312 19.5063 31.75 20.5156 31.75H31.4844C32.4937 31.75 33.3125 30.9312 33.3125 29.9219V16.5156C33.3125 15.5063 32.4937 14.6875 31.4844 14.6875ZM22.3438 28.3984C21.8372 28.3984 21.4297 27.9909 21.4297 27.4844C21.4297 26.9778 21.8372 26.5703 22.3438 26.5703C22.8503 26.5703 23.2578 26.9778 23.2578 27.4844C23.2578 27.9909 22.8503 28.3984 22.3438 28.3984ZM22.3438 24.7422C21.8372 24.7422 21.4297 24.3347 21.4297 23.8281C21.4297 23.3216 21.8372 22.9141 22.3438 22.9141C22.8503 22.9141 23.2578 23.3216 23.2578 23.8281C23.2578 24.3347 22.8503 24.7422 22.3438 24.7422ZM22.3438 21.0859C21.8372 21.0859 21.4297 20.6784 21.4297 20.1719C21.4297 19.6653 21.8372 19.2578 22.3438 19.2578C22.8503 19.2578 23.2578 19.6653 23.2578 20.1719C23.2578 20.6784 22.8503 21.0859 22.3438 21.0859ZM26 13.7734C26.5065 13.7734 26.9141 14.181 26.9141 14.6875C26.9141 15.194 26.5065 15.6016 26 15.6016C25.4935 15.6016 25.0859 15.194 25.0859 14.6875C25.0859 14.181 25.4935 13.7734 26 13.7734ZM30.875 27.7891C30.875 27.9566 30.7379 28.0938 30.5703 28.0938H25.0859C24.9184 28.0938 24.7812 27.9566 24.7812 27.7891V27.1797C24.7812 27.0121 24.9184 26.875 25.0859 26.875H30.5703C30.7379 26.875 30.875 27.0121 30.875 27.1797V27.7891ZM30.875 24.1328C30.875 24.3004 30.7379 24.4375 30.5703 24.4375H25.0859C24.9184 24.4375 24.7812 24.3004 24.7812 24.1328V23.5234C24.7812 23.3559 24.9184 23.2188 25.0859 23.2188H30.5703C30.7379 23.2188 30.875 23.3559 30.875 23.5234V24.1328ZM30.875 20.4766C30.875 20.6441 30.7379 20.7812 30.5703 20.7812H25.0859C24.9184 20.7812 24.7812 20.6441 24.7812 20.4766V19.8672C24.7812 19.6996 24.9184 19.5625 25.0859 19.5625H30.5703C30.7379 19.5625 30.875 19.6996 30.875 19.8672V20.4766Z" fill="#0079C2"/>
</g>
<defs>
<filter id="filter0_d_45_289" x="0" y="0" width="52" height="52" filterUnits="userSpaceOnUse" color-interpolation-filters="sRGB">
<feFlood flood-opacity="0" result="BackgroundImageFix"/>
<feColorMatrix in="SourceAlpha" type="matrix" values="0 0 0 0 0 0 0 0 0 0 0 0 0 0 0 0 0 0 127 0" result="hardAlpha"/>
<feOffset dy="4"/>
<feGaussianBlur stdDeviation="2"/>
<feComposite in2="hardAlpha" operator="out"/>
<feColorMatrix type="matrix" values="0 0 0 0 0 0 0 0 0 0 0 0 0 0 0 0 0 0 0.15 0"/>
<feBlend mode="normal" in2="BackgroundImageFix" result="effect1_dropShadow_45_289"/>
<feBlend mode="normal" in="SourceGraphic" in2="effect1_dropShadow_45_289" result="shape"/>
</filter>
</defs>
</svg>
