<svg width="52" height="52" viewBox="0 0 52 52" fill="none" xmlns="http://www.w3.org/2000/svg">
<g filter="url(#filter0_d_45_277)">
<rect x="4" width="44" height="44" rx="22" fill="white"/>
<path d="M26.5 10C21.262 10 17.0001 14.2619 17.0001 19.494C16.9657 27.1473 26.139 33.4933 26.5 33.7498C26.5 33.7498 36.0343 27.1473 35.9999 19.4999C35.9999 14.2619 31.738 10 26.5 10ZM26.5 24.2499C23.8757 24.2499 21.75 22.1243 21.75 19.4999C21.75 16.8756 23.8757 14.75 26.5 14.75C29.1243 14.75 31.25 16.8756 31.25 19.4999C31.25 22.1243 29.1243 24.2499 26.5 24.2499Z" fill="#0079C2"/>
</g>
<defs>
<filter id="filter0_d_45_277" x="0" y="0" width="52" height="52" filterUnits="userSpaceOnUse" color-interpolation-filters="sRGB">
<feFlood flood-opacity="0" result="BackgroundImageFix"/>
<feColorMatrix in="SourceAlpha" type="matrix" values="0 0 0 0 0 0 0 0 0 0 0 0 0 0 0 0 0 0 127 0" result="hardAlpha"/>
<feOffset dy="4"/>
<feGaussianBlur stdDeviation="2"/>
<feComposite in2="hardAlpha" operator="out"/>
<feColorMatrix type="matrix" values="0 0 0 0 0 0 0 0 0 0 0 0 0 0 0 0 0 0 0.15 0"/>
<feBlend mode="normal" in2="BackgroundImageFix" result="effect1_dropShadow_45_277"/>
<feBlend mode="normal" in="SourceGraphic" in2="effect1_dropShadow_45_277" result="shape"/>
</filter>
</defs>
</svg>
