<svg width="239" height="122" viewBox="0 0 239 122" fill="none" xmlns="http://www.w3.org/2000/svg">
<rect width="238.432" height="122" rx="5" fill="white"/>
<path d="M113.701 38.1219V38.8535C113.701 40.6197 112.897 41.3931 111.162 41.3931C109.427 41.3931 108.622 40.6302 108.622 38.843V35.4464C108.622 34.2236 109.385 33.2412 111.162 33.2412C112.938 33.2412 113.701 34.2341 113.701 35.4569V35.9899H111.831V35.2896C111.831 34.8716 111.444 34.6835 111.151 34.6835C110.838 34.6835 110.514 34.8611 110.514 35.2583V39.1357C110.514 39.7209 110.765 39.9613 111.151 39.9613C111.538 39.9613 111.831 39.7418 111.831 39.1566V38.1219H113.701Z" fill="#0079C2"/>
<path d="M119.669 35.4465V38.9372C119.669 40.484 118.895 41.3828 117.14 41.3828C115.384 41.3828 114.61 40.484 114.61 38.9372V35.436C114.61 34.2132 115.384 33.2413 117.15 33.2413C118.916 33.2413 119.669 34.2237 119.669 35.4465ZM116.492 35.3106V39.2612C116.492 39.7315 116.816 39.9509 117.14 39.9509C117.464 39.9509 117.788 39.721 117.788 39.2612V35.3106C117.788 34.8612 117.453 34.6731 117.14 34.6731C116.826 34.6731 116.492 34.8717 116.492 35.3106Z" fill="#0079C2"/>
<path d="M120.683 33.419H123.672C124.581 33.419 125.595 33.9729 125.595 35.3733C125.595 36.4394 124.947 36.9306 124.529 37.0246C125.26 37.3277 125.668 37.8294 125.668 38.9163C125.668 40.369 124.884 41.2156 123.295 41.2156H120.683V33.4294V33.419ZM122.491 36.4185H123.045C123.578 36.4185 123.787 36.1572 123.787 35.5406C123.787 35.0807 123.578 34.8194 123.045 34.8194H122.491V36.4289V36.4185ZM122.491 39.8047H122.909C123.619 39.8047 123.818 39.5329 123.818 38.8327C123.818 38.1847 123.609 37.8294 122.951 37.8294H122.48V39.8151L122.491 39.8047Z" fill="#0079C2"/>
<path d="M126.661 33.4187H131.019V34.8923H128.531V36.4181H130.758V37.8918H128.531V39.7207H131.019V41.1943H126.661V33.4082V33.4187Z" fill="#0079C2"/>
<path d="M134.667 41.2051H132.942V34.8926H131.469V33.4189H136.046V34.8926H134.667V41.2051Z" fill="#0079C2"/>
<path d="M111.329 45.2603L111.935 48.4165C112.06 49.054 112.134 50.141 112.217 50.8725H112.238C112.322 50.1723 112.416 48.96 112.52 48.4165L113.126 45.2603H115.739V53.0464H113.952V50.3186C113.952 49.5661 114.004 47.57 114.046 46.922H114.036L112.876 53.0464H111.569L110.409 46.922H110.399C110.43 47.4655 110.493 49.2526 110.493 50.3082V53.0464H108.706V45.2603H111.318H111.329Z" fill="#0079C2"/>
<path d="M121.801 47.2877V50.7784C121.801 52.3252 121.028 53.224 119.272 53.224C117.516 53.224 116.743 52.3252 116.743 50.7784V47.2773C116.743 46.0545 117.516 45.093 119.282 45.093C121.049 45.093 121.801 46.0754 121.801 47.2982V47.2877ZM118.624 47.1623V51.1129C118.624 51.5832 118.948 51.8027 119.272 51.8027C119.596 51.8027 119.92 51.5727 119.92 51.1129V47.1623C119.92 46.7129 119.585 46.5248 119.272 46.5248C118.958 46.5248 118.624 46.7234 118.624 47.1623Z" fill="#0079C2"/>
<path d="M128.385 45.2602V53.0463H126.514V46.7338H125.281V49.4093C125.281 52.3565 124.738 53.1299 123.473 53.1299C123.076 53.1299 122.794 53.0463 122.459 52.9V51.5831C122.543 51.6249 122.731 51.6459 122.919 51.6459C123.442 51.6459 123.473 51.3323 123.473 48.9181V45.2393H128.396L128.385 45.2602Z" fill="#0079C2"/>
<path d="M134.437 47.2877V50.7784C134.437 52.3252 133.663 53.224 131.907 53.224C130.152 53.224 129.378 52.3252 129.378 50.7784V47.2773C129.378 46.0545 130.152 45.093 131.918 45.093C133.684 45.093 134.437 46.0754 134.437 47.2982V47.2877ZM131.259 47.1623V51.1129C131.259 51.5832 131.583 51.8027 131.907 51.8027C132.231 51.8027 132.555 51.5727 132.555 51.1129V47.1623C132.555 46.7129 132.221 46.5248 131.907 46.5248C131.594 46.5248 131.259 46.7234 131.259 47.1623Z" fill="#0079C2"/>
<path d="M141.063 45.2602V51.5727H141.46V54.6453H139.641V53.0463H136.945V54.6453H135.126V51.5727H135.388C135.952 50.6843 136.119 49.8796 136.119 47.4863V45.2602H141.073H141.063ZM139.192 46.7338H137.948V48.1969C137.948 49.6915 137.823 50.7052 137.353 51.5727H139.192V46.7338Z" fill="#0079C2"/>
<path d="M144.104 48.2599H144.95C146.058 48.2599 147.229 48.7511 147.229 50.6637C147.229 52.5763 146.037 53.0361 144.95 53.0361H142.233V45.25H144.114V48.2495L144.104 48.2599ZM144.104 51.6461H144.428C144.971 51.6461 145.347 51.458 145.347 50.6951C145.347 49.9321 144.929 49.6604 144.459 49.6604H144.104V51.6461ZM149.852 53.0466H147.981V45.2605H149.852V53.0466Z" fill="#0079C2"/>
<path d="M152.371 45.2602L153.269 47.549L154.168 45.2602H155.976L154.325 49.1062L156.049 53.0463H154.074L153.259 50.6739L152.287 53.0463H150.479L152.203 49.1062L150.552 45.2602H152.36H152.371Z" fill="#0079C2"/>
<path d="M161.118 45.2605L161.829 48.6571C161.881 48.9393 161.881 49.4514 161.923 50.2666H161.944C162.007 49.4409 162.059 48.9497 162.132 48.6571L162.864 45.2605H164.808L163.136 51.2594C162.707 52.7644 162.268 53.1302 160.951 53.1302C160.606 53.1302 160.157 53.057 160.011 52.9212V51.5939C160.094 51.6252 160.293 51.6461 160.481 51.6461C160.627 51.6461 160.836 51.6357 160.92 51.3848L159.164 45.25H161.129L161.118 45.2605Z" fill="#0079C2"/>
<path d="M167.232 45.2602V47.873C167.232 48.2388 167.4 48.4164 167.755 48.4164C168.037 48.4164 168.236 48.3746 168.455 48.2597V45.2602H170.326V53.0463H168.455V49.7437C168.058 49.8482 167.776 49.89 167.034 49.89C166.354 49.89 165.351 49.3988 165.351 48.0402V45.2602H167.232Z" fill="#0079C2"/>
<path d="M171.423 45.2605H175.781V46.7341H173.294V48.2599H175.52V49.7336H173.294V51.5625H175.781V53.0361H171.423V45.25V45.2605Z" fill="#0079C2"/>
<path d="M178.467 48.2597H179.69V45.2602H181.561V53.0463H179.69V49.7437H178.467V53.0463H176.586V45.2602H178.467V48.2597Z" fill="#0079C2"/>
<path d="M184.529 48.2599H185.376C186.483 48.2599 187.654 48.7511 187.654 50.6637C187.654 52.5763 186.462 53.0361 185.376 53.0361H182.658V45.25H184.539V48.2495L184.529 48.2599ZM184.529 51.6461H184.853C185.396 51.6461 185.773 51.458 185.773 50.6951C185.773 49.9321 185.355 49.6604 184.884 49.6604H184.529V51.6461ZM190.277 53.0466H188.396V45.2605H190.277V53.0466Z" fill="#0079C2"/>
<path d="M192.796 45.2602L193.695 47.549L194.593 45.2602H196.401L194.75 49.1062L196.475 53.0463H194.499L193.684 50.6739L192.712 53.0463H190.904L192.628 49.1062L190.977 45.2602H192.785H192.796Z" fill="#0079C2"/>
<path d="M110.503 57.091V59.0244C110.503 59.8814 110.263 61.1251 110.221 61.9821H110.232L111.82 57.091H113.607V64.8771H111.82V63.0691C111.82 62.233 112.081 60.9684 112.165 60.1427L110.545 64.8771H108.727V57.091H110.514H110.503Z" fill="#0079C2"/>
<path d="M122.522 61.8042V62.5254C122.522 64.2916 121.717 65.065 119.982 65.065C118.247 65.065 117.442 64.3021 117.442 62.5149V59.1183C117.442 57.8955 118.205 56.9131 119.982 56.9131C121.759 56.9131 122.522 57.9164 122.522 59.1287V59.6617H120.64V58.9615C120.64 58.5539 120.254 58.3554 119.961 58.3554C119.648 58.3554 119.324 58.533 119.324 58.9302V62.818C119.324 63.4033 119.574 63.6437 119.961 63.6437C120.348 63.6437 120.64 63.4242 120.64 62.8389V61.8042H122.522Z" fill="#0079C2"/>
<path d="M128.5 57.091V64.8771H126.629V58.5646H125.407V64.8771H123.525V57.091H128.5Z" fill="#0079C2"/>
<path d="M129.587 57.0911H133.945V58.5647H131.458V60.0905H133.684V61.5642H131.458V63.3931H133.945V64.8667H129.587V57.0806V57.0911Z" fill="#0079C2"/>
<path d="M136.631 63.4035H137.854V57.091H139.725V63.4035H140.122V66.4866H138.293V64.8771H134.75V57.091H136.631V63.4035Z" fill="#0079C2"/>
<path d="M142.734 57.091V59.0244C142.734 59.8814 142.494 61.1251 142.452 61.9821H142.463L144.041 57.091H145.828V64.8771H144.041V63.0691C144.041 62.233 144.302 60.9684 144.386 60.1427L142.766 64.8771H140.947V57.091H142.734Z" fill="#0079C2"/>
<path d="M150.374 57.091L152.099 64.8771H150.259L149.977 63.3199H148.545L148.305 64.8771H146.434L148.127 57.091H150.374ZM149.726 61.9194L149.225 58.4914H149.214L148.723 61.9194H149.716H149.726Z" fill="#0079C2"/>
<path d="M158.276 57.0911V64.8772H156.405V58.5647H155.172V61.2402C155.172 64.1874 154.628 64.9608 153.364 64.9608C152.956 64.9608 152.684 64.8772 152.35 64.7309V63.414C152.433 63.4558 152.622 63.4767 152.81 63.4767C153.332 63.4767 153.364 63.1632 153.364 60.7594V57.0806H158.286L158.276 57.0911Z" fill="#0079C2"/>
<path d="M161.15 57.091V59.0244C161.15 59.8814 160.909 61.1251 160.867 61.9821H160.878L162.456 57.091H164.243V64.8771H162.456V63.0691C162.456 62.233 162.717 60.9684 162.801 60.1427H162.79L161.171 64.8771H159.352V57.091H161.139H161.15Z" fill="#0079C2"/>
<path d="M170.326 61.8043V62.5254C170.326 64.2917 169.521 65.0651 167.786 65.0651C166.051 65.0651 165.247 64.3021 165.247 62.515V59.1183C165.247 57.8956 166.01 56.9131 167.786 56.9131C169.563 56.9131 170.326 57.9165 170.326 59.1288V59.6618H168.445V58.9616C168.445 58.554 168.058 58.3554 167.765 58.3554C167.452 58.3554 167.128 58.5331 167.128 58.9302V62.8181C167.128 63.4033 167.379 63.6437 167.765 63.6437C168.152 63.6437 168.445 63.4242 168.445 62.839V61.8043H170.326Z" fill="#0079C2"/>
<path d="M174.151 64.877H172.426V58.5644H170.953V57.0908H175.53V58.5644H174.151V64.877Z" fill="#0079C2"/>
<path d="M181.237 59.1287V62.6194C181.237 64.1662 180.463 65.0754 178.707 65.0754C176.952 65.0754 176.178 64.1766 176.178 62.6194V59.1183C176.178 57.8955 176.952 56.9235 178.718 56.9235C180.484 56.9235 181.237 57.9059 181.237 59.1287ZM178.059 59.0033V62.9538C178.059 63.4242 178.383 63.6436 178.707 63.6436C179.031 63.6436 179.355 63.4137 179.355 62.9538V59.0033C179.355 58.5643 179.021 58.3658 178.707 58.3658C178.394 58.3658 178.059 58.5643 178.059 59.0033Z" fill="#0079C2"/>
<path d="M182.25 57.091H185.24C186.149 57.091 187.163 57.6449 187.163 59.0454C187.163 60.1114 186.515 60.6026 186.097 60.6966C186.818 60.9997 187.236 61.5014 187.236 62.5883C187.236 64.041 186.452 64.8876 184.863 64.8876H182.25V57.1014V57.091ZM184.059 60.1009H184.612C185.145 60.1009 185.344 59.8396 185.344 59.223C185.344 58.7632 185.135 58.5019 184.612 58.5019H184.059V60.1114V60.1009ZM184.059 63.4871H184.477C185.177 63.4871 185.386 63.2154 185.386 62.5151C185.386 61.8672 185.177 61.5118 184.518 61.5118H184.048V63.4976L184.059 63.4871Z" fill="#0079C2"/>
<path d="M113.68 70.9595V74.4502C113.68 75.997 112.907 76.8958 111.151 76.8958C109.395 76.8958 108.622 75.997 108.622 74.4502V70.9491C108.622 69.7263 109.395 68.7543 111.162 68.7543C112.928 68.7543 113.68 69.7472 113.68 70.9595ZM110.503 70.8341V74.7847C110.503 75.255 110.827 75.4744 111.151 75.4744C111.475 75.4744 111.799 75.2445 111.799 74.7847V70.8341C111.799 70.3847 111.465 70.1966 111.151 70.1966C110.838 70.1966 110.503 70.3952 110.503 70.8341Z" fill="#0079C2"/>
<path d="M119.658 70.9595V74.4502C119.658 75.997 118.885 76.8958 117.129 76.8958C115.373 76.8958 114.6 75.997 114.6 74.4502V70.9491C114.6 69.7263 115.373 68.7543 117.14 68.7543C118.906 68.7543 119.658 69.7472 119.658 70.9595ZM116.481 70.8341V74.7847C116.481 75.255 116.805 75.4744 117.129 75.4744C117.453 75.4744 117.777 75.2445 117.777 74.7847V70.8341C117.777 70.3847 117.443 70.1966 117.129 70.1966C116.816 70.1966 116.481 70.3952 116.481 70.8341Z" fill="#0079C2"/>
<path d="M125.637 70.9595V74.4502C125.637 75.997 124.863 76.8958 123.107 76.8958C121.352 76.8958 120.578 75.997 120.578 74.4502V70.9491C120.578 69.7263 121.352 68.7543 123.118 68.7543C124.884 68.7543 125.637 69.7472 125.637 70.9595ZM122.459 70.8341V74.7847C122.459 75.255 122.783 75.4744 123.107 75.4744C123.431 75.4744 123.755 75.2445 123.755 74.7847V70.8341C123.755 70.3847 123.421 70.1966 123.107 70.1966C122.794 70.1966 122.459 70.3952 122.459 70.8341Z" fill="#0079C2"/>
<path d="M131.228 72.8619L130.162 73.4263L131.228 74.0952V75.4852L129.273 74.1788V72.7052L131.228 71.4824V72.8724V72.8619ZM133.705 72.8619L132.639 73.4263L133.705 74.0952V75.4852L131.75 74.1788V72.7052L133.705 71.4824V72.8724V72.8619Z" fill="#0079C2"/>
<path d="M139.098 68.9321V70.4057H136.61V76.7183H134.729V68.9321H139.087H139.098Z" fill="#0079C2"/>
<path d="M142.787 68.9321L144.511 76.7183H142.662L142.379 75.161H140.948L140.707 76.7183H138.836L140.53 68.9321H142.777H142.787ZM142.139 73.7606L141.637 70.3326H141.627L141.136 73.7606H142.139Z" fill="#0079C2"/>
<path d="M144.898 71.3044C144.898 69.6845 145.901 68.7543 147.249 68.7543C148.733 68.7543 149.57 69.7158 149.57 70.8132C149.57 71.7747 149.256 72.2659 148.462 72.6108H148.483C149.277 72.9035 149.841 73.2274 149.841 74.6279C149.841 76.1642 148.838 76.8958 147.354 76.8958C146.194 76.8958 144.887 76.3837 144.887 74.3771H146.612C146.612 75.2445 146.863 75.4953 147.27 75.4953C147.761 75.4953 147.95 75.2445 147.95 74.3771C147.95 73.6559 147.72 73.3529 147.124 73.3529H146.852V71.9524H147.291C147.563 71.9524 147.856 71.6493 147.856 71.0954C147.856 70.5101 147.667 70.1443 147.228 70.1443C146.748 70.1443 146.601 70.4892 146.601 71.294H144.877L144.898 71.3044Z" fill="#0079C2"/>
<path d="M155.819 68.9321V76.7183H153.949V70.4057H152.726V76.7183H150.855V68.9321H155.83H155.819Z" fill="#0079C2"/>
<path d="M158.777 76.7183H156.896V68.9321H159.613C160.7 68.9321 161.892 69.3188 161.892 71.3045C161.892 73.2903 160.721 73.677 159.613 73.677H158.767V76.7078L158.777 76.7183ZM158.777 72.287H159.112C159.582 72.287 160.021 72.057 160.021 71.2941C160.021 70.5312 159.624 70.343 159.08 70.343H158.777V72.2974V72.287Z" fill="#0079C2"/>
<path d="M167.87 70.9595V74.4502C167.87 75.997 167.097 76.8958 165.341 76.8958C163.585 76.8958 162.812 75.997 162.812 74.4502V70.9491C162.812 69.7263 163.585 68.7543 165.351 68.7543C167.117 68.7543 167.87 69.7472 167.87 70.9595ZM164.693 70.8341V74.7847C164.693 75.255 165.017 75.4744 165.341 75.4744C165.665 75.4744 165.989 75.2445 165.989 74.7847V70.8341C165.989 70.3847 165.654 70.1966 165.341 70.1966C165.027 70.1966 164.693 70.3952 164.693 70.8341Z" fill="#0079C2"/>
<path d="M171.486 68.9321L172.092 72.0884C172.217 72.7259 172.291 73.8128 172.374 74.5444H172.395C172.479 73.8442 172.573 72.6318 172.677 72.0884L173.283 68.9321H175.896V76.7183H174.109V73.9905C174.109 73.238 174.161 71.2523 174.203 70.5939L173.043 76.7183H171.737L170.577 70.5939H170.566C170.597 71.1373 170.66 72.9245 170.66 73.98V76.7287H168.873V68.9426H171.486V68.9321Z" fill="#0079C2"/>
<path d="M185.449 68.9321V75.2446H185.846V78.3173H184.028V76.7287H181.331V78.3173H179.513V75.2446H179.774C180.338 74.3563 180.506 73.5516 180.506 71.1582V68.9321H185.459H185.449ZM183.578 70.4057H182.335V71.8689C182.335 73.3634 182.209 74.3772 181.739 75.2446H183.578V70.4057Z" fill="#0079C2"/>
<path d="M191.573 70.9595V74.4502C191.573 75.997 190.8 76.8958 189.044 76.8958C187.288 76.8958 186.515 75.997 186.515 74.4502V70.9491C186.515 69.7263 187.288 68.7543 189.054 68.7543C190.821 68.7543 191.573 69.7472 191.573 70.9595ZM188.396 70.8341V74.7847C188.396 75.255 188.72 75.4744 189.044 75.4744C189.368 75.4744 189.692 75.2445 189.692 74.7847V70.8341C189.692 70.3847 189.357 70.1966 189.044 70.1966C188.73 70.1966 188.396 70.3952 188.396 70.8341Z" fill="#0079C2"/>
<path d="M196.819 68.9321V70.3326H194.457V71.9421H195.304C196.412 71.9421 197.582 72.4333 197.582 74.3458C197.582 76.2584 196.391 76.7183 195.304 76.7183H192.576V68.9321H196.819ZM194.457 75.3178H194.781C195.325 75.3178 195.701 75.1297 195.701 74.3667C195.701 73.6038 195.283 73.3321 194.813 73.3321H194.457V75.3178Z" fill="#0079C2"/>
<path d="M200.457 71.9421H201.303C202.411 71.9421 203.582 72.4333 203.582 74.3458C203.582 76.2584 202.39 76.7183 201.303 76.7183H198.586V68.9321H200.457V71.9316V71.9421ZM200.457 75.3283H200.781C201.324 75.3283 201.7 75.1401 201.7 74.3772C201.7 73.6143 201.282 73.3425 200.812 73.3425H200.457V75.3283ZM206.205 76.7287H204.324V68.9426H206.205V76.7287Z" fill="#0079C2"/>
<path d="M209.078 68.9321V71.5449C209.078 71.9107 209.246 72.0884 209.601 72.0884C209.883 72.0884 210.082 72.0466 210.301 71.9316V68.9321H212.172V76.7183H210.301V73.4157C209.904 73.5202 209.622 73.5725 208.88 73.5725C208.201 73.5725 207.197 73.0813 207.197 71.7226V68.9426H209.078V68.9321Z" fill="#0079C2"/>
<path d="M216.708 68.9321L218.432 76.7183H216.593L216.311 75.161H214.879L214.639 76.7183H212.778L214.471 68.9321H216.718H216.708ZM216.06 73.7606L215.558 70.3326L215.067 73.7606H216.06Z" fill="#0079C2"/>
<path d="M113.68 82.8009V86.2916C113.68 87.8383 112.907 88.7371 111.151 88.7371C109.395 88.7371 108.622 87.8383 108.622 86.2916V82.7904C108.622 81.5676 109.395 80.5957 111.162 80.5957C112.928 80.5957 113.68 81.5781 113.68 82.8009ZM110.503 82.6754V86.626C110.503 87.0963 110.827 87.3158 111.151 87.3158C111.475 87.3158 111.799 87.0858 111.799 86.626V82.6754C111.799 82.226 111.465 82.0379 111.151 82.0379C110.838 82.0379 110.503 82.2365 110.503 82.6754Z" fill="#0079C2"/>
<path d="M116.565 88.5593H114.684V80.7732H117.401C118.488 80.7732 119.68 81.1599 119.68 83.1456C119.68 85.1314 118.509 85.518 117.401 85.518H116.555V88.5593H116.565ZM116.565 84.128H116.899C117.37 84.128 117.809 83.8981 117.809 83.1352C117.809 82.3722 117.412 82.1841 116.868 82.1841H116.565V84.1385V84.128Z" fill="#0079C2"/>
<path d="M120.693 80.7731H125.052V82.2468H122.564V83.7726H124.79V85.2463H122.564V87.0752H125.052V88.5488H120.693V80.7627V80.7731Z" fill="#0079C2"/>
<path d="M127.737 83.7727H128.96V80.7732H130.831V88.5593H128.96V85.2568H127.737V88.5593H125.856V80.7732H127.737V83.7727Z" fill="#0079C2"/>
<path d="M136.161 80.7731V82.1736H133.799V83.7726H134.646C135.753 83.7726 136.924 84.2638 136.924 86.1764C136.924 88.089 135.732 88.5488 134.646 88.5488H131.928V80.7627H136.171L136.161 80.7731ZM133.799 87.1588H134.123C134.666 87.1588 135.043 86.9707 135.043 86.2078C135.043 85.4448 134.625 85.1731 134.154 85.1731H133.799V87.1588Z" fill="#0079C2"/>
<path d="M139.464 80.7731L140.164 84.1698C140.216 84.452 140.216 84.9641 140.258 85.7793H140.279C140.341 84.9536 140.394 84.4729 140.467 84.1698L141.188 80.7731H143.132L141.46 86.7721C141.031 88.2771 140.592 88.6429 139.275 88.6429C138.931 88.6429 138.481 88.5697 138.335 88.4339V87.1066C138.418 87.1379 138.617 87.1588 138.805 87.1588C138.951 87.1588 139.16 87.1484 139.244 86.8975L137.488 80.7627H139.453L139.464 80.7731Z" fill="#0079C2"/>
<path d="M145.661 88.5593H143.79V80.7732H146.508C147.595 80.7732 148.786 81.1599 148.786 83.1456C148.786 85.1314 147.615 85.518 146.508 85.518H145.661V88.5593ZM145.661 84.128H145.995C146.466 84.128 146.905 83.8981 146.905 83.1352C146.905 82.3722 146.508 82.1841 145.964 82.1841H145.661V84.1385V84.128Z" fill="#0079C2"/>
<path d="M154.147 80.7732V82.2468H151.66V88.5593H149.779V80.7732H154.137H154.147Z" fill="#0079C2"/>
<path d="M156.865 84.4625V85.9362L154.91 87.253V85.863L155.976 85.1941L154.91 84.6298V83.2397L156.865 84.4625ZM159.321 84.4625V85.9362L157.366 87.253V85.863L158.432 85.1941L157.366 84.6298V83.2397L159.321 84.4625Z" fill="#0079C2"/>
<path d="M24.4522 20H97.5896C100.046 20 102.042 21.9962 102.042 24.4522V97.5478C102.042 100.004 100.046 102 97.5896 102H24.4522C21.9962 102 20 100.004 20 97.5478V24.4522C20 21.9962 21.9962 20 24.4522 20Z" fill="white"/>
<path d="M97.5896 20H24.4522C22.0066 20 20 22.0066 20 24.4522V97.5478C20 99.9934 22.0066 102 24.4522 102H97.5896C100.046 102 102.042 99.9934 102.042 97.5478V24.4522C102.042 22.0066 100.035 20 97.5896 20ZM88.5807 86.4277C88.5807 87.6087 87.6087 88.5807 86.4277 88.5807H35.6141C34.4331 88.5807 33.4611 87.6087 33.4611 86.4277V35.5723C33.4611 34.3913 34.4331 33.4193 35.6141 33.4193H86.4382C87.6192 33.4193 88.5911 34.3913 88.5911 35.5723V86.4382L88.5807 86.4277Z" fill="#0079C2"/>
<path d="M48.9814 48.751H49.7548C49.9116 48.751 50.0684 48.772 50.2147 48.8033C50.9567 47.6014 52.284 46.8071 53.789 46.8071C55.294 46.8071 56.6213 47.6119 57.3633 48.8033C57.5201 48.772 57.6768 48.751 57.8336 48.751H58.5965C57.5305 47.9881 56.8303 46.7444 56.8303 45.3335C56.8303 44.7691 56.9453 44.2257 57.1438 43.724C57.0916 43.724 57.0393 43.7031 56.9871 43.7031H50.5909C50.5387 43.7031 50.4864 43.7136 50.4342 43.724C50.6432 44.2152 50.7581 44.7587 50.7581 45.3335C50.7581 46.7444 50.0579 47.9881 48.9919 48.751H48.9814Z" fill="#0079C2"/>
<path d="M73.667 66.9467V80.1256C74.5031 79.8434 75.1093 79.0596 75.1093 78.1294V69.9357C75.0674 69.8626 75.0256 69.7999 74.9838 69.7267L73.667 66.9571V66.9467Z" fill="#0079C2"/>
<path d="M85.8946 62.296L80.345 50.6534C80.345 50.6534 80.1987 50.3712 80.1255 50.2667C79.9478 50.0263 79.7179 49.8382 79.4462 49.7128C79.2162 49.6083 78.9654 49.5455 78.6937 49.5351H72.308C72.308 49.5351 72.2349 49.5351 72.2035 49.5455C72.3707 50.0054 72.4752 50.4966 72.4752 51.0087C72.4752 52.4196 71.775 53.6633 70.709 54.4262H71.4719C71.8377 54.4262 72.2035 54.5099 72.5484 54.6771C72.6634 54.7293 72.7783 54.8025 72.8933 54.8757C73.0291 54.9697 73.165 55.0847 73.2904 55.1996C73.374 55.2832 73.4576 55.3773 73.5308 55.4714C73.5831 55.5341 73.6353 55.6281 73.6876 55.7117C73.7398 55.8058 73.7921 55.8999 73.8234 55.9521V55.9835L79.373 67.6261C79.9478 68.8384 79.4357 70.2807 78.2234 70.8555C77.8994 71.0123 77.5441 71.0959 77.1887 71.0959C76.7289 71.0959 76.2795 70.96 75.9032 70.7196V78.1191C75.9032 79.2896 76.8438 80.2302 78.0144 80.2302C79.1849 80.2302 80.1255 79.2896 80.1255 78.1191V57.7915L82.9369 63.6964C83.219 64.2817 83.8043 64.6266 84.4209 64.6266C84.6613 64.6266 84.9017 64.5743 85.1212 64.4698C85.9364 64.0831 86.2812 63.1007 85.8946 62.2855V62.296Z" fill="#0079C2"/>
<path d="M59.1918 71.0853V80.1256C60.0279 79.8434 60.6341 79.0596 60.6341 78.1294V70.7196C60.2579 70.9599 59.8085 71.0958 59.3486 71.0958C59.2964 71.0958 59.2441 71.0749 59.1814 71.0749L59.1918 71.0853Z" fill="#0079C2"/>
<path d="M61.418 70.7196V78.1294C61.418 79.0596 62.0241 79.8434 62.8602 80.1256V71.0853C62.808 71.0853 62.7557 71.1063 62.693 71.1063C62.2332 71.1063 61.7942 70.9704 61.418 70.73V70.7196Z" fill="#0079C2"/>
<path d="M56.976 54.4263C57.2896 54.4263 57.5926 54.489 57.8748 54.6039C57.9271 54.6248 57.9898 54.6457 58.0525 54.6771C58.1152 54.7084 58.1779 54.7398 58.2302 54.7816C58.2824 54.8129 58.3451 54.8443 58.3869 54.8861C58.4496 54.9279 58.5019 54.9593 58.5542 55.0115C58.6378 55.0742 58.7109 55.1474 58.7736 55.2205C58.8572 55.3041 58.9409 55.3982 59.014 55.4923C59.0663 55.555 59.1185 55.649 59.1708 55.7326C59.2335 55.8267 59.2753 55.9208 59.3066 55.973V56.0044L60.9997 59.5473L62.6928 56.0044V55.9835C62.7242 55.9312 62.7764 55.8372 62.8391 55.7326C62.8914 55.649 62.9437 55.555 62.9959 55.4923C63.0691 55.3982 63.1422 55.3041 63.2363 55.2205C63.3094 55.1474 63.3826 55.0847 63.4558 55.0115C63.508 54.9697 63.5707 54.9279 63.623 54.8861C63.6752 54.8443 63.7275 54.8129 63.7797 54.7816C63.8425 54.7502 63.9052 54.7084 63.9679 54.6771C64.0201 54.6457 64.0828 54.6248 64.1351 54.6039C64.4277 54.489 64.7308 54.4263 65.0443 54.4263H65.8073C64.7413 53.6633 64.041 52.4196 64.041 51.0087C64.041 50.4966 64.1351 50.0054 64.3128 49.5455C64.2814 49.5455 64.2396 49.5455 64.2082 49.5351H57.8121C57.8121 49.5351 57.739 49.5455 57.7076 49.5455C57.8748 50.0054 57.9689 50.4966 57.9689 51.0087C57.9689 52.4196 57.2687 53.6633 56.2026 54.4263H56.9656H56.976Z" fill="#0079C2"/>
<path d="M47.058 69.7162C47.0267 69.7894 46.9744 69.8626 46.9326 69.9357V78.1294C46.9326 79.0596 47.5388 79.8434 48.3749 80.1256V66.9467L47.2462 69.3191L47.0476 69.7267L47.058 69.7162Z" fill="#0079C2"/>
<path d="M43.8389 70.8659C43.6926 70.7927 43.5672 70.7196 43.4732 70.6464C42.5117 69.9671 42.1772 68.692 42.6893 67.6365L48.2284 55.9939V55.973C48.2598 55.9207 48.3121 55.8266 48.3643 55.7221C48.4166 55.6385 48.4688 55.5445 48.5211 55.4817C48.5942 55.3877 48.6778 55.2936 48.7615 55.21C48.8869 55.0846 49.0123 54.9801 49.1586 54.886C49.2736 54.8129 49.3781 54.7397 49.5035 54.6875C49.8484 54.5307 50.2037 54.4471 50.58 54.4366H51.3429C50.2769 53.6737 49.5766 52.43 49.5766 51.0191C49.5766 50.507 49.6707 50.0158 49.8379 49.5559C49.8066 49.5559 49.7648 49.5559 49.7334 49.5455H43.3373C43.0656 49.5455 42.8147 49.6082 42.5953 49.7231C42.3235 49.8486 42.0936 50.0367 41.9159 50.2771C41.8323 50.3816 41.686 50.6637 41.686 50.6637L36.1469 62.3064C35.802 63.038 36.0424 63.8949 36.6799 64.3443C36.753 64.3966 36.8367 64.4489 36.9203 64.4907C37.1502 64.5952 37.3906 64.6474 37.6205 64.6474C38.2371 64.6474 38.8224 64.3025 39.1046 63.7173L41.9159 57.8124V78.1399C41.9159 79.3104 42.8565 80.2511 44.0271 80.2511C45.1976 80.2511 46.1382 79.3104 46.1382 78.1399V70.7405C45.762 70.9809 45.3126 71.1167 44.8527 71.1167C44.4869 71.1167 44.142 71.0331 43.818 70.8868L43.8389 70.8659Z" fill="#0079C2"/>
<path d="M57.9483 70.6466C56.9867 69.9672 56.6523 68.6922 57.1644 67.6366L60.5924 60.4462L58.7948 56.6838L58.6276 56.3284C58.6276 56.3284 58.4813 56.0463 58.3977 55.9417C58.3454 55.8686 58.2722 55.8059 58.2095 55.7432C58.1155 55.6491 58.011 55.5655 57.896 55.4923C57.8437 55.4505 57.781 55.4087 57.7183 55.3774C57.6661 55.346 57.6034 55.3356 57.5407 55.3147C57.363 55.252 57.1749 55.1997 56.9658 55.1997H50.5697C50.298 55.1997 50.0472 55.2624 49.8277 55.3774C49.5559 55.5028 49.326 55.6909 49.1484 55.9313C49.0752 56.0358 48.9289 56.318 48.9289 56.318L48.7617 56.6733L48.3645 57.499L43.3793 67.9711C43.0344 68.7026 43.2748 69.5596 43.9123 70.009C43.9855 70.0613 44.0691 70.1136 44.1527 70.1554C44.3826 70.2599 44.623 70.3121 44.8529 70.3121C45.3441 70.3121 45.8249 70.0822 46.1384 69.6851C46.2116 69.591 46.2847 69.4865 46.337 69.3715L49.1484 63.4666V83.7942C49.1484 84.9647 50.0994 85.9053 51.2595 85.9053C52.4196 85.9053 53.3706 84.9542 53.3706 83.7942V72.3292H54.1545V83.7942C54.1545 84.9647 55.0951 85.9053 56.2656 85.9053C57.4361 85.9053 58.3767 84.9542 58.3767 83.7942V70.8869C58.3767 70.8869 58.314 70.8765 58.2931 70.8556C58.1468 70.7824 58.0319 70.7093 57.9273 70.6361L57.9483 70.6466Z" fill="#0079C2"/>
<path d="M77.1787 70.3121C77.4087 70.3121 77.649 70.2599 77.879 70.1554C78.6942 69.7687 79.039 68.7863 78.6523 67.9711L73.6671 57.499L73.27 56.6733L73.1028 56.318C73.1028 56.318 72.9565 56.0358 72.8833 55.9313C72.7056 55.6909 72.4757 55.5028 72.204 55.3774C71.974 55.2729 71.7232 55.2102 71.4619 55.1997H65.0658C64.8672 55.1997 64.6791 55.2415 64.5014 55.3147C64.4492 55.3356 64.376 55.346 64.3238 55.3774C64.2611 55.4087 64.2088 55.4505 64.1461 55.4923C64.0311 55.5655 63.9266 55.6491 63.8326 55.7432C63.7699 55.8059 63.6967 55.8686 63.6444 55.9417C63.5608 56.0463 63.425 56.3284 63.425 56.3284L63.2578 56.6838L57.8754 67.9815C57.5305 68.7131 57.7709 69.5701 58.4084 70.0195C58.4816 70.0717 58.5652 70.124 58.6488 70.1658C58.701 70.1867 58.7533 70.1972 58.7951 70.2181C58.9205 70.2599 59.0564 70.2912 59.1922 70.3121C59.2445 70.3121 59.2968 70.333 59.3595 70.333C59.8089 70.333 60.2478 70.1449 60.5613 69.8105C60.5927 69.7791 60.6136 69.7269 60.645 69.6955C60.7077 69.6119 60.7704 69.5387 60.8122 69.4447C60.8122 69.4238 60.8331 69.4133 60.8435 69.4029L61.0421 68.9953L63.2682 64.3131L63.2891 64.2713L64.8986 67.6471C65.4734 68.8594 64.9613 70.3017 63.749 70.8765C63.7176 70.8869 63.6863 70.8974 63.6549 70.9078V83.8151C63.6549 84.9856 64.5955 85.9262 65.766 85.9262C66.9366 85.9262 67.8772 84.9751 67.8772 83.8151V72.3501H68.661V83.8151C68.661 84.9856 69.6121 85.9262 70.7722 85.9262C71.9322 85.9262 72.8833 84.9751 72.8833 83.8151V63.4875L75.6947 69.3924C75.7469 69.5074 75.8201 69.6119 75.8932 69.706C76.2068 70.1031 76.6771 70.333 77.1787 70.333V70.3121Z" fill="#0079C2"/>
<path d="M64.1769 67.9708L63.6439 66.8525L63.2467 66.0269L62.8496 66.9361L61.7208 69.3085L61.5223 69.7161C61.5223 69.7161 61.4909 69.7684 61.4805 69.7893C61.794 70.1237 62.233 70.3118 62.6824 70.3118C62.7346 70.3118 62.7869 70.3014 62.8496 70.2909C62.9854 70.2805 63.1109 70.2491 63.2467 70.1969C63.299 70.176 63.3512 70.1655 63.393 70.1446C63.4766 70.1028 63.5603 70.0506 63.6334 69.9983C64.2709 69.5489 64.5113 68.6919 64.1664 67.9603L64.1769 67.9708Z" fill="#0079C2"/>
<path d="M53.7781 42.9194C55.6698 42.9194 57.1957 41.3831 57.1957 39.5018C57.1957 37.6206 55.6698 36.0843 53.7781 36.0843C51.8865 36.0843 50.3606 37.6102 50.3606 39.5018C50.3606 41.3935 51.8865 42.9194 53.7781 42.9194Z" fill="#0079C2"/>
<path d="M68.2632 42.9191C70.1549 42.9191 71.6808 41.3827 71.6808 39.5015C71.6808 37.6203 70.1549 36.084 68.2632 36.084C66.3716 36.084 64.8457 37.6099 64.8457 39.5015C64.8457 41.3932 66.382 42.9191 68.2632 42.9191Z" fill="#0079C2"/>
<path d="M60.4773 48.6988C60.5505 48.7092 60.6132 48.7197 60.6864 48.7302C60.77 48.7302 60.8536 48.7301 60.9267 48.7406C60.9581 48.7406 60.9895 48.7406 61.0208 48.7406C61.0522 48.7406 61.0835 48.7406 61.1149 48.7406C61.1985 48.7406 61.2821 48.7406 61.3552 48.7302C61.4284 48.7302 61.4911 48.7092 61.5643 48.6988C63.1947 48.4375 64.4383 47.0266 64.4383 45.3231C64.4383 44.8423 64.3338 44.3825 64.1562 43.9749C64.1039 43.8494 64.0412 43.7345 63.9785 43.6195C63.9158 43.5046 63.8426 43.4 63.759 43.2955C63.132 42.4594 62.1391 41.916 61.0208 41.916C59.9025 41.916 58.8992 42.4594 58.2826 43.2955C58.199 43.4 58.1258 43.515 58.0631 43.63C58.0004 43.7449 57.9377 43.8599 57.8855 43.9749C57.7078 44.3929 57.6033 44.8423 57.6033 45.3231C57.6033 47.0266 58.847 48.4375 60.4773 48.6988Z" fill="#0079C2"/>
<path d="M46.2013 48.7305C46.3162 48.7305 46.4207 48.7514 46.5357 48.7514C46.5671 48.7514 46.5984 48.7514 46.6298 48.7514C46.7865 48.7514 46.9328 48.7305 47.0896 48.7096C48.72 48.4483 49.9637 47.0374 49.9637 45.3338C49.9637 44.8531 49.8592 44.3932 49.6815 43.9856C49.6293 43.8602 49.5665 43.7453 49.4934 43.6303C49.4307 43.5153 49.3575 43.4108 49.2739 43.3063C48.6468 42.4702 47.654 41.9268 46.5357 41.9268C44.644 41.9268 43.1182 43.4526 43.1182 45.3443C43.1182 47.121 44.4768 48.5842 46.2013 48.7514V48.7305Z" fill="#0079C2"/>
<path d="M53.1616 54.3636C53.2765 54.3845 53.4019 54.3949 53.5169 54.4054C53.5483 54.4054 53.5796 54.4054 53.6214 54.4054C53.6737 54.4054 53.7364 54.4054 53.7886 54.4054C53.8409 54.4054 53.9036 54.4054 53.9559 54.4054C53.9872 54.4054 54.0186 54.4054 54.0604 54.4054C54.1858 54.4054 54.3007 54.3845 54.4157 54.3636C56.0043 54.0709 57.2062 52.6809 57.2062 50.9983C57.2062 50.5594 57.1226 50.1518 56.9762 49.7651C56.9344 49.6396 56.8717 49.5142 56.809 49.3993C56.7463 49.2843 56.6836 49.1693 56.6105 49.0648C55.9938 48.166 54.9592 47.5703 53.7886 47.5703C52.6181 47.5703 51.5834 48.1556 50.9668 49.0648C50.8937 49.1693 50.8205 49.2843 50.7578 49.4097C50.6951 49.5247 50.6428 49.6396 50.601 49.7651C50.4547 50.1413 50.3711 50.5594 50.3711 50.9983C50.3711 52.6705 51.573 54.0605 53.172 54.3636H53.1616Z" fill="#0079C2"/>
<path d="M67.6365 54.3636C67.7514 54.3845 67.8664 54.3949 67.9918 54.4054C68.0336 54.4054 68.065 54.4054 68.0963 54.4054C68.1486 54.4054 68.2113 54.4054 68.2635 54.4054C68.3158 54.4054 68.3785 54.4054 68.4307 54.4054C68.4621 54.4054 68.4935 54.4054 68.5353 54.4054C68.6607 54.4054 68.7756 54.3845 68.8906 54.3636C70.4792 54.0709 71.6915 52.6809 71.6915 50.9983C71.6915 50.5594 71.6079 50.1518 71.4616 49.7651C71.4093 49.6396 71.3571 49.5142 71.2944 49.3993C71.2317 49.2843 71.169 49.1693 71.0958 49.0648C70.4792 48.166 69.4445 47.5703 68.274 47.5703C67.1035 47.5703 66.0688 48.1556 65.4522 49.0648C65.379 49.1693 65.3058 49.2843 65.2431 49.4097C65.1804 49.5351 65.1282 49.6396 65.0864 49.7755C64.9401 50.1518 64.8564 50.5698 64.8564 51.0088C64.8564 52.6809 66.0583 54.0709 67.6574 54.374L67.6365 54.3636Z" fill="#0079C2"/>
<path d="M73.0711 48.7512H72.2978C72.141 48.7512 71.9842 48.7721 71.8379 48.8034C71.0959 47.6016 69.779 46.8073 68.2636 46.8073C66.7482 46.8073 65.4313 47.612 64.6893 48.8034C64.5325 48.7721 64.3758 48.7512 64.219 48.7512H63.4561C64.5221 47.9883 65.2223 46.7446 65.2223 45.3337C65.2223 44.7693 65.1073 44.2258 64.8983 43.7242C64.9506 43.7242 65.0028 43.7033 65.0551 43.7033H71.4512C71.5035 43.7033 71.5557 43.7137 71.608 43.7242C71.399 44.2154 71.284 44.7588 71.284 45.3337C71.284 46.7446 71.9842 47.9883 73.0502 48.7512H73.0711Z" fill="#0079C2"/>
<path d="M75.8408 48.7305C75.7259 48.7305 75.6214 48.7514 75.5064 48.7514C75.4751 48.7514 75.4437 48.7514 75.4123 48.7514C75.2556 48.7514 75.1093 48.7305 74.9629 48.7096C73.3326 48.4483 72.0889 47.0374 72.0889 45.3339C72.0889 44.8531 72.1934 44.3933 72.371 43.9857C72.4233 43.8603 72.486 43.7453 72.5487 43.6303C72.6114 43.5154 72.6846 43.4109 72.7682 43.3064C73.3953 42.4703 74.3881 41.9268 75.5064 41.9268C77.3981 41.9268 78.9239 43.4527 78.9239 45.3443C78.9239 47.121 77.5757 48.5842 75.8408 48.7514V48.7305Z" fill="#0079C2"/>
</svg>
