<svg width="10" height="12" viewBox="0 0 10 12" fill="none" xmlns="http://www.w3.org/2000/svg">
<path d="M8.375 1.5H6.5C6.5 0.672656 5.82734 0 5 0C4.17266 0 3.5 0.672656 3.5 1.5H1.625C1.00391 1.5 0.5 2.00391 0.5 2.625V10.875C0.5 11.4961 1.00391 12 1.625 12H8.375C8.99609 12 9.5 11.4961 9.5 10.875V2.625C9.5 2.00391 8.99609 1.5 8.375 1.5ZM2.75 9.9375C2.43828 9.9375 2.1875 9.68672 2.1875 9.375C2.1875 9.06328 2.43828 8.8125 2.75 8.8125C3.06172 8.8125 3.3125 9.06328 3.3125 9.375C3.3125 9.68672 3.06172 9.9375 2.75 9.9375ZM2.75 7.6875C2.43828 7.6875 2.1875 7.43672 2.1875 7.125C2.1875 6.81328 2.43828 6.5625 2.75 6.5625C3.06172 6.5625 3.3125 6.81328 3.3125 7.125C3.3125 7.43672 3.06172 7.6875 2.75 7.6875ZM2.75 5.4375C2.43828 5.4375 2.1875 5.18672 2.1875 4.875C2.1875 4.56328 2.43828 4.3125 2.75 4.3125C3.06172 4.3125 3.3125 4.56328 3.3125 4.875C3.3125 5.18672 3.06172 5.4375 2.75 5.4375ZM5 0.9375C5.31172 0.9375 5.5625 1.18828 5.5625 1.5C5.5625 1.81172 5.31172 2.0625 5 2.0625C4.68828 2.0625 4.4375 1.81172 4.4375 1.5C4.4375 1.18828 4.68828 0.9375 5 0.9375ZM8 9.5625C8 9.66563 7.91563 9.75 7.8125 9.75H4.4375C4.33438 9.75 4.25 9.66563 4.25 9.5625V9.1875C4.25 9.08438 4.33438 9 4.4375 9H7.8125C7.91563 9 8 9.08438 8 9.1875V9.5625ZM8 7.3125C8 7.41563 7.91563 7.5 7.8125 7.5H4.4375C4.33438 7.5 4.25 7.41563 4.25 7.3125V6.9375C4.25 6.83438 4.33438 6.75 4.4375 6.75H7.8125C7.91563 6.75 8 6.83438 8 6.9375V7.3125ZM8 5.0625C8 5.16563 7.91563 5.25 7.8125 5.25H4.4375C4.33438 5.25 4.25 5.16563 4.25 5.0625V4.6875C4.25 4.58438 4.33438 4.5 4.4375 4.5H7.8125C7.91563 4.5 8 4.58438 8 4.6875V5.0625Z" fill="#0079C2"/>
</svg>
