<svg width="167" height="27" viewBox="0 0 167 27" fill="none" xmlns="http://www.w3.org/2000/svg">
<path d="M166.958 10.0801C166.855 9.76421 166.582 9.53399 166.253 9.4863L157.694 8.24251L153.866 0.486311C153.719 0.18851 153.416 0 153.084 0C152.752 0 152.448 0.18851 152.301 0.486311L148.473 8.24251L139.914 9.4863C139.585 9.53399 139.312 9.76421 139.21 10.0801C139.107 10.3959 139.193 10.7426 139.431 10.9744L145.624 17.0118L144.162 25.5366C144.106 25.8639 144.24 26.1947 144.509 26.3899C144.778 26.585 145.134 26.6109 145.428 26.4564L153.084 22.4314L160.739 26.4564C160.867 26.5234 161.006 26.5566 161.145 26.5566C161.326 26.5566 161.506 26.5004 161.658 26.39C161.927 26.1948 162.061 25.864 162.005 25.5367L160.543 17.0118L166.737 10.9745C166.975 10.7426 167.06 10.3959 166.958 10.0801Z" fill="black" fill-opacity="0.1"/>
<path d="M132.166 10.0801C132.063 9.76421 131.79 9.53399 131.461 9.4863L122.902 8.24251L119.074 0.486311C118.927 0.18851 118.624 0 118.292 0C117.96 0 117.656 0.18851 117.509 0.486311L113.681 8.24251L105.122 9.4863C104.793 9.53399 104.52 9.76421 104.418 10.0801C104.315 10.3959 104.401 10.7426 104.639 10.9744L110.832 17.0118L109.37 25.5366C109.314 25.8639 109.448 26.1947 109.717 26.3899C109.986 26.585 110.342 26.6109 110.636 26.4564L118.292 22.4314L125.947 26.4564C126.075 26.5234 126.215 26.5566 126.353 26.5566C126.534 26.5566 126.714 26.5004 126.866 26.39C127.135 26.1948 127.269 25.864 127.213 25.5367L125.751 17.0118L131.945 10.9745C132.183 10.7426 132.268 10.3959 132.166 10.0801Z" fill="#0079C2"/>
<path d="M97.3736 10.0801C97.2709 9.76421 96.998 9.53399 96.6693 9.4863L88.1099 8.24251L84.282 0.486311C84.1351 0.18851 83.8318 0 83.4997 0C83.1675 0 82.8643 0.18851 82.7173 0.486311L78.8894 8.24251L70.33 9.4863C70.0014 9.53399 69.7284 9.76421 69.6258 10.0801C69.5231 10.3959 69.6087 10.7426 69.8465 10.9744L76.0401 17.0118L74.578 25.5366C74.5218 25.8639 74.6564 26.1947 74.9251 26.3899C75.1937 26.585 75.5498 26.6109 75.8439 26.4564L83.4997 22.4314L91.1554 26.4564C91.2831 26.5234 91.4225 26.5566 91.5613 26.5566C91.7422 26.5566 91.9223 26.5004 92.0742 26.39C92.3429 26.1948 92.4775 25.864 92.4214 25.5367L90.9592 17.0118L97.1528 10.9745C97.3906 10.7426 97.4762 10.3959 97.3736 10.0801Z" fill="#0079C2"/>
<path d="M62.5826 10.0801C62.4799 9.76421 62.2069 9.53399 61.8783 9.4863L53.3189 8.24251L49.491 0.486311C49.344 0.18851 49.0408 0 48.7087 0C48.3765 0 48.0733 0.18851 47.9263 0.486311L44.0984 8.24251L35.539 9.4863C35.2104 9.53399 34.9373 9.76421 34.8347 10.0801C34.7321 10.3959 34.8177 10.7426 35.0555 10.9744L41.2491 17.0118L39.787 25.5366C39.7308 25.8639 39.8654 26.1947 40.1341 26.3899C40.4027 26.585 40.7588 26.6109 41.0529 26.4564L48.7087 22.4314L56.3644 26.4564C56.4921 26.5234 56.6315 26.5566 56.7703 26.5566C56.9512 26.5566 57.1312 26.5004 57.2832 26.39C57.5519 26.1948 57.6865 25.864 57.6304 25.5367L56.1682 17.0118L62.3618 10.9745C62.5996 10.7426 62.6852 10.3959 62.5826 10.0801Z" fill="#0079C2"/>
<path d="M27.7906 10.0801C27.6879 9.76421 27.415 9.53399 27.0863 9.4863L18.5269 8.24251L14.699 0.486311C14.552 0.18851 14.2488 0 13.9167 0C13.5845 0 13.2813 0.18851 13.1343 0.486311L9.30639 8.24251L0.746996 9.4863C0.418368 9.53399 0.145345 9.76421 0.042743 10.0801C-0.0599168 10.3959 0.0257009 10.7426 0.263535 10.9744L6.4571 17.0118L4.99496 25.5366C4.93883 25.8639 5.07343 26.1947 5.34209 26.3899C5.61069 26.585 5.96683 26.6109 6.26091 26.4564L13.9167 22.4314L21.5724 26.4564C21.7001 26.5234 21.8395 26.5566 21.9783 26.5566C22.1592 26.5566 22.3393 26.5004 22.4912 26.39C22.7599 26.1948 22.8945 25.864 22.8384 25.5367L21.3762 17.0118L27.5698 10.9745C27.8076 10.7426 27.8932 10.3959 27.7906 10.0801Z" fill="#0079C2"/>
</svg>
