<svg width="144" height="59" viewBox="0 0 144 59" fill="none" xmlns="http://www.w3.org/2000/svg">
<path d="M67.6849 13.0388V13.5652C67.6849 14.836 67.1059 15.3925 65.8576 15.3925C64.6093 15.3925 64.0303 14.8436 64.0303 13.5577V11.1138C64.0303 10.234 64.5792 9.5271 65.8576 9.5271C67.1359 9.5271 67.6849 10.2415 67.6849 11.1213V11.5048H66.3388V11.001C66.3388 10.7002 66.0606 10.5648 65.8501 10.5648C65.6245 10.5648 65.3913 10.6927 65.3913 10.9784V13.7682C65.3913 14.1893 65.5718 14.3623 65.8501 14.3623C66.1283 14.3623 66.3388 14.2044 66.3388 13.7833V13.0388H67.6849Z" fill="#0079C2"/>
<path d="M71.9782 11.114V13.6256C71.9782 14.7385 71.4217 15.3852 70.1584 15.3852C68.8951 15.3852 68.3386 14.7385 68.3386 13.6256V11.1065C68.3386 10.2267 68.8951 9.52734 70.1659 9.52734C71.4368 9.52734 71.9782 10.2342 71.9782 11.114ZM69.6922 11.0163V13.8587C69.6922 14.1971 69.9253 14.355 70.1584 14.355C70.3915 14.355 70.6246 14.1896 70.6246 13.8587V11.0163C70.6246 10.6929 70.384 10.5575 70.1584 10.5575C69.9328 10.5575 69.6922 10.7004 69.6922 11.0163Z" fill="#0079C2"/>
<path d="M72.7078 9.65503H74.8584C75.5126 9.65503 76.242 10.0536 76.242 11.0612C76.242 11.8282 75.7758 12.1817 75.475 12.2493C76.0014 12.4674 76.2947 12.8284 76.2947 13.6104C76.2947 14.6557 75.7307 15.2648 74.5877 15.2648H72.7078V9.66255V9.65503ZM74.0087 11.8132H74.4072C74.7907 11.8132 74.9411 11.6252 74.9411 11.1815C74.9411 10.8507 74.7907 10.6627 74.4072 10.6627H74.0087V11.8207V11.8132ZM74.0087 14.2496H74.3095C74.8208 14.2496 74.9637 14.0541 74.9637 13.5503C74.9637 13.084 74.8133 12.8284 74.3395 12.8284H74.0012V14.2571L74.0087 14.2496Z" fill="#0079C2"/>
<path d="M77.0093 9.65498H80.145V10.7153H78.3553V11.8131H79.957V12.8734H78.3553V14.1894H80.145V15.2497H77.0093V9.64746V9.65498Z" fill="#0079C2"/>
<path d="M82.7695 15.2572H81.5288V10.7153H80.4685V9.65503H83.7622V10.7153H82.7695V15.2572Z" fill="#0079C2"/>
<path d="M65.9775 18.175L66.4137 20.446C66.5039 20.9047 66.5566 21.6868 66.6167 22.2132H66.6318C66.6919 21.7093 66.7596 20.837 66.8348 20.446L67.2709 18.175H69.1509V23.7773H67.865V21.8146C67.865 21.2732 67.9026 19.8369 67.9327 19.3707H67.9252L67.0905 23.7773H66.1505L65.3158 19.3707H65.3083C65.3308 19.7617 65.376 21.0476 65.376 21.8071V23.7773H64.0901V18.175H65.97H65.9775Z" fill="#0079C2"/>
<path d="M73.5126 19.6338V22.1454C73.5126 23.2584 72.9561 23.9051 71.6928 23.9051C70.4295 23.9051 69.873 23.2584 69.873 22.1454V19.6263C69.873 18.7465 70.4295 18.0547 71.7003 18.0547C72.9712 18.0547 73.5126 18.7615 73.5126 19.6414V19.6338ZM71.2266 19.5436V22.3861C71.2266 22.7245 71.4597 22.8824 71.6928 22.8824C71.9259 22.8824 72.1591 22.7169 72.1591 22.3861V19.5436C72.1591 19.2202 71.9184 19.0849 71.6928 19.0849C71.4672 19.0849 71.2266 19.2278 71.2266 19.5436Z" fill="#0079C2"/>
<path d="M78.2498 18.175V23.7772H76.9037V19.2352H76.0164V21.1603C76.0164 23.2809 75.6254 23.8373 74.7155 23.8373C74.4298 23.8373 74.2267 23.7772 73.9861 23.6719V22.7244C74.0462 22.7545 74.1816 22.7695 74.317 22.7695C74.6929 22.7695 74.7155 22.5439 74.7155 20.8069V18.1599H78.2573L78.2498 18.175Z" fill="#0079C2"/>
<path d="M82.6042 19.6338V22.1454C82.6042 23.2584 82.0477 23.9051 80.7844 23.9051C79.5211 23.9051 78.9646 23.2584 78.9646 22.1454V19.6263C78.9646 18.7465 79.5211 18.0547 80.7919 18.0547C82.0627 18.0547 82.6042 18.7615 82.6042 19.6414V19.6338ZM80.3182 19.5436V22.3861C80.3182 22.7245 80.5513 22.8824 80.7844 22.8824C81.0175 22.8824 81.2506 22.7169 81.2506 22.3861V19.5436C81.2506 19.2202 81.01 19.0849 80.7844 19.0849C80.5588 19.0849 80.3182 19.2278 80.3182 19.5436Z" fill="#0079C2"/>
<path d="M87.3716 18.175V22.717H87.6573V24.9278H86.3489V23.7773H84.4088V24.9278H83.1003V22.717H83.2883C83.6944 22.0778 83.8147 21.4988 83.8147 19.7768V18.175H87.3791H87.3716ZM86.0255 19.2353H85.1307V20.2881C85.1307 21.3634 85.0404 22.0928 84.702 22.717H86.0255V19.2353Z" fill="#0079C2"/>
<path d="M89.5597 20.3334H90.1688C90.9659 20.3334 91.8081 20.6868 91.8081 22.063C91.8081 23.4391 90.9508 23.7699 90.1688 23.7699H88.2136V18.1677H89.5672V20.3259L89.5597 20.3334ZM89.5597 22.7698H89.7928C90.1838 22.7698 90.4545 22.6345 90.4545 22.0855C90.4545 21.5366 90.1537 21.3411 89.8153 21.3411H89.5597V22.7698ZM93.6955 23.7775H92.3495V18.1752H93.6955V23.7775Z" fill="#0079C2"/>
<path d="M95.5078 18.175L96.1545 19.8219L96.8012 18.175H98.1021L96.914 20.9423L98.1548 23.7773H96.7335L96.147 22.0703L95.4476 23.7773H94.1467L95.3875 20.9423L94.1994 18.175H95.5003H95.5078Z" fill="#0079C2"/>
<path d="M101.802 18.1752L102.313 20.6192C102.351 20.8222 102.351 21.1907 102.381 21.7772H102.396C102.441 21.1831 102.479 20.8297 102.531 20.6192L103.058 18.1752H104.456L103.253 22.4916C102.945 23.5744 102.629 23.8376 101.682 23.8376C101.433 23.8376 101.11 23.785 101.005 23.6872V22.7322C101.065 22.7548 101.208 22.7698 101.343 22.7698C101.449 22.7698 101.599 22.7623 101.659 22.5818L100.396 18.1677H101.809L101.802 18.1752Z" fill="#0079C2"/>
<path d="M106.201 18.175V20.055C106.201 20.3182 106.321 20.446 106.577 20.446C106.78 20.446 106.923 20.4159 107.081 20.3332V18.175H108.427V23.7773H107.081V21.401C106.795 21.4762 106.592 21.5063 106.058 21.5063C105.569 21.5063 104.847 21.1529 104.847 20.1753V18.175H106.201Z" fill="#0079C2"/>
<path d="M109.216 18.1752H112.352V19.2355H110.562V20.3334H112.164V21.3937H110.562V22.7097H112.352V23.7699H109.216V18.1677V18.1752Z" fill="#0079C2"/>
<path d="M114.284 20.3332H115.164V18.175H116.51V23.7773H115.164V21.401H114.284V23.7773H112.931V18.175H114.284V20.3332Z" fill="#0079C2"/>
<path d="M118.646 20.3334H119.255C120.052 20.3334 120.894 20.6868 120.894 22.063C120.894 23.4391 120.037 23.7699 119.255 23.7699H117.3V18.1677H118.654V20.3259L118.646 20.3334ZM118.646 22.7698H118.879C119.27 22.7698 119.541 22.6345 119.541 22.0855C119.541 21.5366 119.24 21.3411 118.902 21.3411H118.646V22.7698ZM122.782 23.7775H121.428V18.1752H122.782V23.7775Z" fill="#0079C2"/>
<path d="M124.594 18.175L125.241 19.8219L125.887 18.175H127.188L126 20.9423L127.241 23.7773H125.82L125.233 22.0703L124.534 23.7773H123.233L124.474 20.9423L123.286 18.175H124.586H124.594Z" fill="#0079C2"/>
<path d="M65.3838 26.6875V28.0787C65.3838 28.6953 65.2109 29.5901 65.1808 30.2067H65.1883L66.3313 26.6875H67.6172V32.2897H66.3313V30.9888C66.3313 30.3872 66.5193 29.4773 66.5795 28.8833L65.4139 32.2897H64.1055V26.6875H65.3913H65.3838Z" fill="#0079C2"/>
<path d="M74.0311 30.0788V30.5977C74.0311 31.8685 73.452 32.425 72.2038 32.425C70.9555 32.425 70.3765 31.876 70.3765 30.5902V28.1462C70.3765 27.2664 70.9254 26.5596 72.2038 26.5596C73.4821 26.5596 74.0311 27.2815 74.0311 28.1538V28.5373H72.6775V28.0334C72.6775 27.7402 72.3993 27.5973 72.1887 27.5973C71.9631 27.5973 71.73 27.7251 71.73 28.0109V30.8082C71.73 31.2293 71.9105 31.4023 72.1887 31.4023C72.467 31.4023 72.6775 31.2444 72.6775 30.8233V30.0788H74.0311Z" fill="#0079C2"/>
<path d="M78.3326 26.6875V32.2897H76.9865V27.7478H76.1067V32.2897H74.7532V26.6875H78.3326Z" fill="#0079C2"/>
<path d="M79.1147 26.6875H82.2505V27.7477H80.4608V28.8456H82.0625V29.9059H80.4608V31.2219H82.2505V32.2822H79.1147V26.6799V26.6875Z" fill="#0079C2"/>
<path d="M84.1829 31.2294H85.0627V26.6875H86.4087V31.2294H86.6945V33.4478H85.3785V32.2897H82.8293V26.6875H84.1829V31.2294Z" fill="#0079C2"/>
<path d="M88.5744 26.6875V28.0787C88.5744 28.6953 88.4015 29.5901 88.3714 30.2067H88.3789L89.5144 26.6875H90.8003V32.2897H89.5144V30.9888C89.5144 30.3872 89.7024 29.4773 89.7626 28.8833L88.597 32.2897H87.2886V26.6875H88.5744Z" fill="#0079C2"/>
<path d="M94.0713 26.6875L95.312 32.2897H93.9886L93.7855 31.1693H92.7553L92.5824 32.2897H91.2363L92.4545 26.6875H94.0713ZM93.605 30.1616L93.2441 27.6951H93.2366L92.8832 30.1616H93.5975H93.605Z" fill="#0079C2"/>
<path d="M99.7566 26.6875V32.2897H98.4106V27.7477H97.5233V29.6728C97.5233 31.7934 97.1322 32.3498 96.2223 32.3498C95.9291 32.3498 95.7336 32.2897 95.4929 32.1844V31.2369C95.5531 31.267 95.6884 31.282 95.8238 31.282C96.1998 31.282 96.2223 31.0564 96.2223 29.3269V26.6799H99.7641L99.7566 26.6875Z" fill="#0079C2"/>
<path d="M101.824 26.6875V28.0787C101.824 28.6953 101.651 29.5901 101.621 30.2067H101.629L102.764 26.6875H104.05V32.2897H102.764V30.9888C102.764 30.3872 102.952 29.4773 103.013 28.8833H103.005L101.839 32.2897H100.531V26.6875H101.817H101.824Z" fill="#0079C2"/>
<path d="M108.427 30.0788V30.5977C108.427 31.8685 107.848 32.425 106.6 32.425C105.351 32.425 104.772 31.876 104.772 30.5902V28.1462C104.772 27.2664 105.321 26.5596 106.6 26.5596C107.878 26.5596 108.427 27.2815 108.427 28.1538V28.5373H107.073V28.0334C107.073 27.7402 106.795 27.5973 106.584 27.5973C106.359 27.5973 106.126 27.7251 106.126 28.0109V30.8082C106.126 31.2293 106.306 31.4023 106.584 31.4023C106.863 31.4023 107.073 31.2444 107.073 30.8233V30.0788H108.427Z" fill="#0079C2"/>
<path d="M111.179 32.2895H109.938V27.7475H108.878V26.6873H112.171V27.7475H111.179V32.2895Z" fill="#0079C2"/>
<path d="M116.277 28.1536V30.6652C116.277 31.7781 115.721 32.4323 114.457 32.4323C113.194 32.4323 112.638 31.7856 112.638 30.6652V28.146C112.638 27.2662 113.194 26.5669 114.465 26.5669C115.736 26.5669 116.277 27.2738 116.277 28.1536ZM113.991 28.0633V30.9058C113.991 31.2442 114.224 31.4021 114.457 31.4021C114.691 31.4021 114.924 31.2367 114.924 30.9058V28.0633C114.924 27.7475 114.683 27.6046 114.457 27.6046C114.232 27.6046 113.991 27.7475 113.991 28.0633Z" fill="#0079C2"/>
<path d="M117.007 26.6875H119.157C119.812 26.6875 120.541 27.086 120.541 28.0937C120.541 28.8607 120.075 29.2141 119.774 29.2818C120.293 29.4999 120.594 29.8608 120.594 30.6429C120.594 31.6881 120.03 32.2972 118.887 32.2972H117.007V26.695V26.6875ZM118.308 28.8532H118.706C119.09 28.8532 119.233 28.6652 119.233 28.2215C119.233 27.8907 119.082 27.7027 118.706 27.7027H118.308V28.8607V28.8532ZM118.308 31.2896H118.609C119.112 31.2896 119.263 31.0941 119.263 30.5903C119.263 30.124 119.112 29.8684 118.639 29.8684H118.3V31.2971L118.308 31.2896Z" fill="#0079C2"/>
<path d="M67.6698 36.6663V39.1779C67.6698 40.2908 67.1134 40.9375 65.8501 40.9375C64.5867 40.9375 64.0303 40.2908 64.0303 39.1779V36.6587C64.0303 35.7789 64.5867 35.0796 65.8576 35.0796C67.1284 35.0796 67.6698 35.794 67.6698 36.6663ZM65.3838 36.576V39.4185C65.3838 39.7569 65.6169 39.9148 65.8501 39.9148C66.0832 39.9148 66.3163 39.7494 66.3163 39.4185V36.576C66.3163 36.2527 66.0756 36.1173 65.8501 36.1173C65.6245 36.1173 65.3838 36.2602 65.3838 36.576Z" fill="#0079C2"/>
<path d="M71.9709 36.6663V39.1779C71.9709 40.2908 71.4144 40.9375 70.1511 40.9375C68.8878 40.9375 68.3313 40.2908 68.3313 39.1779V36.6587C68.3313 35.7789 68.8878 35.0796 70.1586 35.0796C71.4294 35.0796 71.9709 35.794 71.9709 36.6663ZM69.6849 36.576V39.4185C69.6849 39.7569 69.918 39.9148 70.1511 39.9148C70.3842 39.9148 70.6173 39.7494 70.6173 39.4185V36.576C70.6173 36.2527 70.3767 36.1173 70.1511 36.1173C69.9255 36.1173 69.6849 36.2602 69.6849 36.576Z" fill="#0079C2"/>
<path d="M76.2724 36.6663V39.1779C76.2724 40.2908 75.7159 40.9375 74.4526 40.9375C73.1893 40.9375 72.6328 40.2908 72.6328 39.1779V36.6587C72.6328 35.7789 73.1893 35.0796 74.4601 35.0796C75.731 35.0796 76.2724 35.794 76.2724 36.6663ZM73.9864 36.576V39.4185C73.9864 39.7569 74.2195 39.9148 74.4526 39.9148C74.6857 39.9148 74.9188 39.7494 74.9188 39.4185V36.576C74.9188 36.2527 74.6782 36.1173 74.4526 36.1173C74.227 36.1173 73.9864 36.2602 73.9864 36.576Z" fill="#0079C2"/>
<path d="M80.2954 38.0348L79.5283 38.4409L80.2954 38.9222V39.9223L78.8892 38.9823V37.922L80.2954 37.0422V38.0424V38.0348ZM82.0775 38.0348L81.3105 38.4409L82.0775 38.9222V39.9223L80.6713 38.9823V37.922L82.0775 37.0422V38.0424V38.0348Z" fill="#0079C2"/>
<path d="M85.9577 35.2073V36.2676H84.168V40.8095H82.8145V35.2073H85.9502H85.9577Z" fill="#0079C2"/>
<path d="M88.6122 35.2073L89.853 40.8095H88.522L88.319 39.6891H87.2888L87.1158 40.8095H85.7698L86.988 35.2073H88.6047H88.6122ZM88.146 38.6814L87.7851 36.2149H87.7775L87.4241 38.6814H88.146Z" fill="#0079C2"/>
<path d="M90.131 36.9144C90.131 35.7488 90.8529 35.0796 91.823 35.0796C92.8908 35.0796 93.4923 35.7714 93.4923 36.561C93.4923 37.2528 93.2668 37.6062 92.6952 37.8544H92.7103C93.2818 38.0649 93.6879 38.298 93.6879 39.3057C93.6879 40.4111 92.966 40.9375 91.8982 40.9375C91.0635 40.9375 90.1235 40.569 90.1235 39.1252H91.3642C91.3642 39.7494 91.5447 39.9298 91.838 39.9298C92.1914 39.9298 92.3268 39.7494 92.3268 39.1252C92.3268 38.6064 92.1613 38.3883 91.7327 38.3883H91.5372V37.3806H91.853C92.0485 37.3806 92.2591 37.1626 92.2591 36.764C92.2591 36.3429 92.1237 36.0797 91.8079 36.0797C91.462 36.0797 91.3567 36.3279 91.3567 36.9069H90.116L90.131 36.9144Z" fill="#0079C2"/>
<path d="M97.9891 35.2073V40.8095H96.6431V36.2676H95.7633V40.8095H94.4172V35.2073H97.9966H97.9891Z" fill="#0079C2"/>
<path d="M100.117 40.8095H98.7637V35.2073H100.719C101.501 35.2073 102.358 35.4855 102.358 36.9143C102.358 38.343 101.516 38.6212 100.719 38.6212H100.11V40.802L100.117 40.8095ZM100.117 37.6211H100.358C100.696 37.6211 101.012 37.4557 101.012 36.9067C101.012 36.3578 100.726 36.2224 100.335 36.2224H100.117V37.6286V37.6211Z" fill="#0079C2"/>
<path d="M106.66 36.6663V39.1779C106.66 40.2908 106.103 40.9375 104.84 40.9375C103.576 40.9375 103.02 40.2908 103.02 39.1779V36.6587C103.02 35.7789 103.576 35.0796 104.847 35.0796C106.118 35.0796 106.66 35.794 106.66 36.6663ZM104.374 36.576V39.4185C104.374 39.7569 104.607 39.9148 104.84 39.9148C105.073 39.9148 105.306 39.7494 105.306 39.4185V36.576C105.306 36.2527 105.065 36.1173 104.84 36.1173C104.614 36.1173 104.374 36.2602 104.374 36.576Z" fill="#0079C2"/>
<path d="M109.261 35.2073L109.697 37.4782C109.788 37.9369 109.84 38.719 109.9 39.2454H109.916C109.976 38.7416 110.043 37.8693 110.119 37.4782L110.555 35.2073H112.435V40.8095H111.149V38.8468C111.149 38.3054 111.186 36.8767 111.216 36.4029L110.382 40.8095H109.442L108.607 36.4029H108.6C108.622 36.7939 108.667 38.0798 108.667 38.8393V40.817H107.381V35.2148H109.261V35.2073Z" fill="#0079C2"/>
<path d="M119.308 35.2073V39.7492H119.594V41.96H118.285V40.817H116.345V41.96H115.037V39.7492H115.225C115.631 39.11 115.751 38.531 115.751 36.809V35.2073H119.316H119.308ZM117.962 36.2676H117.067V37.3203C117.067 38.3957 116.977 39.1251 116.639 39.7492H117.962V36.2676Z" fill="#0079C2"/>
<path d="M123.714 36.6663V39.1779C123.714 40.2908 123.158 40.9375 121.894 40.9375C120.631 40.9375 120.075 40.2908 120.075 39.1779V36.6587C120.075 35.7789 120.631 35.0796 121.902 35.0796C123.173 35.0796 123.714 35.794 123.714 36.6663ZM121.428 36.576V39.4185C121.428 39.7569 121.661 39.9148 121.894 39.9148C122.128 39.9148 122.361 39.7494 122.361 39.4185V36.576C122.361 36.2527 122.12 36.1173 121.894 36.1173C121.669 36.1173 121.428 36.2602 121.428 36.576Z" fill="#0079C2"/>
<path d="M127.489 35.2073V36.2149H125.79V37.373H126.399C127.196 37.373 128.038 37.7264 128.038 39.1025C128.038 40.4786 127.181 40.8095 126.399 40.8095H124.436V35.2073H127.489ZM125.79 39.8018H126.023C126.414 39.8018 126.685 39.6665 126.685 39.1175C126.685 38.5686 126.384 38.3731 126.046 38.3731H125.79V39.8018Z" fill="#0079C2"/>
<path d="M130.106 37.373H130.715C131.512 37.373 132.355 37.7264 132.355 39.1025C132.355 40.4786 131.497 40.8095 130.715 40.8095H128.76V35.2073H130.106V37.3654V37.373ZM130.106 39.8094H130.339C130.73 39.8094 131.001 39.674 131.001 39.1251C131.001 38.5761 130.7 38.3806 130.362 38.3806H130.106V39.8094ZM134.242 40.817H132.889V35.2148H134.242V40.817Z" fill="#0079C2"/>
<path d="M136.31 35.2073V37.0872C136.31 37.3504 136.43 37.4782 136.686 37.4782C136.889 37.4782 137.032 37.4482 137.19 37.3654V35.2073H138.536V40.8095H137.19V38.4333C136.904 38.5084 136.701 38.546 136.167 38.546C135.678 38.546 134.956 38.1926 134.956 37.2151V35.2148H136.31V35.2073Z" fill="#0079C2"/>
<path d="M141.799 35.2073L143.04 40.8095H141.717L141.514 39.6891H140.483L140.31 40.8095H138.972L140.19 35.2073H141.807H141.799ZM141.333 38.6814L140.972 36.2149L140.619 38.6814H141.333Z" fill="#0079C2"/>
<path d="M67.6698 45.186V47.6976C67.6698 48.8106 67.1134 49.4573 65.8501 49.4573C64.5867 49.4573 64.0303 48.8106 64.0303 47.6976V45.1785C64.0303 44.2987 64.5867 43.5994 65.8576 43.5994C67.1284 43.5994 67.6698 44.3062 67.6698 45.186ZM65.3838 45.0958V47.9383C65.3838 48.2767 65.6169 48.4346 65.8501 48.4346C66.0832 48.4346 66.3163 48.2691 66.3163 47.9383V45.0958C66.3163 44.7724 66.0756 44.6371 65.8501 44.6371C65.6245 44.6371 65.3838 44.78 65.3838 45.0958Z" fill="#0079C2"/>
<path d="M69.7454 49.3293H68.3918V43.7271H70.347C71.129 43.7271 71.9863 44.0053 71.9863 45.434C71.9863 46.8628 71.1441 47.141 70.347 47.141H69.7379V49.3293H69.7454ZM69.7454 46.1409H69.986C70.3244 46.1409 70.6403 45.9755 70.6403 45.4265C70.6403 44.8776 70.3545 44.7422 69.9635 44.7422H69.7454V46.1484V46.1409Z" fill="#0079C2"/>
<path d="M72.7153 43.727H75.8511V44.7873H74.0614V45.8852H75.6631V46.9455H74.0614V48.2614H75.8511V49.3217H72.7153V43.7195V43.727Z" fill="#0079C2"/>
<path d="M77.7835 45.8852H78.6633V43.7271H80.0093V49.3293H78.6633V46.953H77.7835V49.3293H76.4299V43.7271H77.7835V45.8852Z" fill="#0079C2"/>
<path d="M83.8446 43.727V44.7346H82.1451V45.8852H82.7542C83.5513 45.8852 84.3935 46.2386 84.3935 47.6147C84.3935 48.9908 83.5363 49.3217 82.7542 49.3217H80.7991V43.7195H83.8521L83.8446 43.727ZM82.1451 48.3216H82.3782C82.7693 48.3216 83.04 48.1862 83.04 47.6373C83.04 47.0883 82.7392 46.8928 82.4008 46.8928H82.1451V48.3216Z" fill="#0079C2"/>
<path d="M86.2208 43.727L86.7246 46.1709C86.7622 46.374 86.7622 46.7424 86.7923 47.329H86.8073C86.8525 46.7349 86.8901 46.389 86.9427 46.1709L87.4616 43.727H88.8602L87.6571 48.0433C87.3488 49.1262 87.0329 49.3894 86.0854 49.3894C85.8373 49.3894 85.5139 49.3367 85.4087 49.239V48.284C85.4688 48.3065 85.6117 48.3216 85.7471 48.3216C85.8523 48.3216 86.0027 48.314 86.0629 48.1336L84.7996 43.7195H86.2133L86.2208 43.727Z" fill="#0079C2"/>
<path d="M90.6803 49.3293H89.3342V43.7271H91.2894C92.0714 43.7271 92.9287 44.0053 92.9287 45.434C92.9287 46.8628 92.0865 47.141 91.2894 47.141H90.6803V49.3293ZM90.6803 46.1409H90.9209C91.2593 46.1409 91.5751 45.9755 91.5751 45.4265C91.5751 44.8776 91.2894 44.7422 90.8983 44.7422H90.6803V46.1484V46.1409Z" fill="#0079C2"/>
<path d="M96.7863 43.7271V44.7873H94.9966V49.3293H93.6431V43.7271H96.7788H96.7863Z" fill="#0079C2"/>
<path d="M98.7412 46.3815V47.4418L97.335 48.3893V47.3892L98.102 46.9079L97.335 46.5018V45.5017L98.7412 46.3815ZM100.508 46.3815V47.4418L99.1021 48.3893V47.3892L99.8691 46.9079L99.1021 46.5018V45.5017L100.508 46.3815Z" fill="#0079C2"/>
<path d="M3.20366 0H55.8269C57.594 0 59.0303 1.43627 59.0303 3.20342V55.7966C59.0303 57.5637 57.594 59 55.8269 59H3.20366C1.43652 59 0.000244141 57.5637 0.000244141 55.7966V3.20342C0.000244141 1.43627 1.43652 0 3.20366 0Z" fill="white"/>
<path d="M55.8269 0H3.20366C1.44404 0 0.000244141 1.44379 0.000244141 3.20342V55.7966C0.000244141 57.5562 1.44404 59 3.20366 59H55.8269C57.594 59 59.0303 57.5562 59.0303 55.7966V3.20342C59.0303 1.44379 57.5865 0 55.8269 0ZM49.3449 47.7956C49.3449 48.6453 48.6455 49.3446 47.7958 49.3446H11.2348C10.385 49.3446 9.68569 48.6453 9.68569 47.7956V11.2044C9.68569 10.3547 10.385 9.65536 11.2348 9.65536H47.8033C48.6531 9.65536 49.3524 10.3547 49.3524 11.2044V47.8031L49.3449 47.7956Z" fill="#0079C2"/>
<path d="M20.8525 20.6867H21.409C21.5218 20.6867 21.6346 20.7018 21.7399 20.7243C22.2738 19.8596 23.2288 19.2881 24.3116 19.2881C25.3945 19.2881 26.3495 19.8671 26.8834 20.7243C26.9962 20.7018 27.109 20.6867 27.2218 20.6867H27.7707C27.0037 20.1378 26.4999 19.2429 26.4999 18.2278C26.4999 17.8217 26.5826 17.4307 26.7255 17.0697C26.6879 17.0697 26.6503 17.0547 26.6127 17.0547H22.0106C21.973 17.0547 21.9354 17.0622 21.8978 17.0697C22.0482 17.4232 22.1309 17.8142 22.1309 18.2278C22.1309 19.2429 21.6271 20.1378 20.8601 20.6867H20.8525Z" fill="#0079C2"/>
<path d="M38.6143 33.7788V43.2612C39.2158 43.0582 39.652 42.4942 39.652 41.8249V35.9295C39.6219 35.8768 39.5918 35.8317 39.5617 35.7791L38.6143 33.7863V33.7788Z" fill="#0079C2"/>
<path d="M47.4123 30.4326L43.4193 22.0556C43.4193 22.0556 43.314 21.8526 43.2614 21.7774C43.1335 21.6044 42.9681 21.469 42.7726 21.3788C42.6072 21.3036 42.4267 21.2585 42.2312 21.251H37.6366C37.6366 21.251 37.584 21.251 37.5614 21.2585C37.6817 21.5894 37.7569 21.9428 37.7569 22.3113C37.7569 23.3264 37.2531 24.2213 36.4861 24.7702H37.035C37.2982 24.7702 37.5614 24.8304 37.8096 24.9507C37.8923 24.9883 37.975 25.0409 38.0577 25.0936C38.1555 25.1612 38.2532 25.244 38.3435 25.3267C38.4036 25.3868 38.4638 25.4545 38.5164 25.5222C38.554 25.5673 38.5916 25.635 38.6292 25.6952C38.6668 25.7628 38.7044 25.8305 38.727 25.8681V25.8907L42.72 34.2677C43.1335 35.14 42.7651 36.1777 41.8928 36.5913C41.6597 36.7041 41.404 36.7642 41.1483 36.7642C40.8175 36.7642 40.4941 36.6665 40.2234 36.4935V41.8175C40.2234 42.6597 40.9002 43.3365 41.7424 43.3365C42.5846 43.3365 43.2614 42.6597 43.2614 41.8175V27.1916L45.2842 31.4402C45.4872 31.8614 45.9083 32.1095 46.352 32.1095C46.525 32.1095 46.6979 32.0719 46.8558 31.9967C47.4424 31.7185 47.6905 31.0116 47.4123 30.4251V30.4326Z" fill="#0079C2"/>
<path d="M28.1992 36.7564V43.2609C28.8007 43.0579 29.2369 42.4939 29.2369 41.8247V36.4932C28.9662 36.6661 28.6428 36.7639 28.312 36.7639C28.2744 36.7639 28.2368 36.7488 28.1917 36.7488L28.1992 36.7564Z" fill="#0079C2"/>
<path d="M29.801 36.4932V41.8247C29.801 42.4939 30.2372 43.0579 30.8388 43.2609V36.7564C30.8012 36.7564 30.7636 36.7714 30.7184 36.7714C30.3876 36.7714 30.0717 36.6736 29.801 36.5007V36.4932Z" fill="#0079C2"/>
<path d="M26.6048 24.7702C26.8304 24.7702 27.0485 24.8153 27.2515 24.8981C27.2891 24.9131 27.3342 24.9281 27.3793 24.9507C27.4245 24.9733 27.4696 24.9958 27.5072 25.0259C27.5448 25.0485 27.5899 25.071 27.62 25.1011C27.6651 25.1312 27.7027 25.1537 27.7403 25.1913C27.8004 25.2364 27.8531 25.2891 27.8982 25.3417C27.9584 25.4019 28.0185 25.4696 28.0712 25.5372C28.1088 25.5824 28.1464 25.65 28.184 25.7102C28.2291 25.7779 28.2591 25.8455 28.2817 25.8831V25.9057L29.4999 28.4549L30.7181 25.9057V25.8907C30.7407 25.8531 30.7783 25.7854 30.8234 25.7102C30.861 25.65 30.8986 25.5824 30.9362 25.5372C30.9888 25.4696 31.0415 25.4019 31.1091 25.3417C31.1618 25.2891 31.2144 25.244 31.2671 25.1913C31.3047 25.1612 31.3498 25.1312 31.3874 25.1011C31.425 25.071 31.4626 25.0485 31.5002 25.0259C31.5453 25.0033 31.5904 24.9733 31.6355 24.9507C31.6731 24.9281 31.7182 24.9131 31.7558 24.8981C31.9664 24.8153 32.1845 24.7702 32.4101 24.7702H32.959C32.192 24.2213 31.6882 23.3264 31.6882 22.3113C31.6882 21.9428 31.7558 21.5894 31.8837 21.2585C31.8611 21.2585 31.831 21.2585 31.8085 21.251H27.2064C27.2064 21.251 27.1537 21.2585 27.1312 21.2585C27.2515 21.5894 27.3192 21.9428 27.3192 22.3113C27.3192 23.3264 26.8154 24.2213 26.0483 24.7702H26.5973H26.6048Z" fill="#0079C2"/>
<path d="M19.4689 35.7715C19.4463 35.8242 19.4087 35.8768 19.3787 35.9295V41.8249C19.3787 42.4942 19.8148 43.0582 20.4164 43.2612V33.7788L19.6043 35.4858L19.4614 35.7791L19.4689 35.7715Z" fill="#0079C2"/>
<path d="M17.1526 36.5986C17.0473 36.546 16.9571 36.4933 16.8894 36.4407C16.1976 35.9519 15.9569 35.0345 16.3254 34.275L20.3109 25.898V25.883C20.3334 25.8454 20.371 25.7777 20.4086 25.7025C20.4462 25.6423 20.4838 25.5746 20.5214 25.5295C20.5741 25.4618 20.6342 25.3942 20.6944 25.334C20.7846 25.2438 20.8749 25.1686 20.9801 25.1009C21.0629 25.0483 21.1381 24.9956 21.2283 24.958C21.4764 24.8452 21.7321 24.7851 22.0028 24.7775H22.5518C21.7848 24.2286 21.2809 23.3338 21.2809 22.3186C21.2809 21.9501 21.3486 21.5967 21.4689 21.2658C21.4464 21.2658 21.4163 21.2658 21.3937 21.2583H16.7916C16.5961 21.2583 16.4157 21.3034 16.2577 21.3861C16.0622 21.4764 15.8968 21.6117 15.769 21.7847C15.7088 21.8599 15.6035 22.0629 15.6035 22.0629L11.618 30.4399C11.3699 30.9663 11.5428 31.5829 12.0016 31.9063C12.0542 31.9439 12.1144 31.9815 12.1745 32.0116C12.3399 32.0867 12.5129 32.1243 12.6783 32.1243C13.122 32.1243 13.5431 31.8762 13.7461 31.4551L15.769 27.2064V41.8324C15.769 42.6746 16.4457 43.3513 17.2879 43.3513C18.1302 43.3513 18.8069 42.6746 18.8069 41.8324V36.5084C18.5362 36.6813 18.2129 36.7791 17.882 36.7791C17.6188 36.7791 17.3707 36.7189 17.1375 36.6136L17.1526 36.5986Z" fill="#0079C2"/>
<path d="M27.3044 36.4409C26.6126 35.9521 26.372 35.0347 26.7405 34.2752L29.2069 29.1016L27.9135 26.3945L27.7932 26.1388C27.7932 26.1388 27.688 25.9358 27.6278 25.8606C27.5902 25.8079 27.5376 25.7628 27.4924 25.7177C27.4248 25.65 27.3496 25.5899 27.2668 25.5372C27.2292 25.5071 27.1841 25.4771 27.139 25.4545C27.1014 25.4319 27.0563 25.4244 27.0112 25.4094C26.8833 25.3643 26.748 25.3267 26.5976 25.3267H21.9955C21.8 25.3267 21.6195 25.3718 21.4616 25.4545C21.2661 25.5447 21.1006 25.6801 20.9728 25.853C20.9202 25.9282 20.8149 26.1313 20.8149 26.1313L20.6946 26.3869L20.4088 26.981L16.8219 34.5158C16.5738 35.0422 16.7467 35.6588 17.2054 35.9822C17.258 36.0198 17.3182 36.0574 17.3784 36.0874C17.5438 36.1626 17.7168 36.2002 17.8822 36.2002C18.2356 36.2002 18.5815 36.0348 18.8071 35.749C18.8598 35.6814 18.9124 35.6062 18.95 35.5234L20.9728 31.2748V45.9007C20.9728 46.7429 21.6571 47.4197 22.4918 47.4197C23.3265 47.4197 24.0108 46.7354 24.0108 45.9007V37.6515H24.5748V45.9007C24.5748 46.7429 25.2515 47.4197 26.0938 47.4197C26.936 47.4197 27.6128 46.7354 27.6128 45.9007V36.6138C27.6128 36.6138 27.5676 36.6063 27.5526 36.5913C27.4473 36.5386 27.3646 36.486 27.2894 36.4333L27.3044 36.4409Z" fill="#0079C2"/>
<path d="M41.1411 36.2002C41.3065 36.2002 41.4795 36.1626 41.6449 36.0874C42.2314 35.8092 42.4796 35.1023 42.2014 34.5158L38.6144 26.981L38.3287 26.3869L38.2084 26.1313C38.2084 26.1313 38.1031 25.9282 38.0505 25.853C37.9226 25.6801 37.7572 25.5447 37.5617 25.4545C37.3962 25.3793 37.2158 25.3342 37.0278 25.3267H32.4257C32.2828 25.3267 32.1474 25.3567 32.0196 25.4094C31.982 25.4244 31.9294 25.4319 31.8918 25.4545C31.8467 25.4771 31.8091 25.5071 31.7639 25.5372C31.6812 25.5899 31.606 25.65 31.5383 25.7177C31.4932 25.7628 31.4406 25.8079 31.403 25.8606C31.3428 25.9358 31.2451 26.1388 31.2451 26.1388L31.1248 26.3945L27.2521 34.5233C27.0039 35.0497 27.1769 35.6663 27.6356 35.9897C27.6882 36.0273 27.7484 36.0649 27.8085 36.0949C27.8461 36.11 27.8837 36.1175 27.9138 36.1325C28.0041 36.1626 28.1018 36.1852 28.1996 36.2002C28.2372 36.2002 28.2748 36.2153 28.3199 36.2153C28.6432 36.2153 28.9591 36.0799 29.1847 35.8393C29.2072 35.8167 29.2223 35.7791 29.2448 35.7566C29.2899 35.6964 29.3351 35.6438 29.3651 35.5761C29.3651 35.561 29.3802 35.5535 29.3877 35.546L29.5306 35.2527L31.1323 31.8839L31.1473 31.8538L32.3054 34.2827C32.7189 35.155 32.3505 36.1927 31.4782 36.6063C31.4556 36.6138 31.4331 36.6213 31.4105 36.6289V45.9157C31.4105 46.758 32.0873 47.4347 32.9295 47.4347C33.7717 47.4347 34.4485 46.7504 34.4485 45.9157V37.6666H35.0125V45.9157C35.0125 46.758 35.6968 47.4347 36.5315 47.4347C37.3662 47.4347 38.0505 46.7504 38.0505 45.9157V31.2898L40.0733 35.5385C40.1109 35.6212 40.1635 35.6964 40.2161 35.7641C40.4417 36.0498 40.7801 36.2153 41.1411 36.2153V36.2002Z" fill="#0079C2"/>
<path d="M31.786 34.5156L31.4025 33.711L31.1168 33.1169L30.831 33.7712L30.0189 35.4781L29.876 35.7714C29.876 35.7714 29.8535 35.809 29.8459 35.8241C30.0715 36.0647 30.3874 36.2 30.7107 36.2C30.7483 36.2 30.7859 36.1925 30.831 36.185C30.9288 36.1775 31.019 36.1549 31.1168 36.1173C31.1544 36.1023 31.192 36.0948 31.2221 36.0797C31.2822 36.0496 31.3424 36.012 31.395 35.9744C31.8537 35.6511 32.0267 35.0345 31.7785 34.5081L31.786 34.5156Z" fill="#0079C2"/>
<path d="M24.3042 16.4907C25.6653 16.4907 26.7631 15.3853 26.7631 14.0317C26.7631 12.6782 25.6653 11.5728 24.3042 11.5728C22.9431 11.5728 21.8452 12.6706 21.8452 14.0317C21.8452 15.3928 22.9431 16.4907 24.3042 16.4907Z" fill="#0079C2"/>
<path d="M34.7263 16.4904C36.0874 16.4904 37.1853 15.385 37.1853 14.0315C37.1853 12.6779 36.0874 11.5725 34.7263 11.5725C33.3652 11.5725 32.2673 12.6704 32.2673 14.0315C32.2673 15.3925 33.3727 16.4904 34.7263 16.4904Z" fill="#0079C2"/>
<path d="M29.1243 20.6491C29.177 20.6566 29.2221 20.6642 29.2747 20.6717C29.3349 20.6717 29.395 20.6717 29.4477 20.6792C29.4702 20.6792 29.4928 20.6792 29.5154 20.6792C29.5379 20.6792 29.5605 20.6792 29.583 20.6792C29.6432 20.6792 29.7034 20.6792 29.756 20.6717C29.8086 20.6717 29.8537 20.6566 29.9064 20.6491C31.0795 20.4611 31.9743 19.446 31.9743 18.2202C31.9743 17.8743 31.8991 17.5435 31.7713 17.2502C31.7337 17.16 31.6886 17.0772 31.6434 16.9945C31.5983 16.9118 31.5457 16.8366 31.4855 16.7614C31.0343 16.1598 30.32 15.7688 29.5154 15.7688C28.7107 15.7688 27.9888 16.1598 27.5452 16.7614C27.485 16.8366 27.4324 16.9193 27.3873 17.002C27.3421 17.0848 27.297 17.1675 27.2594 17.2502C27.1316 17.551 27.0564 17.8743 27.0564 18.2202C27.0564 19.446 27.9512 20.4611 29.1243 20.6491Z" fill="#0079C2"/>
<path d="M18.8524 20.672C18.9351 20.672 19.0103 20.687 19.093 20.687C19.1155 20.687 19.1381 20.687 19.1607 20.687C19.2735 20.687 19.3787 20.672 19.4915 20.6569C20.6646 20.4689 21.5595 19.4538 21.5595 18.2281C21.5595 17.8821 21.4843 17.5513 21.3564 17.258C21.3188 17.1678 21.2737 17.085 21.2211 17.0023C21.176 16.9196 21.1233 16.8444 21.0632 16.7692C20.612 16.1676 19.8976 15.7766 19.093 15.7766C17.7319 15.7766 16.634 16.8745 16.634 18.2356C16.634 19.5139 17.6116 20.5667 18.8524 20.687V20.672Z" fill="#0079C2"/>
<path d="M23.8606 24.725C23.9433 24.74 24.0335 24.7476 24.1162 24.7551C24.1388 24.7551 24.1613 24.7551 24.1914 24.7551C24.229 24.7551 24.2741 24.7551 24.3117 24.7551C24.3493 24.7551 24.3945 24.7551 24.4321 24.7551C24.4546 24.7551 24.4772 24.7551 24.5073 24.7551C24.5975 24.7551 24.6802 24.74 24.7629 24.725C25.9059 24.5144 26.7707 23.5143 26.7707 22.3036C26.7707 21.9878 26.7105 21.6945 26.6053 21.4163C26.5752 21.3261 26.5301 21.2358 26.485 21.1531C26.4398 21.0704 26.3947 20.9877 26.3421 20.9125C25.8984 20.2658 25.154 19.8372 24.3117 19.8372C23.4695 19.8372 22.7251 20.2583 22.2814 20.9125C22.2288 20.9877 22.1761 21.0704 22.131 21.1606C22.0859 21.2434 22.0483 21.3261 22.0182 21.4163C21.9129 21.687 21.8528 21.9878 21.8528 22.3036C21.8528 23.5068 22.7176 24.5069 23.8681 24.725H23.8606Z" fill="#0079C2"/>
<path d="M34.2749 24.725C34.3576 24.74 34.4403 24.7476 34.5306 24.7551C34.5607 24.7551 34.5832 24.7551 34.6058 24.7551C34.6434 24.7551 34.6885 24.7551 34.7261 24.7551C34.7637 24.7551 34.8088 24.7551 34.8464 24.7551C34.869 24.7551 34.8915 24.7551 34.9216 24.7551C35.0118 24.7551 35.0946 24.74 35.1773 24.725C36.3203 24.5144 37.1926 23.5143 37.1926 22.3036C37.1926 21.9878 37.1324 21.6945 37.0271 21.4163C36.9895 21.3261 36.9519 21.2358 36.9068 21.1531C36.8617 21.0704 36.8166 20.9877 36.764 20.9125C36.3203 20.2658 35.5758 19.8372 34.7336 19.8372C33.8914 19.8372 33.1469 20.2583 32.7033 20.9125C32.6506 20.9877 32.598 21.0704 32.5529 21.1606C32.5078 21.2509 32.4702 21.3261 32.4401 21.4238C32.3348 21.6945 32.2747 21.9953 32.2747 22.3112C32.2747 23.5143 33.1394 24.5144 34.29 24.7325L34.2749 24.725Z" fill="#0079C2"/>
<path d="M38.1855 20.6867H37.629C37.5162 20.6867 37.4035 20.7018 37.2982 20.7243C36.7643 19.8596 35.8168 19.2881 34.7264 19.2881C33.6361 19.2881 32.6886 19.8671 32.1547 20.7243C32.0419 20.7018 31.9291 20.6867 31.8163 20.6867H31.2673C32.0343 20.1378 32.5382 19.2429 32.5382 18.2278C32.5382 17.8217 32.4555 17.4307 32.3051 17.0697C32.3427 17.0697 32.3803 17.0547 32.4179 17.0547H37.0199C37.0575 17.0547 37.0951 17.0622 37.1327 17.0697C36.9823 17.4232 36.8996 17.8142 36.8996 18.2278C36.8996 19.2429 37.4035 20.1378 38.1705 20.6867H38.1855Z" fill="#0079C2"/>
<path d="M40.1784 20.672C40.0956 20.672 40.0204 20.687 39.9377 20.687C39.9152 20.687 39.8926 20.687 39.87 20.687C39.7572 20.687 39.652 20.672 39.5467 20.6569C38.3736 20.4689 37.4788 19.4538 37.4788 18.2281C37.4788 17.8821 37.554 17.5513 37.6818 17.258C37.7194 17.1678 37.7645 17.085 37.8096 17.0023C37.8547 16.9196 37.9074 16.8444 37.9675 16.7692C38.4187 16.1676 39.1331 15.7766 39.9377 15.7766C41.2988 15.7766 42.3967 16.8745 42.3967 18.2356C42.3967 19.5139 41.4266 20.5667 40.1784 20.687V20.672Z" fill="#0079C2"/>
</svg>
