<svg width="111" height="60" viewBox="0 0 111 60" fill="none" xmlns="http://www.w3.org/2000/svg">
<path d="M37.7766 18.1523H44.6475V20.3781H41.379V36.1162H37.7766V18.1523Z" fill="#0079C2"/>
<path d="M48.5356 29.3688L49.1551 20.3781H49.3615L49.9766 29.3688H48.5356ZM44.5466 36.1206H48.0699L48.4038 31.3449H50.104L50.4379 36.1206H53.9612L52.0809 18.1523H46.4181L44.5378 36.1206H44.5466Z" fill="#0079C2"/>
<path d="M58.7059 29.8289V33.2113C58.7059 33.6714 59.0662 33.8028 59.2726 33.8028C59.6065 33.8028 59.8394 33.5224 59.8394 33.2113V29.0315C59.8394 28.4662 59.7339 27.8528 58.3984 27.8528H56.9311V25.8768H58.4467C59.4747 25.8768 59.835 25.6446 59.835 24.5405V20.9696C59.835 20.6629 59.6021 20.3781 59.2682 20.3781C59.0618 20.3781 58.7015 20.5052 58.7015 20.9696V23.9008H55.0991V21.3596C55.0991 20.1021 55.2529 18.1523 57.7746 18.1523H60.7619C63.288 18.1523 63.4374 20.1021 63.4374 21.3596V24.2338C63.4374 26.1835 62.0755 26.7224 60.9948 26.6699V26.8495C63.4154 26.7969 63.4374 28.6459 63.4374 29.2856V32.9046C63.4374 34.1621 63.2836 36.1119 60.7619 36.1119H57.7746C55.2529 36.1119 55.0991 34.1621 55.0991 32.9046V29.8245H58.7015L58.7059 29.8289Z" fill="#0079C2"/>
<path d="M65.335 18.1523H73.6732V36.1206H70.0708V20.3781H68.9374V36.1162H65.335V18.1523Z" fill="#0079C2"/>
<path d="M79.3844 28.0325V20.3781H79.8457C80.2323 20.3781 80.5134 20.7111 80.5134 21.2763V27.1343C80.5134 27.6995 80.2279 28.0325 79.8457 28.0325H79.3844ZM75.782 36.1162H79.3844V30.0085H81.4448C83.9665 30.0085 84.1202 28.0588 84.1202 26.8013V21.3596C84.1202 20.1021 83.9665 18.1523 81.4448 18.1523H75.782V36.1206V36.1162Z" fill="#0079C2"/>
<path d="M90.6045 33.2113C90.6045 33.5181 90.3716 33.8028 90.0378 33.8028C89.8313 33.8028 89.471 33.6714 89.471 33.2113V20.9696C89.471 20.5096 89.8313 20.3781 90.0378 20.3781C90.3716 20.3781 90.6045 20.6585 90.6045 20.9696V33.2113ZM85.8687 32.909C85.8687 34.1665 86.0224 36.1162 88.5441 36.1162H91.5314C94.0531 36.1162 94.2069 34.1665 94.2069 32.909V21.3596C94.2069 20.1021 94.0531 18.1523 91.5314 18.1523H88.5441C86.0224 18.1523 85.8687 20.1021 85.8687 21.3596V32.909Z" fill="#0079C2"/>
<path d="M105.436 18.1523H110.119V36.1206H106.517V24.8516H106.389L104.535 36.1206H101.653L99.7994 24.8516H99.6676V36.1206H96.0652V18.1523H100.748L103.09 30.7796L105.431 18.1523H105.436Z" fill="#0079C2"/>
<path d="M32.6588 10.6426C31.4111 5.1746 28.27 0.731822 27.8395 0.00012207C27.1541 1.021 24.65 4.94238 23.376 9.30192C21.9878 14.1609 21.7857 18.4679 22.2645 22.7179C22.739 26.9591 24.5402 31.3186 24.5402 31.3186C25.4935 33.6058 26.9257 36.055 27.857 37.2555C29.2233 35.4854 32.3644 30.2058 33.3441 23.305C33.8889 19.4712 33.9152 16.1151 32.6588 10.6426ZM27.8395 35.8972C27.2244 34.7405 26.2667 32.5411 26.1745 29.1411C26.1525 25.8506 27.4704 23.029 27.857 22.4462C28.1997 23.0333 29.3419 25.4913 29.4737 28.8475C29.566 32.1336 28.4721 34.7186 27.8395 35.8972ZM32.2941 19.9269C32.2502 22.0125 31.9998 24.2163 31.6791 25.5308C31.7933 23.2656 31.5209 20.0671 30.9982 17.5653C30.4754 15.0635 28.9949 10.9011 27.8131 8.96454C26.7236 10.8047 25.3793 14.4151 24.672 17.5434C23.9647 20.6805 23.9427 24.4661 23.9427 25.6052C23.7582 24.6457 23.2838 21.2326 23.4199 17.7975C23.5298 14.9627 24.1975 12.0535 24.5578 10.7171C25.946 6.24367 27.5188 3.38697 27.8131 2.93569C28.1075 3.38697 30.0888 6.90527 31.1124 10.6032C32.1316 14.3055 32.3381 17.8413 32.2941 19.9313V19.9269Z" fill="#0079C2"/>
<path d="M29.9614 38.5307H20.437V44.9056C20.437 44.9056 20.4546 44.8881 20.4634 44.8794C22.7083 42.6404 26.3458 42.6404 28.5863 44.8794C30.8313 47.1183 30.8313 50.7461 28.5863 52.985C28.5776 52.9938 28.5688 53.0025 28.56 53.0113C28.56 53.0113 28.538 53.0332 28.5248 53.042C26.2887 55.259 23.3629 56.3675 20.437 56.3675C17.5112 56.3675 14.5634 55.2502 12.3184 53.0157C8.37338 49.0768 7.90331 42.9778 10.9126 38.5307C11.3168 37.9304 11.7869 37.3564 12.3184 36.8307C14.559 34.5961 17.498 33.4789 20.437 33.4789V18.1526C9.15536 18.1526 0 27.2791 0 38.5307C0 49.7822 9.15536 58.9131 20.437 58.9131C26.3283 58.9131 31.6264 56.4288 35.3518 52.4592V38.5307H29.9614Z" fill="#0079C2"/>
<path d="M110.119 38.5303H37.7766V49.7599H110.119V38.5303Z" fill="#0079C2"/>
<path d="M45.1793 40.7776V46.2369H45.5264V48.892H43.9448V47.5119H41.6033V48.892H40.0217V46.2369H40.2458C40.7334 45.4657 40.874 44.7735 40.874 42.701V40.7776H45.1749H45.1793ZM43.5538 42.0526H42.4731V43.3188C42.4731 44.6157 42.3589 45.4876 41.9547 46.2369H43.5538V42.0526Z" fill="white"/>
<path d="M57.3221 42.5348V45.558C57.3221 46.8987 56.6544 47.6786 55.1299 47.6786C53.6055 47.6786 52.9377 46.8987 52.9377 45.558V42.5261C52.9377 41.4658 53.6055 40.6289 55.1387 40.6289C56.6719 40.6289 57.3221 41.4833 57.3221 42.5348ZM54.5676 42.4209V45.8341C54.5676 46.2371 54.8488 46.4343 55.1299 46.4343C55.4111 46.4343 55.6967 46.2371 55.6967 45.8341V42.4209C55.6967 42.0353 55.4067 41.8689 55.1299 41.8689C54.8532 41.8689 54.5676 42.0397 54.5676 42.4209Z" fill="white"/>
<path d="M68.6829 40.7778V41.9871H66.6313V43.376H67.365C68.3227 43.376 69.3419 43.7966 69.3419 45.4572C69.3419 47.1178 68.3095 47.5121 67.365 47.5121H65.0015V40.7734H68.6785L68.6829 40.7778ZM66.6313 46.3028H66.9125C67.3826 46.3028 67.712 46.1451 67.712 45.4791C67.712 44.8131 67.3474 44.5897 66.9388 44.5897H66.6269V46.3072L66.6313 46.3028Z" fill="white"/>
<path d="M78.6423 43.376H79.376C80.3337 43.376 81.3529 43.7966 81.3529 45.4572C81.3529 47.1178 80.3205 47.5121 79.376 47.5121H77.0168V40.7734H78.6423V43.3716V43.376ZM78.6423 46.3028H78.9235C79.3935 46.3028 79.723 46.1451 79.723 45.4791C79.723 44.8131 79.354 44.5897 78.9498 44.5897H78.6379V46.3072L78.6423 46.3028ZM83.6286 47.5121H82.0031V40.7734H83.6286V47.5121Z" fill="white"/>
<path d="M92.9243 40.7776V43.0384C92.9243 43.3583 93.0649 43.5072 93.3768 43.5072C93.6228 43.5072 93.7898 43.4678 93.9875 43.3758V40.7776H95.6129V47.5162H93.9875V44.6552C93.6404 44.7472 93.3944 44.7866 92.7574 44.7866C92.1643 44.7866 91.2988 44.366 91.2988 43.183V40.782H92.9243V40.7776Z" fill="white"/>
<path d="M106.354 40.7776L107.853 47.5162H106.253L106.007 46.1668H104.764L104.558 47.5162H102.941L104.408 40.7776H106.354ZM105.792 44.9531L105.357 41.9869H105.348L104.927 44.9531H105.792Z" fill="white"/>
<path d="M37.7766 55.5347C37.7766 53.9925 38.0314 52.0471 39.9996 52.0471C41.9677 52.0471 42.2313 53.9925 42.2313 55.5347C42.2313 57.3969 41.9677 59.0706 39.9996 59.0706C38.0314 59.0706 37.7766 57.3969 37.7766 55.5347ZM39.982 52.7175C38.8266 52.7175 38.5586 53.9048 38.5586 55.4121C38.5586 57.3662 38.7651 58.3958 40.0039 58.3958C41.2428 58.3958 41.4581 57.3662 41.4581 55.4208C41.4581 53.9136 41.1769 52.7175 39.9864 52.7175H39.982Z" fill="#0079C2"/>
<path d="M49.0405 58.9127H48.2893V52.1785H50.1652C51.3953 52.1785 52.1992 52.7481 52.1992 54.0756C52.1992 55.6486 51.2415 56.0604 50.0246 56.0604H49.0405V58.9127ZM49.0405 55.3857H49.7742C50.8066 55.3857 51.426 55.2279 51.426 54.0756C51.426 53.1205 50.8901 52.8488 49.9895 52.8488H49.0405V55.3857Z" fill="#0079C2"/>
<path d="M61.4557 52.1785V52.8532H58.8198V55.0439H61.2844V55.7187H58.8198V58.2424H61.4645V58.9171H58.0686V52.1828H61.4557V52.1785Z" fill="#0079C2"/>
<path d="M68.3926 55.0395H70.9714V52.1785H71.7226V58.9127H70.9714V55.7143H68.3926V58.9127H67.6414V52.1785H68.3926V55.0395Z" fill="#0079C2"/>
<path d="M81.2604 52.1785V52.8532H78.6553V55.0439H79.5471C80.764 55.0439 81.7217 55.4558 81.7217 57.0156C81.7217 58.3519 80.9134 58.9127 79.6965 58.9127H77.9041V52.1785H81.2604ZM78.6553 58.238H79.5076C80.4082 58.238 80.9441 57.9663 80.9441 57.0112C80.9441 55.9334 80.3335 55.7099 79.2923 55.7099H78.6553V58.2336V58.238Z" fill="#0079C2"/>
<path d="M87.9731 52.1785L89.5503 56.8535L90.9956 52.1785H91.782L89.9237 57.7999C89.5942 58.7988 89.212 59.0705 88.6673 59.0705C88.3685 59.0705 88.1972 59.031 88.0961 58.9872V58.3125C88.2192 58.3782 88.4256 58.3957 88.5926 58.3957C88.8562 58.3957 89.0143 58.2731 89.1637 57.7604L87.178 52.1785H87.9731Z" fill="#0079C2"/>
<path d="M98.0645 58.9127H97.3132V52.1785H99.1891C100.419 52.1785 101.223 52.7481 101.223 54.0756C101.223 55.6486 100.265 56.0604 99.0485 56.0604H98.0645V58.9127ZM98.0645 55.3857H98.7937C99.8261 55.3857 100.446 55.2279 100.446 54.0756C100.446 53.1205 99.9096 52.8488 99.009 52.8488H98.0601V55.3857H98.0645Z" fill="#0079C2"/>
<path d="M110.119 52.1785V52.8532H107.698V58.9127H106.947V52.1785H110.115H110.119Z" fill="#0079C2"/>
</svg>
