<svg width="239" height="122" viewBox="0 0 239 122" fill="none" xmlns="http://www.w3.org/2000/svg">
<rect width="238.432" height="122" rx="5" fill="white"/>
<path d="M113.701 38.1219V38.8535C113.701 40.6197 112.896 41.3931 111.161 41.3931C109.427 41.3931 108.622 40.6302 108.622 38.843V35.4464C108.622 34.2236 109.385 33.2412 111.161 33.2412C112.938 33.2412 113.701 34.2341 113.701 35.4569V35.9899H111.83V35.2896C111.83 34.8716 111.444 34.6835 111.151 34.6835C110.837 34.6835 110.513 34.8611 110.513 35.2583V39.1357C110.513 39.7209 110.764 39.9613 111.151 39.9613C111.538 39.9613 111.83 39.7418 111.83 39.1566V38.1219H113.701Z" fill="#0079C2"/>
<path d="M119.669 35.4464V38.9371C119.669 40.4839 118.895 41.3827 117.139 41.3827C115.384 41.3827 114.61 40.4839 114.61 38.9371V35.436C114.61 34.2132 115.384 33.2412 117.15 33.2412C118.916 33.2412 119.669 34.2236 119.669 35.4464ZM116.491 35.3105V39.2611C116.491 39.7314 116.815 39.9509 117.139 39.9509C117.463 39.9509 117.787 39.7209 117.787 39.2611V35.3105C117.787 34.8611 117.453 34.673 117.139 34.673C116.826 34.673 116.491 34.8716 116.491 35.3105Z" fill="#0079C2"/>
<path d="M120.682 33.4189H123.671C124.581 33.4189 125.594 33.9729 125.594 35.3733C125.594 36.4393 124.946 36.9305 124.528 37.0246C125.26 37.3277 125.668 37.8293 125.668 38.9163C125.668 40.369 124.884 41.2155 123.295 41.2155H120.682V33.4294V33.4189ZM122.49 36.4184H123.044C123.577 36.4184 123.786 36.1572 123.786 35.5405C123.786 35.0807 123.577 34.8194 123.044 34.8194H122.49V36.4289V36.4184ZM122.49 39.8046H122.908C123.619 39.8046 123.818 39.5329 123.818 38.8327C123.818 38.1847 123.609 37.8293 122.95 37.8293H122.48V39.8151L122.49 39.8046Z" fill="#0079C2"/>
<path d="M126.66 33.4187H131.019V34.8923H128.531V36.4181H130.757V37.8918H128.531V39.7207H131.019V41.1943H126.66V33.4082V33.4187Z" fill="#0079C2"/>
<path d="M134.666 41.2051H132.942V34.8926H131.468V33.4189H136.046V34.8926H134.666V41.2051Z" fill="#0079C2"/>
<path d="M111.329 45.2603L111.935 48.4165C112.06 49.054 112.133 50.141 112.217 50.8725H112.238C112.321 50.1723 112.415 48.96 112.52 48.4165L113.126 45.2603H115.739V53.0464H113.952V50.3186C113.952 49.5661 114.004 47.57 114.046 46.922H114.035L112.875 53.0464H111.569L110.409 46.922H110.398C110.43 47.4655 110.492 49.2526 110.492 50.3082V53.0464H108.705V45.2603H111.318H111.329Z" fill="#0079C2"/>
<path d="M121.801 47.2878V50.7785C121.801 52.3252 121.027 53.224 119.272 53.224C117.516 53.224 116.742 52.3252 116.742 50.7785V47.2773C116.742 46.0545 117.516 45.093 119.282 45.093C121.048 45.093 121.801 46.0754 121.801 47.2982V47.2878ZM118.624 47.1624V51.1129C118.624 51.5832 118.948 51.8027 119.272 51.8027C119.596 51.8027 119.92 51.5728 119.92 51.1129V47.1624C119.92 46.713 119.585 46.5248 119.272 46.5248C118.958 46.5248 118.624 46.7234 118.624 47.1624Z" fill="#0079C2"/>
<path d="M128.385 45.2602V53.0463H126.514V46.7338H125.281V49.4093C125.281 52.3565 124.737 53.1299 123.473 53.1299C123.076 53.1299 122.794 53.0463 122.459 52.9V51.5831C122.543 51.6249 122.731 51.6458 122.919 51.6458C123.442 51.6458 123.473 51.3323 123.473 48.9181V45.2393H128.395L128.385 45.2602Z" fill="#0079C2"/>
<path d="M134.436 47.2878V50.7785C134.436 52.3252 133.663 53.224 131.907 53.224C130.151 53.224 129.378 52.3252 129.378 50.7785V47.2773C129.378 46.0545 130.151 45.093 131.918 45.093C133.684 45.093 134.436 46.0754 134.436 47.2982V47.2878ZM131.259 47.1624V51.1129C131.259 51.5832 131.583 51.8027 131.907 51.8027C132.231 51.8027 132.555 51.5728 132.555 51.1129V47.1624C132.555 46.713 132.221 46.5248 131.907 46.5248C131.594 46.5248 131.259 46.7234 131.259 47.1624Z" fill="#0079C2"/>
<path d="M141.062 45.2603V51.5728H141.46V54.6454H139.641V53.0464H136.945V54.6454H135.126V51.5728H135.388C135.952 50.6844 136.119 49.8797 136.119 47.4864V45.2603H141.073H141.062ZM139.192 46.7339H137.948V48.197C137.948 49.6916 137.823 50.7053 137.352 51.5728H139.192V46.7339Z" fill="#0079C2"/>
<path d="M144.103 48.2599H144.95C146.058 48.2599 147.228 48.7511 147.228 50.6637C147.228 52.5763 146.037 53.0361 144.95 53.0361H142.233V45.25H144.114V48.2495L144.103 48.2599ZM144.103 51.6461H144.427C144.971 51.6461 145.347 51.458 145.347 50.6951C145.347 49.9321 144.929 49.6604 144.459 49.6604H144.103V51.6461ZM149.852 53.0466H147.981V45.2605H149.852V53.0466Z" fill="#0079C2"/>
<path d="M152.37 45.2603L153.269 47.5491L154.168 45.2603H155.976L154.325 49.1063L156.049 53.0464H154.074L153.259 50.674L152.287 53.0464H150.479L152.203 49.1063L150.552 45.2603H152.36H152.37Z" fill="#0079C2"/>
<path d="M161.118 45.2605L161.829 48.6571C161.881 48.9393 161.881 49.4514 161.923 50.2666H161.944C162.007 49.4409 162.059 48.9497 162.132 48.6571L162.864 45.2605H164.807L163.135 51.2594C162.707 52.7644 162.268 53.1302 160.951 53.1302C160.606 53.1302 160.157 53.057 160.01 52.9212V51.5939C160.094 51.6252 160.293 51.6461 160.481 51.6461C160.627 51.6461 160.836 51.6357 160.92 51.3848L159.164 45.25H161.129L161.118 45.2605Z" fill="#0079C2"/>
<path d="M167.232 45.2603V47.8731C167.232 48.2388 167.399 48.4165 167.755 48.4165C168.037 48.4165 168.235 48.3747 168.455 48.2597V45.2603H170.326V53.0464H168.455V49.7438C168.058 49.8483 167.776 49.8901 167.033 49.8901C166.354 49.8901 165.351 49.3989 165.351 48.0403V45.2603H167.232Z" fill="#0079C2"/>
<path d="M171.423 45.2605H175.781V46.7341H173.294V48.2599H175.52V49.7336H173.294V51.5625H175.781V53.0361H171.423V45.25V45.2605Z" fill="#0079C2"/>
<path d="M178.467 48.2597H179.69V45.2603H181.56V53.0464H179.69V49.7438H178.467V53.0464H176.586V45.2603H178.467V48.2597Z" fill="#0079C2"/>
<path d="M184.529 48.2599H185.375C186.483 48.2599 187.654 48.7511 187.654 50.6637C187.654 52.5763 186.462 53.0361 185.375 53.0361H182.658V45.25H184.539V48.2495L184.529 48.2599ZM184.529 51.6461H184.853C185.396 51.6461 185.772 51.458 185.772 50.6951C185.772 49.9321 185.354 49.6604 184.884 49.6604H184.529V51.6461ZM190.277 53.0466H188.396V45.2605H190.277V53.0466Z" fill="#0079C2"/>
<path d="M192.796 45.2603L193.694 47.5491L194.593 45.2603H196.401L194.75 49.1063L196.474 53.0464H194.499L193.684 50.674L192.712 53.0464H190.904L192.628 49.1063L190.977 45.2603H192.785H192.796Z" fill="#0079C2"/>
<path d="M110.503 57.0911V59.0245C110.503 59.8815 110.263 61.1252 110.221 61.9822H110.231L111.82 57.0911H113.607V64.8772H111.82V63.0691C111.82 62.233 112.081 60.9685 112.165 60.1428L110.545 64.8772H108.726V57.0911H110.513H110.503Z" fill="#0079C2"/>
<path d="M122.522 61.8042V62.5254C122.522 64.2916 121.717 65.065 119.982 65.065C118.247 65.065 117.442 64.3021 117.442 62.5149V59.1183C117.442 57.8955 118.205 56.9131 119.982 56.9131C121.759 56.9131 122.522 57.9164 122.522 59.1287V59.6617H120.64V58.9615C120.64 58.5539 120.254 58.3554 119.961 58.3554C119.648 58.3554 119.324 58.533 119.324 58.9302V62.818C119.324 63.4033 119.574 63.6437 119.961 63.6437C120.348 63.6437 120.64 63.4242 120.64 62.8389V61.8042H122.522Z" fill="#0079C2"/>
<path d="M128.5 57.0911V64.8772H126.629V58.5647H125.406V64.8772H123.525V57.0911H128.5Z" fill="#0079C2"/>
<path d="M129.587 57.091H133.945V58.5646H131.458V60.0905H133.684V61.5641H131.458V63.3931H133.945V64.8667H129.587V57.0806V57.091Z" fill="#0079C2"/>
<path d="M136.631 63.4036H137.854V57.0911H139.725V63.4036H140.122V66.4867H138.293V64.8772H134.75V57.0911H136.631V63.4036Z" fill="#0079C2"/>
<path d="M142.734 57.0911V59.0245C142.734 59.8815 142.494 61.1252 142.452 61.9822H142.463L144.041 57.0911H145.828V64.8772H144.041V63.0691C144.041 62.233 144.302 60.9685 144.386 60.1428L142.766 64.8772H140.947V57.0911H142.734Z" fill="#0079C2"/>
<path d="M150.374 57.0911L152.099 64.8772H150.259L149.977 63.32H148.545L148.305 64.8772H146.434L148.127 57.0911H150.374ZM149.726 61.9195L149.224 58.4915H149.214L148.723 61.9195H149.716H149.726Z" fill="#0079C2"/>
<path d="M158.275 57.091V64.8772H156.405V58.5646H155.171V61.2401C155.171 64.1874 154.628 64.9608 153.363 64.9608C152.956 64.9608 152.684 64.8772 152.35 64.7308V63.414C152.433 63.4558 152.621 63.4767 152.809 63.4767C153.332 63.4767 153.363 63.1632 153.363 60.7594V57.0806H158.286L158.275 57.091Z" fill="#0079C2"/>
<path d="M161.149 57.0911V59.0245C161.149 59.8815 160.909 61.1252 160.867 61.9822H160.878L162.456 57.0911H164.243V64.8772H162.456V63.0691C162.456 62.233 162.717 60.9685 162.801 60.1428H162.79L161.17 64.8772H159.352V57.0911H161.139H161.149Z" fill="#0079C2"/>
<path d="M170.326 61.8042V62.5254C170.326 64.2916 169.521 65.065 167.786 65.065C166.051 65.065 165.246 64.3021 165.246 62.5149V59.1183C165.246 57.8955 166.009 56.9131 167.786 56.9131C169.563 56.9131 170.326 57.9164 170.326 59.1287V59.6617H168.444V58.9615C168.444 58.5539 168.058 58.3554 167.765 58.3554C167.452 58.3554 167.128 58.533 167.128 58.9302V62.818C167.128 63.4033 167.378 63.6437 167.765 63.6437C168.152 63.6437 168.444 63.4242 168.444 62.8389V61.8042H170.326Z" fill="#0079C2"/>
<path d="M174.15 64.877H172.426V58.5644H170.952V57.0908H175.53V58.5644H174.15V64.877Z" fill="#0079C2"/>
<path d="M181.236 59.1288V62.6195C181.236 64.1663 180.463 65.0755 178.707 65.0755C176.952 65.0755 176.178 64.1767 176.178 62.6195V59.1183C176.178 57.8955 176.951 56.9236 178.718 56.9236C180.484 56.9236 181.236 57.906 181.236 59.1288ZM178.059 59.0034V62.9539C178.059 63.4242 178.383 63.6437 178.707 63.6437C179.031 63.6437 179.355 63.4138 179.355 62.9539V59.0034C179.355 58.5644 179.021 58.3658 178.707 58.3658C178.394 58.3658 178.059 58.5644 178.059 59.0034Z" fill="#0079C2"/>
<path d="M182.25 57.0911H185.239C186.149 57.0911 187.162 57.645 187.162 59.0454C187.162 60.1115 186.514 60.6027 186.096 60.6967C186.817 60.9998 187.235 61.5015 187.235 62.5884C187.235 64.0411 186.452 64.8876 184.863 64.8876H182.25V57.1015V57.0911ZM184.058 60.101H184.612C185.145 60.101 185.344 59.8397 185.344 59.2231C185.344 58.7633 185.135 58.502 184.612 58.502H184.058V60.1115V60.101ZM184.058 63.4872H184.476C185.177 63.4872 185.386 63.2155 185.386 62.5152C185.386 61.8673 185.177 61.5119 184.518 61.5119H184.048V63.4976L184.058 63.4872Z" fill="#0079C2"/>
<path d="M113.68 70.9596V74.4503C113.68 75.9971 112.907 76.8959 111.151 76.8959C109.395 76.8959 108.622 75.9971 108.622 74.4503V70.9491C108.622 69.7264 109.395 68.7544 111.161 68.7544C112.928 68.7544 113.68 69.7473 113.68 70.9596ZM110.503 70.8342V74.7847C110.503 75.255 110.827 75.4745 111.151 75.4745C111.475 75.4745 111.799 75.2446 111.799 74.7847V70.8342C111.799 70.3848 111.465 70.1967 111.151 70.1967C110.837 70.1967 110.503 70.3952 110.503 70.8342Z" fill="#0079C2"/>
<path d="M119.658 70.9596V74.4503C119.658 75.9971 118.885 76.8959 117.129 76.8959C115.373 76.8959 114.6 75.9971 114.6 74.4503V70.9491C114.6 69.7264 115.373 68.7544 117.139 68.7544C118.906 68.7544 119.658 69.7473 119.658 70.9596ZM116.481 70.8342V74.7847C116.481 75.255 116.805 75.4745 117.129 75.4745C117.453 75.4745 117.777 75.2446 117.777 74.7847V70.8342C117.777 70.3848 117.443 70.1967 117.129 70.1967C116.816 70.1967 116.481 70.3952 116.481 70.8342Z" fill="#0079C2"/>
<path d="M125.636 70.9596V74.4503C125.636 75.9971 124.863 76.8959 123.107 76.8959C121.351 76.8959 120.578 75.9971 120.578 74.4503V70.9491C120.578 69.7264 121.351 68.7544 123.118 68.7544C124.884 68.7544 125.636 69.7473 125.636 70.9596ZM122.459 70.8342V74.7847C122.459 75.255 122.783 75.4745 123.107 75.4745C123.431 75.4745 123.755 75.2446 123.755 74.7847V70.8342C123.755 70.3848 123.421 70.1967 123.107 70.1967C122.794 70.1967 122.459 70.3952 122.459 70.8342Z" fill="#0079C2"/>
<path d="M131.228 72.862L130.162 73.4263L131.228 74.0952V75.4852L129.273 74.1788V72.7052L131.228 71.4824V72.8724V72.862ZM133.705 72.862L132.638 73.4263L133.705 74.0952V75.4852L131.75 74.1788V72.7052L133.705 71.4824V72.8724V72.862Z" fill="#0079C2"/>
<path d="M139.097 68.9321V70.4057H136.61V76.7183H134.729V68.9321H139.087H139.097Z" fill="#0079C2"/>
<path d="M142.787 68.9321L144.511 76.7183H142.661L142.379 75.161H140.947L140.707 76.7183H138.836L140.529 68.9321H142.776H142.787ZM142.139 73.7606L141.637 70.3326H141.627L141.135 73.7606H142.139Z" fill="#0079C2"/>
<path d="M144.898 71.3045C144.898 69.6845 145.901 68.7544 147.249 68.7544C148.733 68.7544 149.569 69.7159 149.569 70.8133C149.569 71.7748 149.256 72.266 148.462 72.6109H148.482C149.277 72.9035 149.841 73.2275 149.841 74.628C149.841 76.1643 148.838 76.8959 147.354 76.8959C146.194 76.8959 144.887 76.3838 144.887 74.3771H146.612C146.612 75.2446 146.863 75.4954 147.27 75.4954C147.761 75.4954 147.949 75.2446 147.949 74.3771C147.949 73.656 147.72 73.3529 147.124 73.3529H146.852V71.9525H147.291C147.563 71.9525 147.855 71.6494 147.855 71.0955C147.855 70.5102 147.667 70.1444 147.228 70.1444C146.748 70.1444 146.601 70.4893 146.601 71.294H144.877L144.898 71.3045Z" fill="#0079C2"/>
<path d="M155.819 68.9321V76.7183H153.948V70.4057H152.726V76.7183H150.855V68.9321H155.829H155.819Z" fill="#0079C2"/>
<path d="M158.777 76.7183H156.896V68.9321H159.613C160.7 68.9321 161.891 69.3188 161.891 71.3045C161.891 73.2903 160.721 73.677 159.613 73.677H158.767V76.7078L158.777 76.7183ZM158.777 72.287H159.111C159.582 72.287 160.021 72.057 160.021 71.2941C160.021 70.5312 159.624 70.343 159.08 70.343H158.777V72.2974V72.287Z" fill="#0079C2"/>
<path d="M167.87 70.9596V74.4503C167.87 75.9971 167.096 76.8959 165.34 76.8959C163.585 76.8959 162.811 75.9971 162.811 74.4503V70.9491C162.811 69.7264 163.585 68.7544 165.351 68.7544C167.117 68.7544 167.87 69.7473 167.87 70.9596ZM164.692 70.8342V74.7847C164.692 75.255 165.016 75.4745 165.34 75.4745C165.664 75.4745 165.988 75.2446 165.988 74.7847V70.8342C165.988 70.3848 165.654 70.1967 165.34 70.1967C165.027 70.1967 164.692 70.3952 164.692 70.8342Z" fill="#0079C2"/>
<path d="M171.486 68.9321L172.092 72.0884C172.217 72.7259 172.29 73.8128 172.374 74.5444H172.395C172.478 73.8442 172.573 72.6318 172.677 72.0884L173.283 68.9321H175.896V76.7183H174.109V73.9905C174.109 73.238 174.161 71.2523 174.203 70.5939L173.043 76.7183H171.736L170.576 70.5939H170.566C170.597 71.1373 170.66 72.9245 170.66 73.98V76.7287H168.873V68.9426H171.486V68.9321Z" fill="#0079C2"/>
<path d="M185.448 68.9321V75.2446H185.846V78.3173H184.027V76.7287H181.331V78.3173H179.512V75.2446H179.773C180.338 74.3563 180.505 73.5516 180.505 71.1582V68.9321H185.459H185.448ZM183.578 70.4057H182.334V71.8689C182.334 73.3634 182.209 74.3772 181.738 75.2446H183.578V70.4057Z" fill="#0079C2"/>
<path d="M191.573 70.9596V74.4503C191.573 75.9971 190.799 76.8959 189.044 76.8959C187.288 76.8959 186.514 75.9971 186.514 74.4503V70.9491C186.514 69.7264 187.288 68.7544 189.054 68.7544C190.82 68.7544 191.573 69.7473 191.573 70.9596ZM188.396 70.8342V74.7847C188.396 75.255 188.72 75.4745 189.044 75.4745C189.368 75.4745 189.692 75.2446 189.692 74.7847V70.8342C189.692 70.3848 189.357 70.1967 189.044 70.1967C188.73 70.1967 188.396 70.3952 188.396 70.8342Z" fill="#0079C2"/>
<path d="M196.819 68.9321V70.3326H194.457V71.9421H195.304C196.412 71.9421 197.582 72.4333 197.582 74.3458C197.582 76.2584 196.391 76.7183 195.304 76.7183H192.576V68.9321H196.819ZM194.457 75.3178H194.781C195.325 75.3178 195.701 75.1297 195.701 74.3667C195.701 73.6038 195.283 73.3321 194.813 73.3321H194.457V75.3178Z" fill="#0079C2"/>
<path d="M200.456 71.9421H201.303C202.411 71.9421 203.581 72.4333 203.581 74.3458C203.581 76.2584 202.39 76.7183 201.303 76.7183H198.586V68.9321H200.456V71.9316V71.9421ZM200.456 75.3283H200.78C201.324 75.3283 201.7 75.1401 201.7 74.3772C201.7 73.6143 201.282 73.3425 200.812 73.3425H200.456V75.3283ZM206.205 76.7287H204.323V68.9426H206.205V76.7287Z" fill="#0079C2"/>
<path d="M209.078 68.9321V71.5449C209.078 71.9107 209.246 72.0884 209.601 72.0884C209.883 72.0884 210.082 72.0466 210.301 71.9316V68.9321H212.172V76.7183H210.301V73.4157C209.904 73.5202 209.622 73.5725 208.88 73.5725C208.201 73.5725 207.197 73.0813 207.197 71.7226V68.9426H209.078V68.9321Z" fill="#0079C2"/>
<path d="M216.708 68.9321L218.432 76.7183H216.593L216.311 75.161H214.879L214.638 76.7183H212.778L214.471 68.9321H216.718H216.708ZM216.06 73.7606L215.558 70.3326L215.067 73.7606H216.06Z" fill="#0079C2"/>
<path d="M113.68 82.8009V86.2916C113.68 87.8384 112.907 88.7372 111.151 88.7372C109.395 88.7372 108.622 87.8384 108.622 86.2916V82.7905C108.622 81.5677 109.395 80.5957 111.161 80.5957C112.928 80.5957 113.68 81.5781 113.68 82.8009ZM110.503 82.6755V86.626C110.503 87.0963 110.827 87.3158 111.151 87.3158C111.475 87.3158 111.799 87.0859 111.799 86.626V82.6755C111.799 82.2261 111.465 82.038 111.151 82.038C110.837 82.038 110.503 82.2365 110.503 82.6755Z" fill="#0079C2"/>
<path d="M116.565 88.5593H114.684V80.7732H117.401C118.488 80.7732 119.679 81.1599 119.679 83.1456C119.679 85.1313 118.509 85.518 117.401 85.518H116.554V88.5593H116.565ZM116.565 84.128H116.899C117.37 84.128 117.809 83.8981 117.809 83.1352C117.809 82.3722 117.411 82.1841 116.868 82.1841H116.565V84.1385V84.128Z" fill="#0079C2"/>
<path d="M120.693 80.7731H125.051V82.2468H122.564V83.7726H124.79V85.2463H122.564V87.0752H125.051V88.5488H120.693V80.7627V80.7731Z" fill="#0079C2"/>
<path d="M127.737 83.7727H128.96V80.7732H130.83V88.5593H128.96V85.2568H127.737V88.5593H125.856V80.7732H127.737V83.7727Z" fill="#0079C2"/>
<path d="M136.161 80.7731V82.1736H133.799V83.7726H134.645C135.753 83.7726 136.924 84.2638 136.924 86.1764C136.924 88.089 135.732 88.5488 134.645 88.5488H131.928V80.7627H136.171L136.161 80.7731ZM133.799 87.1588H134.123C134.666 87.1588 135.042 86.9707 135.042 86.2078C135.042 85.4448 134.624 85.1731 134.154 85.1731H133.799V87.1588Z" fill="#0079C2"/>
<path d="M139.463 80.7731L140.163 84.1698C140.216 84.452 140.216 84.9641 140.257 85.7793H140.278C140.341 84.9536 140.393 84.4729 140.466 84.1698L141.188 80.7731H143.131L141.459 86.7721C141.031 88.2771 140.592 88.6429 139.275 88.6429C138.93 88.6429 138.481 88.5697 138.334 88.4339V87.1066C138.418 87.1379 138.617 87.1588 138.805 87.1588C138.951 87.1588 139.16 87.1484 139.244 86.8975L137.488 80.7627H139.453L139.463 80.7731Z" fill="#0079C2"/>
<path d="M145.661 88.5593H143.79V80.7732H146.507C147.594 80.7732 148.786 81.1599 148.786 83.1456C148.786 85.1313 147.615 85.518 146.507 85.518H145.661V88.5593ZM145.661 84.128H145.995C146.465 84.128 146.904 83.8981 146.904 83.1352C146.904 82.3722 146.507 82.1841 145.964 82.1841H145.661V84.1385V84.128Z" fill="#0079C2"/>
<path d="M154.147 80.7732V82.2468H151.66V88.5593H149.778V80.7732H154.137H154.147Z" fill="#0079C2"/>
<path d="M156.864 84.4625V85.9362L154.91 87.253V85.863L155.976 85.1941L154.91 84.6298V83.2397L156.864 84.4625ZM159.32 84.4625V85.9362L157.366 87.253V85.863L158.432 85.1941L157.366 84.6298V83.2397L159.32 84.4625Z" fill="#0079C2"/>
<path d="M24.4522 20H97.5896C100.046 20 102.042 21.9962 102.042 24.4522V97.5478C102.042 100.004 100.046 102 97.5896 102H24.4522C21.9962 102 20 100.004 20 97.5478V24.4522C20 21.9962 21.9962 20 24.4522 20Z" fill="white"/>
<path d="M97.5896 20H24.4522C22.0066 20 20 22.0066 20 24.4522V97.5478C20 99.9934 22.0066 102 24.4522 102H97.5896C100.046 102 102.042 99.9934 102.042 97.5478V24.4522C102.042 22.0066 100.035 20 97.5896 20ZM88.5807 86.4277C88.5807 87.6087 87.6087 88.5807 86.4277 88.5807H35.6141C34.4331 88.5807 33.4611 87.6087 33.4611 86.4277V35.5723C33.4611 34.3913 34.4331 33.4193 35.6141 33.4193H86.4382C87.6192 33.4193 88.5911 34.3913 88.5911 35.5723V86.4382L88.5807 86.4277Z" fill="#0079C2"/>
<path d="M48.9812 48.751H49.7546C49.9114 48.751 50.0681 48.772 50.2144 48.8033C50.9565 47.6014 52.2838 46.8071 53.7887 46.8071C55.2937 46.8071 56.621 47.6119 57.3631 48.8033C57.5198 48.772 57.6766 48.751 57.8334 48.751H58.5963C57.5303 47.9881 56.83 46.7444 56.83 45.3335C56.83 44.7691 56.945 44.2257 57.1436 43.724C57.0913 43.724 57.0391 43.7031 56.9868 43.7031H50.5907C50.5384 43.7031 50.4862 43.7136 50.4339 43.724C50.6429 44.2152 50.7579 44.7587 50.7579 45.3335C50.7579 46.7444 50.0577 47.9881 48.9917 48.751H48.9812Z" fill="#0079C2"/>
<path d="M73.6669 66.9468V80.1257C74.503 79.8435 75.1091 79.0597 75.1091 78.1295V69.9358C75.0673 69.8627 75.0255 69.8 74.9837 69.7268L73.6669 66.9572V66.9468Z" fill="#0079C2"/>
<path d="M85.8947 62.2961L80.3451 50.6534C80.3451 50.6534 80.1988 50.3713 80.1256 50.2667C79.948 50.0264 79.718 49.8382 79.4463 49.7128C79.2164 49.6083 78.9655 49.5456 78.6938 49.5352H72.3081C72.3081 49.5352 72.235 49.5352 72.2036 49.5456C72.3708 50.0055 72.4754 50.4967 72.4754 51.0088C72.4754 52.4197 71.7751 53.6634 70.7091 54.4263H71.472C71.8378 54.4263 72.2036 54.5099 72.5485 54.6771C72.6635 54.7294 72.7784 54.8026 72.8934 54.8757C73.0293 54.9698 73.1651 55.0847 73.2906 55.1997C73.3742 55.2833 73.4578 55.3774 73.5309 55.4714C73.5832 55.5341 73.6354 55.6282 73.6877 55.7118C73.7399 55.8059 73.7922 55.8999 73.8236 55.9522V55.9835L79.3731 67.6262C79.948 68.8385 79.4358 70.2808 78.2235 70.8556C77.8995 71.0123 77.5442 71.0959 77.1888 71.0959C76.729 71.0959 76.2796 70.9601 75.9033 70.7197V78.1191C75.9033 79.2897 76.8439 80.2303 78.0145 80.2303C79.185 80.2303 80.1256 79.2897 80.1256 78.1191V57.7916L82.937 63.6965C83.2192 64.2818 83.8044 64.6267 84.4211 64.6267C84.6614 64.6267 84.9018 64.5744 85.1213 64.4699C85.9365 64.0832 86.2814 63.1008 85.8947 62.2856V62.2961Z" fill="#0079C2"/>
<path d="M59.1918 71.0853V80.1255C60.0279 79.8434 60.6341 79.0595 60.6341 78.1294V70.7195C60.2579 70.9599 59.8085 71.0957 59.3486 71.0957C59.2964 71.0957 59.2441 71.0748 59.1814 71.0748L59.1918 71.0853Z" fill="#0079C2"/>
<path d="M61.4178 70.7195V78.1294C61.4178 79.0595 62.024 79.8434 62.8601 80.1255V71.0853C62.8079 71.0853 62.7556 71.1062 62.6929 71.1062C62.233 71.1062 61.7941 70.9703 61.4178 70.7299V70.7195Z" fill="#0079C2"/>
<path d="M56.976 54.4263C57.2896 54.4263 57.5926 54.489 57.8748 54.604C57.9271 54.6249 57.9898 54.6458 58.0525 54.6771C58.1152 54.7085 58.1779 54.7398 58.2302 54.7817C58.2824 54.813 58.3451 54.8444 58.3869 54.8862C58.4496 54.928 58.5019 54.9593 58.5542 55.0116C58.6378 55.0743 58.7109 55.1474 58.7736 55.2206C58.8572 55.3042 58.9409 55.3983 59.014 55.4923C59.0663 55.555 59.1185 55.6491 59.1708 55.7327C59.2335 55.8268 59.2753 55.9208 59.3066 55.9731V56.0044L60.9997 59.5474L62.6928 56.0044V55.9835C62.7242 55.9313 62.7764 55.8372 62.8391 55.7327C62.8914 55.6491 62.9437 55.555 62.9959 55.4923C63.0691 55.3983 63.1422 55.3042 63.2363 55.2206C63.3094 55.1474 63.3826 55.0847 63.4558 55.0116C63.508 54.9698 63.5707 54.928 63.623 54.8862C63.6752 54.8444 63.7275 54.813 63.7797 54.7817C63.8425 54.7503 63.9052 54.7085 63.9679 54.6771C64.0201 54.6458 64.0828 54.6249 64.1351 54.604C64.4277 54.489 64.7308 54.4263 65.0443 54.4263H65.8073C64.7413 53.6634 64.041 52.4197 64.041 51.0088C64.041 50.4967 64.1351 50.0055 64.3128 49.5456C64.2814 49.5456 64.2396 49.5456 64.2082 49.5352H57.8121C57.8121 49.5352 57.739 49.5456 57.7076 49.5456C57.8748 50.0055 57.9689 50.4967 57.9689 51.0088C57.9689 52.4197 57.2687 53.6634 56.2026 54.4263H56.9656H56.976Z" fill="#0079C2"/>
<path d="M47.058 69.7163C47.0267 69.7895 46.9744 69.8627 46.9326 69.9358V78.1295C46.9326 79.0597 47.5388 79.8435 48.3749 80.1257V66.9468L47.2462 69.3192L47.0476 69.7268L47.058 69.7163Z" fill="#0079C2"/>
<path d="M43.8389 70.8658C43.6926 70.7927 43.5672 70.7195 43.4732 70.6464C42.5117 69.967 42.1772 68.692 42.6893 67.6364L48.2284 55.9938V55.9729C48.2598 55.9206 48.3121 55.8266 48.3643 55.7221C48.4166 55.6385 48.4688 55.5444 48.5211 55.4817C48.5942 55.3876 48.6778 55.2936 48.7615 55.21C48.8869 55.0845 49.0123 54.98 49.1586 54.886C49.2736 54.8128 49.3781 54.7397 49.5035 54.6874C49.8484 54.5306 50.2037 54.447 50.58 54.4366H51.3429C50.2769 53.6736 49.5766 52.4299 49.5766 51.019C49.5766 50.5069 49.6707 50.0157 49.8379 49.5559C49.8066 49.5559 49.7648 49.5559 49.7334 49.5454H43.3373C43.0656 49.5454 42.8147 49.6081 42.5953 49.7231C42.3235 49.8485 42.0936 50.0366 41.9159 50.277C41.8323 50.3815 41.686 50.6637 41.686 50.6637L36.1469 62.3063C35.802 63.0379 36.0424 63.8949 36.6799 64.3443C36.753 64.3965 36.8367 64.4488 36.9203 64.4906C37.1502 64.5951 37.3906 64.6474 37.6205 64.6474C38.2371 64.6474 38.8224 64.3025 39.1046 63.7172L41.9159 57.8123V78.1399C41.9159 79.3104 42.8565 80.251 44.0271 80.251C45.1976 80.251 46.1382 79.3104 46.1382 78.1399V70.7404C45.762 70.9808 45.3126 71.1167 44.8527 71.1167C44.4869 71.1167 44.142 71.0331 43.818 70.8867L43.8389 70.8658Z" fill="#0079C2"/>
<path d="M57.9483 70.6466C56.9867 69.9672 56.6523 68.6922 57.1644 67.6366L60.5924 60.4462L58.7948 56.6838L58.6276 56.3284C58.6276 56.3284 58.4813 56.0463 58.3977 55.9417C58.3454 55.8686 58.2722 55.8059 58.2095 55.7432C58.1155 55.6491 58.011 55.5655 57.896 55.4923C57.8437 55.4505 57.781 55.4087 57.7183 55.3774C57.6661 55.346 57.6034 55.3356 57.5407 55.3147C57.363 55.252 57.1749 55.1997 56.9658 55.1997H50.5697C50.298 55.1997 50.0472 55.2624 49.8277 55.3774C49.5559 55.5028 49.326 55.6909 49.1484 55.9313C49.0752 56.0358 48.9289 56.318 48.9289 56.318L48.7617 56.6733L48.3645 57.499L43.3793 67.9711C43.0344 68.7026 43.2748 69.5596 43.9123 70.009C43.9855 70.0613 44.0691 70.1136 44.1527 70.1554C44.3826 70.2599 44.623 70.3121 44.8529 70.3121C45.3441 70.3121 45.8249 70.0822 46.1384 69.6851C46.2116 69.591 46.2847 69.4865 46.337 69.3715L49.1484 63.4666V83.7942C49.1484 84.9647 50.0994 85.9053 51.2595 85.9053C52.4196 85.9053 53.3706 84.9542 53.3706 83.7942V72.3292H54.1545V83.7942C54.1545 84.9647 55.0951 85.9053 56.2656 85.9053C57.4361 85.9053 58.3767 84.9542 58.3767 83.7942V70.8869C58.3767 70.8869 58.314 70.8765 58.2931 70.8556C58.1468 70.7824 58.0319 70.7093 57.9273 70.6361L57.9483 70.6466Z" fill="#0079C2"/>
<path d="M77.1785 70.3121C77.4084 70.3121 77.6488 70.2599 77.8787 70.1554C78.6939 69.7687 79.0388 68.7863 78.6521 67.9711L73.6669 57.499L73.2697 56.6733L73.1025 56.318C73.1025 56.318 72.9562 56.0358 72.8831 55.9313C72.7054 55.6909 72.4755 55.5028 72.2037 55.3774C71.9738 55.2729 71.723 55.2102 71.4617 55.1997H65.0656C64.867 55.1997 64.6789 55.2415 64.5012 55.3147C64.4489 55.3356 64.3758 55.346 64.3235 55.3774C64.2608 55.4087 64.2086 55.4505 64.1459 55.4923C64.0309 55.5655 63.9264 55.6491 63.8323 55.7432C63.7696 55.8059 63.6965 55.8686 63.6442 55.9417C63.5606 56.0463 63.4247 56.3284 63.4247 56.3284L63.2575 56.6838L57.8751 67.9815C57.5303 68.7131 57.7706 69.5701 58.4082 70.0195C58.4813 70.0717 58.5649 70.124 58.6485 70.1658C58.7008 70.1867 58.753 70.1972 58.7949 70.2181C58.9203 70.2599 59.0561 70.2912 59.192 70.3121C59.2443 70.3121 59.2965 70.333 59.3592 70.333C59.8086 70.333 60.2476 70.1449 60.5611 69.8105C60.5925 69.7791 60.6134 69.7269 60.6447 69.6955C60.7074 69.6119 60.7701 69.5387 60.8119 69.4447C60.8119 69.4238 60.8328 69.4133 60.8433 69.4029L61.0419 68.9953L63.268 64.3131L63.2889 64.2713L64.8983 67.6471C65.4732 68.8594 64.9611 70.3017 63.7487 70.8765C63.7174 70.8869 63.686 70.8974 63.6547 70.9078V83.8151C63.6547 84.9856 64.5953 85.9262 65.7658 85.9262C66.9363 85.9262 67.8769 84.9751 67.8769 83.8151V72.3501H68.6608V83.8151C68.6608 84.9856 69.6118 85.9262 70.7719 85.9262C71.932 85.9262 72.8831 84.9751 72.8831 83.8151V63.4875L75.6944 69.3924C75.7467 69.5074 75.8198 69.6119 75.893 69.706C76.2065 70.1031 76.6768 70.333 77.1785 70.333V70.3121Z" fill="#0079C2"/>
<path d="M64.1769 67.9708L63.6439 66.8525L63.2467 66.0269L62.8496 66.9361L61.7208 69.3085L61.5223 69.7161C61.5223 69.7161 61.4909 69.7684 61.4805 69.7893C61.794 70.1237 62.233 70.3118 62.6824 70.3118C62.7346 70.3118 62.7869 70.3014 62.8496 70.2909C62.9854 70.2805 63.1109 70.2491 63.2467 70.1969C63.299 70.176 63.3512 70.1655 63.393 70.1446C63.4766 70.1028 63.5603 70.0506 63.6334 69.9983C64.2709 69.5489 64.5113 68.6919 64.1664 67.9603L64.1769 67.9708Z" fill="#0079C2"/>
<path d="M53.7781 42.9193C55.6698 42.9193 57.1957 41.383 57.1957 39.5018C57.1957 37.6206 55.6698 36.0842 53.7781 36.0842C51.8865 36.0842 50.3606 37.6101 50.3606 39.5018C50.3606 41.3934 51.8865 42.9193 53.7781 42.9193Z" fill="#0079C2"/>
<path d="M68.2635 42.9191C70.1551 42.9191 71.681 41.3827 71.681 39.5015C71.681 37.6203 70.1551 36.084 68.2635 36.084C66.3718 36.084 64.8459 37.6099 64.8459 39.5015C64.8459 41.3932 66.3823 42.9191 68.2635 42.9191Z" fill="#0079C2"/>
<path d="M60.4773 48.6988C60.5505 48.7093 60.6132 48.7197 60.6864 48.7302C60.77 48.7302 60.8536 48.7302 60.9267 48.7406C60.9581 48.7406 60.9895 48.7406 61.0208 48.7406C61.0522 48.7406 61.0835 48.7406 61.1149 48.7406C61.1985 48.7406 61.2821 48.7406 61.3552 48.7302C61.4284 48.7302 61.4911 48.7093 61.5643 48.6988C63.1947 48.4376 64.4383 47.0266 64.4383 45.3231C64.4383 44.8423 64.3338 44.3825 64.1562 43.9749C64.1039 43.8495 64.0412 43.7345 63.9785 43.6196C63.9158 43.5046 63.8426 43.4001 63.759 43.2956C63.132 42.4595 62.1391 41.916 61.0208 41.916C59.9025 41.916 58.8992 42.4595 58.2826 43.2956C58.199 43.4001 58.1258 43.515 58.0631 43.63C58.0004 43.745 57.9377 43.8599 57.8855 43.9749C57.7078 44.3929 57.6033 44.8423 57.6033 45.3231C57.6033 47.0266 58.847 48.4376 60.4773 48.6988Z" fill="#0079C2"/>
<path d="M46.2013 48.7305C46.3162 48.7305 46.4207 48.7514 46.5357 48.7514C46.5671 48.7514 46.5984 48.7514 46.6298 48.7514C46.7865 48.7514 46.9328 48.7305 47.0896 48.7096C48.72 48.4483 49.9637 47.0374 49.9637 45.3338C49.9637 44.8531 49.8592 44.3932 49.6815 43.9856C49.6293 43.8602 49.5665 43.7453 49.4934 43.6303C49.4307 43.5153 49.3575 43.4108 49.2739 43.3063C48.6468 42.4702 47.654 41.9268 46.5357 41.9268C44.644 41.9268 43.1182 43.4526 43.1182 45.3443C43.1182 47.121 44.4768 48.5842 46.2013 48.7514V48.7305Z" fill="#0079C2"/>
<path d="M53.1616 54.3636C53.2765 54.3845 53.4019 54.3949 53.5169 54.4054C53.5483 54.4054 53.5796 54.4054 53.6214 54.4054C53.6737 54.4054 53.7364 54.4054 53.7886 54.4054C53.8409 54.4054 53.9036 54.4054 53.9559 54.4054C53.9872 54.4054 54.0186 54.4054 54.0604 54.4054C54.1858 54.4054 54.3007 54.3845 54.4157 54.3636C56.0043 54.0709 57.2062 52.6809 57.2062 50.9983C57.2062 50.5594 57.1226 50.1518 56.9762 49.7651C56.9344 49.6396 56.8717 49.5142 56.809 49.3993C56.7463 49.2843 56.6836 49.1693 56.6105 49.0648C55.9938 48.166 54.9592 47.5703 53.7886 47.5703C52.6181 47.5703 51.5834 48.1556 50.9668 49.0648C50.8937 49.1693 50.8205 49.2843 50.7578 49.4097C50.6951 49.5247 50.6428 49.6396 50.601 49.7651C50.4547 50.1413 50.3711 50.5594 50.3711 50.9983C50.3711 52.6705 51.573 54.0605 53.172 54.3636H53.1616Z" fill="#0079C2"/>
<path d="M67.6362 54.3636C67.7512 54.3845 67.8661 54.3949 67.9916 54.4054C68.0334 54.4054 68.0647 54.4054 68.0961 54.4054C68.1483 54.4054 68.211 54.4054 68.2633 54.4054C68.3155 54.4054 68.3782 54.4054 68.4305 54.4054C68.4619 54.4054 68.4932 54.4054 68.535 54.4054C68.6604 54.4054 68.7754 54.3845 68.8904 54.3636C70.4789 54.0709 71.6913 52.6809 71.6913 50.9983C71.6913 50.5594 71.6077 50.1518 71.4613 49.7651C71.4091 49.6396 71.3568 49.5142 71.2941 49.3993C71.2314 49.2843 71.1687 49.1693 71.0956 49.0648C70.4789 48.166 69.4443 47.5703 68.2737 47.5703C67.1032 47.5703 66.0685 48.1556 65.4519 49.0648C65.3788 49.1693 65.3056 49.2843 65.2429 49.4097C65.1802 49.5351 65.1279 49.6396 65.0861 49.7755C64.9398 50.1518 64.8562 50.5698 64.8562 51.0088C64.8562 52.6809 66.0581 54.0709 67.6571 54.374L67.6362 54.3636Z" fill="#0079C2"/>
<path d="M73.0711 48.7513H72.2978C72.141 48.7513 71.9842 48.7722 71.8379 48.8035C71.0959 47.6017 69.779 46.8074 68.2636 46.8074C66.7482 46.8074 65.4313 47.6121 64.6893 48.8035C64.5325 48.7722 64.3758 48.7513 64.219 48.7513H63.4561C64.5221 47.9884 65.2223 46.7447 65.2223 45.3338C65.2223 44.7694 65.1073 44.2259 64.8983 43.7243C64.9506 43.7243 65.0028 43.7034 65.0551 43.7034H71.4512C71.5035 43.7034 71.5557 43.7138 71.608 43.7243C71.399 44.2155 71.284 44.7589 71.284 45.3338C71.284 46.7447 71.9842 47.9884 73.0502 48.7513H73.0711Z" fill="#0079C2"/>
<path d="M75.8407 48.7305C75.7258 48.7305 75.6212 48.7514 75.5063 48.7514C75.4749 48.7514 75.4436 48.7514 75.4122 48.7514C75.2555 48.7514 75.1091 48.7305 74.9628 48.7096C73.3324 48.4483 72.0887 47.0374 72.0887 45.3338C72.0887 44.8531 72.1933 44.3932 72.3709 43.9856C72.4232 43.8602 72.4859 43.7453 72.5486 43.6303C72.6113 43.5153 72.6845 43.4108 72.7681 43.3063C73.3951 42.4702 74.388 41.9268 75.5063 41.9268C77.398 41.9268 78.9238 43.4526 78.9238 45.3443C78.9238 47.121 77.5756 48.5842 75.8407 48.7514V48.7305Z" fill="#0079C2"/>
</svg>
